<svg version="1.1" viewBox="0.0 0.0 600.0 371.0" fill="none" stroke="none" stroke-linecap="square" stroke-miterlimit="10" width="600" height="371" xmlns:xlink="http://www.w3.org/1999/xlink" xmlns="http://www.w3.org/2000/svg"><path fill="#ffffff" d="M0 0L600.0 0L600.0 371.0L0 371.0L0 0Z" fill-rule="nonzero"/><path stroke="#333333" stroke-width="1.0" stroke-linecap="butt" d="M45.5 300.5L581.5 300.5" fill-rule="nonzero"/><path stroke="#cccccc" stroke-width="1.0" stroke-linecap="butt" d="M45.5 258.5L581.5 258.5" fill-rule="nonzero"/><path stroke="#cccccc" stroke-width="1.0" stroke-linecap="butt" d="M45.5 215.5L581.5 215.5" fill-rule="nonzero"/><path stroke="#cccccc" stroke-width="1.0" stroke-linecap="butt" d="M45.5 173.5L581.5 173.5" fill-rule="nonzero"/><path stroke="#cccccc" stroke-width="1.0" stroke-linecap="butt" d="M45.5 130.5L581.5 130.5" fill-rule="nonzero"/><path stroke="#cccccc" stroke-width="1.0" stroke-linecap="butt" d="M45.5 88.5L581.5 88.5" fill-rule="nonzero"/><clipPath id="id_0"><path d="M45.55 88.28333L581.45 88.28333L581.45 300.45L45.55 300.45L45.55 88.28333Z" clip-rule="nonzero"/></clipPath><path stroke="#000000" stroke-width="2.0" stroke-linecap="butt" stroke-opacity="0.0" clip-path="url(#id_0)" d="M115.0 300.0L90.0 300.0L90.0 110.0C90.0 108.89543 90.89543 108.0 92.0 108.0L113.0 108.0C114.10457 108.0 115.0 108.89543 115.0 110.0Z" fill-rule="nonzero"/><path fill="#4285f4" clip-path="url(#id_0)" d="M115.0 300.0L90.0 300.0L90.0 110.0C90.0 108.89543 90.89543 108.0 92.0 108.0L113.0 108.0C114.10457 108.0 115.0 108.89543 115.0 110.0Z" fill-rule="nonzero"/><path stroke="#000000" stroke-width="2.0" stroke-linecap="butt" stroke-opacity="0.0" clip-path="url(#id_0)" d="M238.0 300.0L213.0 300.0L213.0 225.0C213.0 223.89543 213.89543 223.0 215.0 223.0L236.0 223.0C237.10457 223.0 238.0 223.89543 238.0 225.0Z" fill-rule="nonzero"/><path fill="#4285f4" clip-path="url(#id_0)" d="M238.0 300.0L213.0 300.0L213.0 225.0C213.0 223.89543 213.89543 223.0 215.0 223.0L236.0 223.0C237.10457 223.0 238.0 223.89543 238.0 225.0Z" fill-rule="nonzero"/><path stroke="#000000" stroke-width="2.0" stroke-linecap="butt" stroke-opacity="0.0" clip-path="url(#id_0)" d="M361.0 300.0L336.0 300.0L336.0 264.0C336.0 262.89542 336.89542 262.0 338.0 262.0L359.0 262.0C360.10458 262.0 361.0 262.89542 361.0 264.0Z" fill-rule="nonzero"/><path fill="#4285f4" clip-path="url(#id_0)" d="M361.0 300.0L336.0 300.0L336.0 264.0C336.0 262.89542 336.89542 262.0 338.0 262.0L359.0 262.0C360.10458 262.0 361.0 262.89542 361.0 264.0Z" fill-rule="nonzero"/><path stroke="#000000" stroke-width="2.0" stroke-linecap="butt" stroke-opacity="0.0" clip-path="url(#id_0)" d="M484.0 300.0L459.0 300.0L459.0 283.0C459.0 281.89542 459.89542 281.0 461.0 281.0L482.0 281.0C483.10458 281.0 484.0 281.89542 484.0 283.0Z" fill-rule="nonzero"/><path fill="#4285f4" clip-path="url(#id_0)" d="M484.0 300.0L459.0 300.0L459.0 283.0C459.0 281.89542 459.89542 281.0 461.0 281.0L482.0 281.0C483.10458 281.0 484.0 281.89542 484.0 283.0Z" fill-rule="nonzero"/><path stroke="#000000" stroke-width="2.0" stroke-linecap="butt" stroke-opacity="0.0" clip-path="url(#id_0)" d="M142.0 300.0L117.0 300.0L117.0 91.0C117.0 89.89543 117.89543 89.0 119.0 89.0L140.0 89.0C141.10457 89.0 142.0 89.89543 142.0 91.0Z" fill-rule="nonzero"/><path fill="#ea4335" clip-path="url(#id_0)" d="M142.0 300.0L117.0 300.0L117.0 91.0C117.0 89.89543 117.89543 89.0 119.0 89.0L140.0 89.0C141.10457 89.0 142.0 89.89543 142.0 91.0Z" fill-rule="nonzero"/><path stroke="#000000" stroke-width="2.0" stroke-linecap="butt" stroke-opacity="0.0" clip-path="url(#id_0)" d="M265.0 300.0L240.0 300.0L240.0 218.0C240.0 216.89543 240.89543 216.0 242.0 216.0L263.0 216.0C264.10458 216.0 265.0 216.89543 265.0 218.0Z" fill-rule="nonzero"/><path fill="#ea4335" clip-path="url(#id_0)" d="M265.0 300.0L240.0 300.0L240.0 218.0C240.0 216.89543 240.89543 216.0 242.0 216.0L263.0 216.0C264.10458 216.0 265.0 216.89543 265.0 218.0Z" fill-rule="nonzero"/><path stroke="#000000" stroke-width="2.0" stroke-linecap="butt" stroke-opacity="0.0" clip-path="url(#id_0)" d="M388.0 300.0L363.0 300.0L363.0 260.0C363.0 258.89542 363.89542 258.0 365.0 258.0L386.0 258.0C387.10458 258.0 388.0 258.89542 388.0 260.0Z" fill-rule="nonzero"/><path fill="#ea4335" clip-path="url(#id_0)" d="M388.0 300.0L363.0 300.0L363.0 260.0C363.0 258.89542 363.89542 258.0 365.0 258.0L386.0 258.0C387.10458 258.0 388.0 258.89542 388.0 260.0Z" fill-rule="nonzero"/><path stroke="#000000" stroke-width="2.0" stroke-linecap="butt" stroke-opacity="0.0" clip-path="url(#id_0)" d="M511.0 300.0L486.0 300.0L486.0 281.0C486.0 279.89542 486.89542 279.0 488.0 279.0L509.0 279.0C510.10458 279.0 511.0 279.89542 511.0 281.0Z" fill-rule="nonzero"/><path fill="#ea4335" clip-path="url(#id_0)" d="M511.0 300.0L486.0 300.0L486.0 281.0C486.0 279.89542 486.89542 279.0 488.0 279.0L509.0 279.0C510.10458 279.0 511.0 279.89542 511.0 281.0Z" fill-rule="nonzero"/><path stroke="#000000" stroke-width="2.0" stroke-linecap="butt" stroke-opacity="0.0" clip-path="url(#id_0)" d="M169.0 300.0L144.0 300.0L144.0 96.0C144.0 94.89543 144.89543 94.0 146.0 94.0L167.0 94.0C168.10457 94.0 169.0 94.89543 169.0 96.0Z" fill-rule="nonzero"/><path fill="#fbbc04" clip-path="url(#id_0)" d="M169.0 300.0L144.0 300.0L144.0 96.0C144.0 94.89543 144.89543 94.0 146.0 94.0L167.0 94.0C168.10457 94.0 169.0 94.89543 169.0 96.0Z" fill-rule="nonzero"/><path stroke="#000000" stroke-width="2.0" stroke-linecap="butt" stroke-opacity="0.0" clip-path="url(#id_0)" d="M292.0 300.0L267.0 300.0L267.0 219.0C267.0 217.89543 267.89542 217.0 269.0 217.0L290.0 217.0C291.10458 217.0 292.0 217.89543 292.0 219.0Z" fill-rule="nonzero"/><path fill="#fbbc04" clip-path="url(#id_0)" d="M292.0 300.0L267.0 300.0L267.0 219.0C267.0 217.89543 267.89542 217.0 269.0 217.0L290.0 217.0C291.10458 217.0 292.0 217.89543 292.0 219.0Z" fill-rule="nonzero"/><path stroke="#000000" stroke-width="2.0" stroke-linecap="butt" stroke-opacity="0.0" clip-path="url(#id_0)" d="M415.0 300.0L390.0 300.0L390.0 261.0C390.0 259.89542 390.89542 259.0 392.0 259.0L413.0 259.0C414.10458 259.0 415.0 259.89542 415.0 261.0Z" fill-rule="nonzero"/><path fill="#fbbc04" clip-path="url(#id_0)" d="M415.0 300.0L390.0 300.0L390.0 261.0C390.0 259.89542 390.89542 259.0 392.0 259.0L413.0 259.0C414.10458 259.0 415.0 259.89542 415.0 261.0Z" fill-rule="nonzero"/><path stroke="#000000" stroke-width="2.0" stroke-linecap="butt" stroke-opacity="0.0" clip-path="url(#id_0)" d="M538.0 300.0L513.0 300.0L513.0 281.0C513.0 279.89542 513.89545 279.0 515.0 279.0L536.0 279.0C537.10455 279.0 538.0 279.89542 538.0 281.0Z" fill-rule="nonzero"/><path fill="#fbbc04" clip-path="url(#id_0)" d="M538.0 300.0L513.0 300.0L513.0 281.0C513.0 279.89542 513.89545 279.0 515.0 279.0L536.0 279.0C537.10455 279.0 538.0 279.89542 538.0 281.0Z" fill-rule="nonzero"/><path fill="#000000" d="M277.875 349.45L277.875 340.85626L281.10938 340.85626Q282.09375 340.85626 282.6875 341.1219Q283.28125 341.3875 283.60938 341.9344Q283.95312 342.46564 283.95312 343.0594Q283.95312 343.60626 283.65625 344.09064Q283.35938 344.575 282.75 344.8719Q283.53125 345.10626 283.9375 345.66876Q284.35938 346.21564 284.35938 346.96564Q284.35938 347.5594 284.10938 348.09064Q283.85938 348.60626 283.48438 348.8875Q283.10938 349.16876 282.53125 349.3094Q281.96875 349.45 281.15625 349.45L277.875 349.45ZM279.01562 344.46564L280.875 344.46564Q281.625 344.46564 281.95312 344.3719Q282.39062 344.2469 282.60938 343.95Q282.82812 343.6375 282.82812 343.1844Q282.82812 342.7625 282.625 342.4344Q282.42188 342.10626 282.03125 341.9969Q281.65625 341.8719 280.73438 341.8719L279.01562 341.8719L279.01562 344.46564ZM279.01562 348.4344L281.15625 348.4344Q281.70312 348.4344 281.92188 348.3875Q282.32812 348.325 282.57812 348.16876Q282.84375 347.9969 283.01562 347.6844Q283.1875 347.3719 283.1875 346.96564Q283.1875 346.48126 282.9375 346.1219Q282.70312 345.7625 282.26562 345.6219Q281.82812 345.48126 281.0 345.48126L279.01562 345.48126L279.01562 348.4344ZM289.875 349.45L289.875 348.52814Q289.14062 349.59064 287.89062 349.59064Q287.34375 349.59064 286.85938 349.3875Q286.39062 349.16876 286.15625 348.85626Q285.92188 348.52814 285.82812 348.0594Q285.76562 347.7625 285.76562 347.075L285.76562 343.23126L286.82812 343.23126L286.82812 346.6844Q286.82812 347.4969 286.89062 347.79376Q286.98438 348.2 287.29688 348.45Q287.625 348.6844 288.10938 348.6844Q288.57812 348.6844 288.98438 348.45Q289.40625 348.2 289.57812 347.77814Q289.76562 347.35626 289.76562 346.5594L289.76562 343.23126L290.8125 343.23126L290.8125 349.45L289.875 349.45ZM296.85938 347.16876L297.89062 347.3094Q297.71875 348.3719 297.01562 348.98126Q296.3125 349.59064 295.29688 349.59064Q294.01562 349.59064 293.23438 348.7625Q292.46875 347.91876 292.46875 346.35626Q292.46875 345.35626 292.79688 344.60626Q293.14062 343.84064 293.8125 343.46564Q294.5 343.09064 295.3125 343.09064Q296.3125 343.09064 296.95312 343.60626Q297.60938 344.10626 297.79688 345.0594L296.76562 345.21564Q296.625 344.59064 296.25 344.27814Q295.875 343.95 295.34375 343.95Q294.54688 343.95 294.04688 344.52814Q293.54688 345.09064 293.54688 346.325Q293.54688 347.59064 294.03125 348.15314Q294.51562 348.71564 295.28125 348.71564Q295.90625 348.71564 296.3125 348.34064Q296.73438 347.96564 296.85938 347.16876ZM298.79688 349.45L298.79688 340.85626L299.85938 340.85626L299.85938 345.7625L302.34375 343.23126L303.71875 343.23126L301.32812 345.52814L303.95312 349.45L302.65625 349.45L300.59375 346.2625L299.85938 346.98126L299.85938 349.45L298.79688 349.45ZM309.04688 347.45L310.14062 347.575Q309.89062 348.52814 309.1875 349.0594Q308.48438 349.59064 307.40625 349.59064Q306.04688 349.59064 305.23438 348.7469Q304.4375 347.90314 304.4375 346.3875Q304.4375 344.825 305.25 343.96564Q306.0625 343.09064 307.34375 343.09064Q308.59375 343.09064 309.375 343.9344Q310.17188 344.77814 310.17188 346.325Q310.17188 346.41876 310.17188 346.60626L305.53125 346.60626Q305.59375 347.6375 306.10938 348.1844Q306.625 348.71564 307.40625 348.71564Q307.98438 348.71564 308.39062 348.41876Q308.8125 348.10626 309.04688 347.45ZM305.59375 345.7469L309.0625 345.7469Q309.0 344.95 308.67188 344.5594Q308.15625 343.95 307.35938 343.95Q306.625 343.95 306.125 344.4344Q305.64062 344.91876 305.59375 345.7469ZM314.09375 348.5125L314.25 349.4344Q313.79688 349.52814 313.45312 349.52814Q312.875 349.52814 312.5625 349.35626Q312.25 349.16876 312.10938 348.8719Q311.98438 348.575 311.98438 347.6219L311.98438 344.04376L311.21875 344.04376L311.21875 343.23126L311.98438 343.23126L311.98438 341.6844L313.03125 341.0594L313.03125 343.23126L314.09375 343.23126L314.09375 344.04376L313.03125 344.04376L313.03125 347.6844Q313.03125 348.1375 313.07812 348.2625Q313.14062 348.3875 313.26562 348.46564Q313.39062 348.54376 313.625 348.54376Q313.8125 348.54376 314.09375 348.5125ZM324.0625 346.4344L325.1875 346.73126Q324.82812 348.1219 323.90625 348.85626Q322.98438 349.59064 321.64062 349.59064Q320.25 349.59064 319.375 349.02814Q318.5 348.46564 318.04688 347.40314Q317.59375 346.325 317.59375 345.09064Q317.59375 343.7469 318.10938 342.7469Q318.625 341.7469 319.5625 341.23126Q320.51562 340.71564 321.65625 340.71564Q322.9375 340.71564 323.8125 341.3719Q324.70312 342.02814 325.04688 343.21564L323.92188 343.48126Q323.625 342.54376 323.04688 342.1219Q322.48438 341.6844 321.625 341.6844Q320.64062 341.6844 319.96875 342.16876Q319.3125 342.6375 319.03125 343.4344Q318.76562 344.23126 318.76562 345.09064Q318.76562 346.1844 319.07812 346.9969Q319.40625 347.8094 320.07812 348.21564Q320.75 348.6219 321.54688 348.6219Q322.5 348.6219 323.15625 348.075Q323.82812 347.52814 324.0625 346.4344ZM326.40625 346.34064Q326.40625 344.60626 327.35938 343.77814Q328.15625 343.09064 329.3125 343.09064Q330.59375 343.09064 331.40625 343.9344Q332.23438 344.7625 332.23438 346.2469Q332.23438 347.45 331.875 348.1375Q331.51562 348.825 330.8125 349.21564Q330.125 349.59064 329.3125 349.59064Q328.01562 349.59064 327.20312 348.7625Q326.40625 347.91876 326.40625 346.34064ZM327.48438 346.34064Q327.48438 347.52814 328.0 348.1219Q328.53125 348.71564 329.3125 348.71564Q330.10938 348.71564 330.625 348.1219Q331.14062 347.52814 331.14062 346.3094Q331.14062 345.15314 330.60938 344.5594Q330.09375 343.96564 329.3125 343.96564Q328.53125 343.96564 328.0 344.5594Q327.48438 345.1375 327.48438 346.34064ZM337.875 349.45L337.875 348.52814Q337.14062 349.59064 335.89062 349.59064Q335.34375 349.59064 334.85938 349.3875Q334.39062 349.16876 334.15625 348.85626Q333.92188 348.52814 333.82812 348.0594Q333.76562 347.7625 333.76562 347.075L333.76562 343.23126L334.82812 343.23126L334.82812 346.6844Q334.82812 347.4969 334.89062 347.79376Q334.98438 348.2 335.29688 348.45Q335.625 348.6844 336.10938 348.6844Q336.57812 348.6844 336.98438 348.45Q337.40625 348.2 337.57812 347.77814Q337.76562 347.35626 337.76562 346.5594L337.76562 343.23126L338.8125 343.23126L338.8125 349.45L337.875 349.45ZM340.79688 349.45L340.79688 343.23126L341.73438 343.23126L341.73438 344.10626Q342.42188 343.09064 343.71875 343.09064Q344.28125 343.09064 344.75 343.29376Q345.23438 343.4969 345.46875 343.825Q345.70312 344.15314 345.79688 344.59064Q345.84375 344.8875 345.84375 345.6219L345.84375 349.45L344.79688 349.45L344.79688 345.66876Q344.79688 345.0125 344.67188 344.7Q344.54688 344.3875 344.23438 344.2Q343.92188 343.9969 343.5 343.9969Q342.82812 343.9969 342.32812 344.4344Q341.84375 344.85626 341.84375 346.04376L341.84375 349.45L340.79688 349.45ZM350.09375 348.5125L350.25 349.4344Q349.79688 349.52814 349.45312 349.52814Q348.875 349.52814 348.5625 349.35626Q348.25 349.16876 348.10938 348.8719Q347.98438 348.575 347.98438 347.6219L347.98438 344.04376L347.21875 344.04376L347.21875 343.23126L347.98438 343.23126L347.98438 341.6844L349.03125 341.0594L349.03125 343.23126L350.09375 343.23126L350.09375 344.04376L349.03125 344.04376L349.03125 347.6844Q349.03125 348.1375 349.07812 348.2625Q349.14062 348.3875 349.26562 348.46564Q349.39062 348.54376 349.625 348.54376Q349.8125 348.54376 350.09375 348.5125Z" fill-rule="nonzero"/><path fill="#000000" d="M33.05 300.21564Q33.05 298.6844 33.3625 297.7625Q33.675 296.825 34.284374 296.325Q34.909374 295.825 35.846874 295.825Q36.534374 295.825 37.05 296.10626Q37.58125 296.3875 37.925 296.91876Q38.26875 297.4344 38.45625 298.1844Q38.64375 298.9344 38.64375 300.21564Q38.64375 301.73126 38.33125 302.65314Q38.034374 303.575 37.409374 304.09064Q36.8 304.59064 35.846874 304.59064Q34.6125 304.59064 33.89375 303.7Q33.05 302.6375 33.05 300.21564ZM34.128124 300.21564Q34.128124 302.325 34.628124 303.02814Q35.128124 303.73126 35.846874 303.73126Q36.58125 303.73126 37.065624 303.02814Q37.565624 302.325 37.565624 300.21564Q37.565624 298.09064 37.065624 297.40314Q36.58125 296.7 35.83125 296.7Q35.1125 296.7 34.675 297.3094Q34.128124 298.09064 34.128124 300.21564Z" fill-rule="nonzero"/><path fill="#000000" d="M23.01875 262.01666L21.971874 262.01666L21.971874 255.29791Q21.58125 255.65729 20.95625 256.0323Q20.346874 256.39166 19.8625 256.56354L19.8625 255.54791Q20.7375 255.12604 21.39375 254.54791Q22.065624 253.95416 22.346874 253.39166L23.01875 253.39166L23.01875 262.01666ZM26.05 257.7823Q26.05 256.25104 26.3625 255.32916Q26.675 254.39166 27.284374 253.89166Q27.909374 253.39166 28.846874 253.39166Q29.534374 253.39166 30.05 253.67291Q30.58125 253.95416 30.925 254.48541Q31.26875 255.00104 31.45625 255.75104Q31.64375 256.50104 31.64375 257.7823Q31.64375 259.2979 31.33125 260.2198Q31.034374 261.14166 30.409374 261.6573Q29.8 262.1573 28.846874 262.1573Q27.6125 262.1573 26.89375 261.26666Q26.05 260.20416 26.05 257.7823ZM27.128124 257.7823Q27.128124 259.89166 27.628124 260.5948Q28.128124 261.2979 28.846874 261.2979Q29.58125 261.2979 30.065624 260.5948Q30.565624 259.89166 30.565624 257.7823Q30.565624 255.65729 30.065624 254.96979Q29.58125 254.26666 28.83125 254.26666Q28.1125 254.26666 27.675 254.87604Q27.128124 255.65729 27.128124 257.7823ZM33.05 257.7823Q33.05 256.25104 33.3625 255.32916Q33.675 254.39166 34.284374 253.89166Q34.909374 253.39166 35.846874 253.39166Q36.534374 253.39166 37.05 253.67291Q37.58125 253.95416 37.925 254.48541Q38.26875 255.00104 38.45625 255.75104Q38.64375 256.50104 38.64375 257.7823Q38.64375 259.2979 38.33125 260.2198Q38.034374 261.14166 37.409374 261.6573Q36.8 262.1573 35.846874 262.1573Q34.6125 262.1573 33.89375 261.26666Q33.05 260.20416 33.05 257.7823ZM34.128124 257.7823Q34.128124 259.89166 34.628124 260.5948Q35.128124 261.2979 35.846874 261.2979Q36.58125 261.2979 37.065624 260.5948Q37.565624 259.89166 37.565624 257.7823Q37.565624 255.65729 37.065624 254.96979Q36.58125 254.26666 35.83125 254.26666Q35.1125 254.26666 34.675 254.87604Q34.128124 255.65729 34.128124 257.7823Z" fill-rule="nonzero"/><path fill="#000000" d="M24.596874 218.5677L24.596874 219.58333L18.909374 219.58333Q18.909374 219.20833 19.034374 218.84895Q19.253124 218.27083 19.721874 217.70833Q20.20625 217.14583 21.1125 216.41145Q22.51875 215.2552 23.003124 214.58333Q23.503124 213.91145 23.503124 213.3177Q23.503124 212.6927 23.05 212.27083Q22.596874 211.83333 21.878124 211.83333Q21.1125 211.83333 20.659374 212.28645Q20.20625 212.73958 20.190624 213.55208L19.1125 213.4427Q19.221874 212.22395 19.940624 211.59895Q20.675 210.95833 21.909374 210.95833Q23.14375 210.95833 23.8625 211.64583Q24.58125 212.33333 24.58125 213.34895Q24.58125 213.86458 24.3625 214.36458Q24.159374 214.84895 23.659374 215.41145Q23.175 215.95833 22.05 216.91145Q21.096874 217.70833 20.815624 218.0052Q20.55 218.28645 20.378124 218.5677L24.596874 218.5677ZM26.05 215.34895Q26.05 213.8177 26.3625 212.89583Q26.675 211.95833 27.284374 211.45833Q27.909374 210.95833 28.846874 210.95833Q29.534374 210.95833 30.05 211.23958Q30.58125 211.52083 30.925 212.05208Q31.26875 212.5677 31.45625 213.3177Q31.64375 214.0677 31.64375 215.34895Q31.64375 216.86458 31.33125 217.78645Q31.034374 218.70833 30.409374 219.22395Q29.8 219.72395 28.846874 219.72395Q27.6125 219.72395 26.89375 218.83333Q26.05 217.77083 26.05 215.34895ZM27.128124 215.34895Q27.128124 217.45833 27.628124 218.16145Q28.128124 218.86458 28.846874 218.86458Q29.58125 218.86458 30.065624 218.16145Q30.565624 217.45833 30.565624 215.34895Q30.565624 213.22395 30.065624 212.53645Q29.58125 211.83333 28.83125 211.83333Q28.1125 211.83333 27.675 212.4427Q27.128124 213.22395 27.128124 215.34895ZM33.05 215.34895Q33.05 213.8177 33.3625 212.89583Q33.675 211.95833 34.284374 211.45833Q34.909374 210.95833 35.846874 210.95833Q36.534374 210.95833 37.05 211.23958Q37.58125 211.52083 37.925 212.05208Q38.26875 212.5677 38.45625 213.3177Q38.64375 214.0677 38.64375 215.34895Q38.64375 216.86458 38.33125 217.78645Q38.034374 218.70833 37.409374 219.22395Q36.8 219.72395 35.846874 219.72395Q34.6125 219.72395 33.89375 218.83333Q33.05 217.77083 33.05 215.34895ZM34.128124 215.34895Q34.128124 217.45833 34.628124 218.16145Q35.128124 218.86458 35.846874 218.86458Q36.58125 218.86458 37.065624 218.16145Q37.565624 217.45833 37.565624 215.34895Q37.565624 213.22395 37.065624 212.53645Q36.58125 211.83333 35.83125 211.83333Q35.1125 211.83333 34.675 212.4427Q34.128124 213.22395 34.128124 215.34895Z" fill-rule="nonzero"/><path fill="#000000" d="M19.05 174.88437L20.1125 174.74374Q20.284374 175.63437 20.721874 176.04062Q21.159374 176.43124 21.784374 176.43124Q22.534374 176.43124 23.05 175.91562Q23.565624 175.4 23.565624 174.63437Q23.565624 173.91562 23.08125 173.44687Q22.6125 172.9625 21.878124 172.9625Q21.58125 172.9625 21.128124 173.0875L21.253124 172.15Q21.3625 172.16562 21.425 172.16562Q22.096874 172.16562 22.628124 171.82187Q23.175 171.4625 23.175 170.72812Q23.175 170.15 22.784374 169.775Q22.39375 169.38437 21.76875 169.38437Q21.159374 169.38437 20.7375 169.775Q20.33125 170.16562 20.221874 170.93124L19.159374 170.74374Q19.346874 169.69687 20.034374 169.11874Q20.721874 168.525 21.7375 168.525Q22.440624 168.525 23.034374 168.8375Q23.628124 169.13437 23.940624 169.65Q24.253124 170.16562 24.253124 170.75937Q24.253124 171.30624 23.95625 171.775Q23.659374 172.22812 23.08125 172.49374Q23.83125 172.66562 24.253124 173.22812Q24.675 173.775 24.675 174.61874Q24.675 175.74374 23.846874 176.525Q23.034374 177.30624 21.784374 177.30624Q20.659374 177.30624 19.909374 176.63437Q19.159374 175.94687 19.05 174.88437ZM26.05 172.91562Q26.05 171.38437 26.3625 170.4625Q26.675 169.525 27.284374 169.025Q27.909374 168.525 28.846874 168.525Q29.534374 168.525 30.05 168.80624Q30.58125 169.0875 30.925 169.61874Q31.26875 170.13437 31.45625 170.88437Q31.64375 171.63437 31.64375 172.91562Q31.64375 174.43124 31.33125 175.35312Q31.034374 176.275 30.409374 176.79062Q29.8 177.29062 28.846874 177.29062Q27.6125 177.29062 26.89375 176.4Q26.05 175.3375 26.05 172.91562ZM27.128124 172.91562Q27.128124 175.025 27.628124 175.72812Q28.128124 176.43124 28.846874 176.43124Q29.58125 176.43124 30.065624 175.72812Q30.565624 175.025 30.565624 172.91562Q30.565624 170.79062 30.065624 170.10312Q29.58125 169.4 28.83125 169.4Q28.1125 169.4 27.675 170.00937Q27.128124 170.79062 27.128124 172.91562ZM33.05 172.91562Q33.05 171.38437 33.3625 170.4625Q33.675 169.525 34.284374 169.025Q34.909374 168.525 35.846874 168.525Q36.534374 168.525 37.05 168.80624Q37.58125 169.0875 37.925 169.61874Q38.26875 170.13437 38.45625 170.88437Q38.64375 171.63437 38.64375 172.91562Q38.64375 174.43124 38.33125 175.35312Q38.034374 176.275 37.409374 176.79062Q36.8 177.29062 35.846874 177.29062Q34.6125 177.29062 33.89375 176.4Q33.05 175.3375 33.05 172.91562ZM34.128124 172.91562Q34.128124 175.025 34.628124 175.72812Q35.128124 176.43124 35.846874 176.43124Q36.58125 176.43124 37.065624 175.72812Q37.565624 175.025 37.565624 172.91562Q37.565624 170.79062 37.065624 170.10312Q36.58125 169.4 35.83125 169.4Q35.1125 169.4 34.675 170.00937Q34.128124 170.79062 34.128124 172.91562Z" fill-rule="nonzero"/><path fill="#000000" d="M22.425 134.71666L22.425 132.65416L18.70625 132.65416L18.70625 131.68541L22.628124 126.12291L23.4875 126.12291L23.4875 131.68541L24.64375 131.68541L24.64375 132.65416L23.4875 132.65416L23.4875 134.71666L22.425 134.71666ZM22.425 131.68541L22.425 127.826035L19.7375 131.68541L22.425 131.68541ZM26.05 130.48228Q26.05 128.95103 26.3625 128.02916Q26.675 127.09166 27.284374 126.59166Q27.909374 126.09166 28.846874 126.09166Q29.534374 126.09166 30.05 126.37291Q30.58125 126.65416 30.925 127.18541Q31.26875 127.701035 31.45625 128.45103Q31.64375 129.20103 31.64375 130.48228Q31.64375 131.99791 31.33125 132.91978Q31.034374 133.84166 30.409374 134.35728Q29.8 134.85728 28.846874 134.85728Q27.6125 134.85728 26.89375 133.96666Q26.05 132.90416 26.05 130.48228ZM27.128124 130.48228Q27.128124 132.59166 27.628124 133.29478Q28.128124 133.99791 28.846874 133.99791Q29.58125 133.99791 30.065624 133.29478Q30.565624 132.59166 30.565624 130.48228Q30.565624 128.35728 30.065624 127.669785Q29.58125 126.96666 28.83125 126.96666Q28.1125 126.96666 27.675 127.576035Q27.128124 128.35728 27.128124 130.48228ZM33.05 130.48228Q33.05 128.95103 33.3625 128.02916Q33.675 127.09166 34.284374 126.59166Q34.909374 126.09166 35.846874 126.09166Q36.534374 126.09166 37.05 126.37291Q37.58125 126.65416 37.925 127.18541Q38.26875 127.701035 38.45625 128.45103Q38.64375 129.20103 38.64375 130.48228Q38.64375 131.99791 38.33125 132.91978Q38.034374 133.84166 37.409374 134.35728Q36.8 134.85728 35.846874 134.85728Q34.6125 134.85728 33.89375 133.96666Q33.05 132.90416 33.05 130.48228ZM34.128124 130.48228Q34.128124 132.59166 34.628124 133.29478Q35.128124 133.99791 35.846874 133.99791Q36.58125 133.99791 37.065624 133.29478Q37.565624 132.59166 37.565624 130.48228Q37.565624 128.35728 37.065624 127.669785Q36.58125 126.96666 35.83125 126.96666Q35.1125 126.96666 34.675 127.576035Q34.128124 128.35728 34.128124 130.48228Z" fill-rule="nonzero"/><path fill="#000000" d="M19.05 90.03333L20.159374 89.93958Q20.284374 90.75208 20.721874 91.15833Q21.175 91.56458 21.815624 91.56458Q22.565624 91.56458 23.096874 90.98646Q23.628124 90.40833 23.628124 89.47083Q23.628124 88.56458 23.1125 88.04896Q22.6125 87.51771 21.784374 87.51771Q21.284374 87.51771 20.8625 87.75208Q20.45625 87.98646 20.221874 88.34583L19.2375 88.22083L20.065624 83.81458L24.346874 83.81458L24.346874 84.81458L20.909374 84.81458L20.45625 87.12708Q21.221874 86.58021 22.065624 86.58021Q23.190624 86.58021 23.95625 87.36146Q24.7375 88.14271 24.7375 89.37708Q24.7375 90.53333 24.065624 91.39271Q23.2375 92.42396 21.815624 92.42396Q20.64375 92.42396 19.89375 91.76771Q19.159374 91.11146 19.05 90.03333ZM26.05 88.04896Q26.05 86.51771 26.3625 85.59583Q26.675 84.65833 27.284374 84.15833Q27.909374 83.65833 28.846874 83.65833Q29.534374 83.65833 30.05 83.93958Q30.58125 84.22083 30.925 84.75208Q31.26875 85.26771 31.45625 86.01771Q31.64375 86.76771 31.64375 88.04896Q31.64375 89.56458 31.33125 90.48646Q31.034374 91.40833 30.409374 91.92396Q29.8 92.42396 28.846874 92.42396Q27.6125 92.42396 26.89375 91.53333Q26.05 90.47083 26.05 88.04896ZM27.128124 88.04896Q27.128124 90.15833 27.628124 90.86146Q28.128124 91.56458 28.846874 91.56458Q29.58125 91.56458 30.065624 90.86146Q30.565624 90.15833 30.565624 88.04896Q30.565624 85.92396 30.065624 85.23646Q29.58125 84.53333 28.83125 84.53333Q28.1125 84.53333 27.675 85.14271Q27.128124 85.92396 27.128124 88.04896ZM33.05 88.04896Q33.05 86.51771 33.3625 85.59583Q33.675 84.65833 34.284374 84.15833Q34.909374 83.65833 35.846874 83.65833Q36.534374 83.65833 37.05 83.93958Q37.58125 84.22083 37.925 84.75208Q38.26875 85.26771 38.45625 86.01771Q38.64375 86.76771 38.64375 88.04896Q38.64375 89.56458 38.33125 90.48646Q38.034374 91.40833 37.409374 91.92396Q36.8 92.42396 35.846874 92.42396Q34.6125 92.42396 33.89375 91.53333Q33.05 90.47083 33.05 88.04896ZM34.128124 88.04896Q34.128124 90.15833 34.628124 90.86146Q35.128124 91.56458 35.846874 91.56458Q36.58125 91.56458 37.065624 90.86146Q37.565624 90.15833 37.565624 88.04896Q37.565624 85.92396 37.065624 85.23646Q36.58125 84.53333 35.83125 84.53333Q35.1125 84.53333 34.675 85.14271Q34.128124 85.92396 34.128124 88.04896Z" fill-rule="nonzero"/><path fill="#000000" d="M131.25377 316.4344L131.25377 317.45L125.56627 317.45Q125.56627 317.075 125.69127 316.71564Q125.91002 316.1375 126.37877 315.575Q126.863144 315.0125 127.769394 314.27814Q129.17564 313.1219 129.66002 312.45Q130.16002 311.77814 130.16002 311.1844Q130.16002 310.5594 129.7069 310.1375Q129.25377 309.7 128.53502 309.7Q127.769394 309.7 127.31627 310.15314Q126.863144 310.60626 126.84752 311.41876L125.769394 311.3094Q125.87877 310.09064 126.59752 309.46564Q127.331894 308.825 128.56627 308.825Q129.80064 308.825 130.5194 309.5125Q131.23814 310.2 131.23814 311.21564Q131.23814 311.73126 131.0194 312.23126Q130.81627 312.71564 130.31627 313.27814Q129.8319 313.825 128.7069 314.77814Q127.75377 315.575 127.47252 315.8719Q127.206894 316.15314 127.03502 316.4344L131.25377 316.4344Z" fill-rule="nonzero"/><path fill="#000000" d="M248.9023 315.2L250.01167 315.10626Q250.13667 315.91876 250.57417 316.325Q251.0273 316.73126 251.66792 316.73126Q252.41792 316.73126 252.94917 316.15314Q253.48042 315.575 253.48042 314.6375Q253.48042 313.73126 252.9648 313.21564Q252.4648 312.6844 251.63667 312.6844Q251.13667 312.6844 250.7148 312.91876Q250.30855 313.15314 250.07417 313.5125L249.0898 313.3875L249.91792 308.98126L254.19917 308.98126L254.19917 309.98126L250.76167 309.98126L250.30855 312.29376Q251.07417 311.7469 251.91792 311.7469Q253.04292 311.7469 253.80855 312.52814Q254.5898 313.3094 254.5898 314.54376Q254.5898 315.7 253.91792 316.5594Q253.0898 317.59064 251.66792 317.59064Q250.49605 317.59064 249.74605 316.9344Q249.01167 316.27814 248.9023 315.2Z" fill-rule="nonzero"/><path fill="#000000" d="M372.56644 317.45L371.51956 317.45L371.51956 310.73126Q371.12894 311.09064 370.50394 311.46564Q369.89456 311.825 369.4102 311.9969L369.4102 310.98126Q370.2852 310.5594 370.94144 309.98126Q371.6133 309.3875 371.89456 308.825L372.56644 308.825L372.56644 317.45ZM375.5977 313.21564Q375.5977 311.6844 375.9102 310.7625Q376.2227 309.825 376.83206 309.325Q377.45706 308.825 378.39456 308.825Q379.08206 308.825 379.5977 309.10626Q380.12894 309.3875 380.4727 309.91876Q380.81644 310.4344 381.00394 311.1844Q381.19144 311.9344 381.19144 313.21564Q381.19144 314.73126 380.87894 315.65314Q380.58206 316.575 379.95706 317.09064Q379.3477 317.59064 378.39456 317.59064Q377.1602 317.59064 376.44144 316.7Q375.5977 315.6375 375.5977 313.21564ZM376.6758 313.21564Q376.6758 315.325 377.1758 316.02814Q377.6758 316.73126 378.39456 316.73126Q379.12894 316.73126 379.6133 316.02814Q380.1133 315.325 380.1133 313.21564Q380.1133 311.09064 379.6133 310.40314Q379.12894 309.7 378.37894 309.7Q377.6602 309.7 377.2227 310.3094Q376.6758 311.09064 376.6758 313.21564Z" fill-rule="nonzero"/><path fill="#000000" d="M497.33997 316.4344L497.33997 317.45L491.65247 317.45Q491.65247 317.075 491.77747 316.71564Q491.99622 316.1375 492.46497 315.575Q492.94934 315.0125 493.8556 314.27814Q495.26184 313.1219 495.74622 312.45Q496.24622 311.77814 496.24622 311.1844Q496.24622 310.5594 495.7931 310.1375Q495.33997 309.7 494.62122 309.7Q493.8556 309.7 493.40247 310.15314Q492.94934 310.60626 492.93372 311.41876L491.8556 311.3094Q491.96497 310.09064 492.68372 309.46564Q493.4181 308.825 494.65247 308.825Q495.88684 308.825 496.6056 309.5125Q497.32434 310.2 497.32434 311.21564Q497.32434 311.73126 497.1056 312.23126Q496.90247 312.71564 496.40247 313.27814Q495.9181 313.825 494.7931 314.77814Q493.83997 315.575 493.55872 315.8719Q493.2931 316.15314 493.12122 316.4344L497.33997 316.4344ZM498.7931 313.21564Q498.7931 311.6844 499.1056 310.7625Q499.4181 309.825 500.02747 309.325Q500.65247 308.825 501.58997 308.825Q502.27747 308.825 502.7931 309.10626Q503.32434 309.3875 503.6681 309.91876Q504.01184 310.4344 504.19934 311.1844Q504.38684 311.9344 504.38684 313.21564Q504.38684 314.73126 504.07434 315.65314Q503.77747 316.575 503.15247 317.09064Q502.5431 317.59064 501.58997 317.59064Q500.3556 317.59064 499.63684 316.7Q498.7931 315.6375 498.7931 313.21564ZM499.87122 313.21564Q499.87122 315.325 500.37122 316.02814Q500.87122 316.73126 501.58997 316.73126Q502.32434 316.73126 502.80872 316.02814Q503.30872 315.325 503.30872 313.21564Q503.30872 311.09064 502.80872 310.40314Q502.32434 309.7 501.57434 309.7Q500.8556 309.7 500.4181 310.3094Q499.87122 311.09064 499.87122 313.21564Z" fill-rule="nonzero"/><path fill="#4285f4" d="M85.0 56.916668C85.0 56.364384 85.447716 55.916668 86.0 55.916668L96.0 55.916668C96.552284 55.916668 97.0 56.364384 97.0 56.916668L97.0 66.916664C97.0 67.46895 96.552284 67.916664 96.0 67.916664L86.0 67.916664C85.447716 67.916664 85.0 67.46895 85.0 66.916664Z" fill-rule="nonzero"/><path fill="#1a1a1a" d="M105.578125 61.729164Q105.578125 59.58854 106.71875 58.385414Q107.875 57.166664 109.6875 57.166664Q110.890625 57.166664 111.84375 57.74479Q112.796875 58.30729 113.296875 59.322914Q113.796875 60.33854 113.796875 61.635414Q113.796875 62.93229 113.265625 63.96354Q112.734375 64.99479 111.765625 65.52604Q110.8125 66.05729 109.6875 66.05729Q108.46875 66.05729 107.515625 65.479164Q106.5625 64.885414 106.0625 63.885414Q105.578125 62.86979 105.578125 61.729164ZM106.75 61.74479Q106.75 63.30729 107.578125 64.197914Q108.421875 65.08854 109.6875 65.08854Q110.96875 65.08854 111.796875 64.197914Q112.625 63.291664 112.625 61.61979Q112.625 60.572914 112.265625 59.791664Q111.921875 59.010414 111.234375 58.58854Q110.546875 58.15104 109.703125 58.15104Q108.5 58.15104 107.625 58.979164Q106.75 59.80729 106.75 61.74479ZM114.796875 68.30729L114.796875 59.697914L115.75 59.697914L115.75 60.49479Q116.09375 60.02604 116.515625 59.791664Q116.953125 59.55729 117.5625 59.55729Q118.359375 59.55729 118.96875 59.96354Q119.578125 60.36979 119.875 61.11979Q120.1875 61.86979 120.1875 62.760414Q120.1875 63.71354 119.84375 64.479164Q119.515625 65.24479 118.859375 65.65104Q118.203125 66.05729 117.484375 66.05729Q116.953125 66.05729 116.53125 65.83854Q116.109375 65.604164 115.84375 65.27604L115.84375 68.30729L114.796875 68.30729ZM115.75 62.83854Q115.75 64.041664 116.234375 64.61979Q116.71875 65.18229 117.40625 65.18229Q118.109375 65.18229 118.609375 64.58854Q119.109375 63.99479 119.109375 62.74479Q119.109375 61.55729 118.625 60.979164Q118.140625 60.385414 117.453125 60.385414Q116.78125 60.385414 116.265625 61.010414Q115.75 61.635414 115.75 62.83854ZM126.046875 63.916664L127.140625 64.041664Q126.890625 64.99479 126.1875 65.52604Q125.484375 66.05729 124.40625 66.05729Q123.046875 66.05729 122.234375 65.21354Q121.4375 64.36979 121.4375 62.854164Q121.4375 61.291664 122.25 60.43229Q123.0625 59.55729 124.34375 59.55729Q125.59375 59.55729 126.375 60.40104Q127.171875 61.24479 127.171875 62.791664Q127.171875 62.885414 127.171875 63.072914L122.53125 63.072914Q122.59375 64.104164 123.109375 64.65104Q123.625 65.18229 124.40625 65.18229Q124.984375 65.18229 125.390625 64.885414Q125.8125 64.572914 126.046875 63.916664ZM122.59375 62.21354L126.0625 62.21354Q126.0 61.416664 125.671875 61.02604Q125.15625 60.416664 124.359375 60.416664Q123.625 60.416664 123.125 60.90104Q122.640625 61.385414 122.59375 62.21354ZM128.78125 65.916664L128.78125 59.697914L129.73438 59.697914L129.73438 60.635414Q130.09375 59.979164 130.39062 59.77604Q130.70312 59.55729 131.07812 59.55729Q131.60938 59.55729 132.15625 59.885414L131.79688 60.86979Q131.40625 60.635414 131.03125 60.635414Q130.67188 60.635414 130.39062 60.854164Q130.125 61.05729 130.01562 61.43229Q129.82812 61.99479 129.82812 62.65104L129.82812 65.916664L128.78125 65.916664ZM136.85938 65.15104Q136.26562 65.65104 135.71875 65.854164Q135.1875 66.05729 134.5625 66.05729Q133.53125 66.05729 132.98438 65.55729Q132.4375 65.05729 132.4375 64.27604Q132.4375 63.822914 132.64062 63.447914Q132.84375 63.05729 133.1875 62.83854Q133.53125 62.604164 133.95312 62.49479Q134.25 62.40104 134.89062 62.322914Q136.15625 62.18229 136.76562 61.96354Q136.76562 61.74479 136.76562 61.697914Q136.76562 61.041664 136.46875 60.77604Q136.0625 60.43229 135.26562 60.43229Q134.53125 60.43229 134.17188 60.697914Q133.8125 60.947914 133.64062 61.604164L132.60938 61.46354Q132.75 60.80729 133.07812 60.40104Q133.40625 59.99479 134.01562 59.77604Q134.625 59.55729 135.42188 59.55729Q136.21875 59.55729 136.71875 59.74479Q137.21875 59.93229 137.45312 60.21354Q137.6875 60.49479 137.78125 60.93229Q137.82812 61.197914 137.82812 61.90104L137.82812 63.30729Q137.82812 64.77604 137.89062 65.166664Q137.96875 65.55729 138.17188 65.916664L137.0625 65.916664Q136.90625 65.58854 136.85938 65.15104ZM136.76562 62.791664Q136.1875 63.02604 135.04688 63.197914Q134.39062 63.291664 134.125 63.416664Q133.85938 63.52604 133.70312 63.74479Q133.5625 63.96354 133.5625 64.24479Q133.5625 64.666664 133.875 64.947914Q134.20312 65.229164 134.8125 65.229164Q135.42188 65.229164 135.89062 64.96354Q136.375 64.697914 136.59375 64.229164Q136.76562 63.86979 136.76562 63.18229L136.76562 62.791664ZM142.09375 64.979164L142.25 65.90104Q141.79688 65.99479 141.45312 65.99479Q140.875 65.99479 140.5625 65.822914Q140.25 65.635414 140.10938 65.33854Q139.98438 65.041664 139.98438 64.08854L139.98438 60.510414L139.21875 60.510414L139.21875 59.697914L139.98438 59.697914L139.98438 58.15104L141.03125 57.52604L141.03125 59.697914L142.09375 59.697914L142.09375 60.510414L141.03125 60.510414L141.03125 64.15104Q141.03125 64.604164 141.07812 64.729164Q141.14062 64.854164 141.26562 64.93229Q141.39062 65.010414 141.625 65.010414Q141.8125 65.010414 142.09375 64.979164ZM142.79688 58.541664L142.79688 57.322914L143.85938 57.322914L143.85938 58.541664L142.79688 58.541664ZM142.79688 65.916664L142.79688 59.697914L143.85938 59.697914L143.85938 65.916664L142.79688 65.916664ZM145.40625 62.80729Q145.40625 61.072914 146.35938 60.24479Q147.15625 59.55729 148.3125 59.55729Q149.59375 59.55729 150.40625 60.40104Q151.23438 61.229164 151.23438 62.71354Q151.23438 63.916664 150.875 64.604164Q150.51562 65.291664 149.8125 65.68229Q149.125 66.05729 148.3125 66.05729Q147.01562 66.05729 146.20312 65.229164Q145.40625 64.385414 145.40625 62.80729ZM146.48438 62.80729Q146.48438 63.99479 147.0 64.58854Q147.53125 65.18229 148.3125 65.18229Q149.10938 65.18229 149.625 64.58854Q150.14062 63.99479 150.14062 62.77604Q150.14062 61.61979 149.60938 61.02604Q149.09375 60.43229 148.3125 60.43229Q147.53125 60.43229 147.0 61.02604Q146.48438 61.604164 146.48438 62.80729ZM152.79688 65.916664L152.79688 59.697914L153.73438 59.697914L153.73438 60.572914Q154.42188 59.55729 155.71875 59.55729Q156.28125 59.55729 156.75 59.760414Q157.23438 59.96354 157.46875 60.291664Q157.70312 60.61979 157.79688 61.05729Q157.84375 61.354164 157.84375 62.08854L157.84375 65.916664L156.79688 65.916664L156.79688 62.135414Q156.79688 61.479164 156.67188 61.166664Q156.54688 60.854164 156.23438 60.666664Q155.92188 60.46354 155.5 60.46354Q154.82812 60.46354 154.32812 60.90104Q153.84375 61.322914 153.84375 62.510414L153.84375 65.916664L152.79688 65.916664ZM162.79688 68.30729L162.79688 59.697914L163.75 59.697914L163.75 60.49479Q164.09375 60.02604 164.51562 59.791664Q164.95312 59.55729 165.5625 59.55729Q166.35938 59.55729 166.96875 59.96354Q167.57812 60.36979 167.875 61.11979Q168.1875 61.86979 168.1875 62.760414Q168.1875 63.71354 167.84375 64.479164Q167.51562 65.24479 166.85938 65.65104Q166.20312 66.05729 165.48438 66.05729Q164.95312 66.05729 164.53125 65.83854Q164.10938 65.604164 163.84375 65.27604L163.84375 68.30729L162.79688 68.30729ZM163.75 62.83854Q163.75 64.041664 164.23438 64.61979Q164.71875 65.18229 165.40625 65.18229Q166.10938 65.18229 166.60938 64.58854Q167.10938 63.99479 167.10938 62.74479Q167.10938 61.55729 166.625 60.979164Q166.14062 60.385414 165.45312 60.385414Q164.78125 60.385414 164.26562 61.010414Q163.75 61.635414 163.75 62.83854ZM174.04688 63.916664L175.14062 64.041664Q174.89062 64.99479 174.1875 65.52604Q173.48438 66.05729 172.40625 66.05729Q171.04688 66.05729 170.23438 65.21354Q169.4375 64.36979 169.4375 62.854164Q169.4375 61.291664 170.25 60.43229Q171.0625 59.55729 172.34375 59.55729Q173.59375 59.55729 174.375 60.40104Q175.17188 61.24479 175.17188 62.791664Q175.17188 62.885414 175.17188 63.072914L170.53125 63.072914Q170.59375 64.104164 171.10938 64.65104Q171.625 65.18229 172.40625 65.18229Q172.98438 65.18229 173.39062 64.885414Q173.8125 64.572914 174.04688 63.916664ZM170.59375 62.21354L174.0625 62.21354Q174.0 61.416664 173.67188 61.02604Q173.15625 60.416664 172.35938 60.416664Q171.625 60.416664 171.125 60.90104Q170.64062 61.385414 170.59375 62.21354ZM176.78125 65.916664L176.78125 59.697914L177.73438 59.697914L177.73438 60.635414Q178.09375 59.979164 178.39062 59.77604Q178.70312 59.55729 179.07812 59.55729Q179.60938 59.55729 180.15625 59.885414L179.79688 60.86979Q179.40625 60.635414 179.03125 60.635414Q178.67188 60.635414 178.39062 60.854164Q178.125 61.05729 178.01562 61.43229Q177.82812 61.99479 177.82812 62.65104L177.82812 65.916664L176.78125 65.916664ZM184.125 65.916664L184.125 57.322914L185.25 57.322914L185.25 65.916664L184.125 65.916664ZM186.79688 65.916664L186.79688 59.697914L187.73438 59.697914L187.73438 60.572914Q188.42188 59.55729 189.71875 59.55729Q190.28125 59.55729 190.75 59.760414Q191.23438 59.96354 191.46875 60.291664Q191.70312 60.61979 191.79688 61.05729Q191.84375 61.354164 191.84375 62.08854L191.84375 65.916664L190.79688 65.916664L190.79688 62.135414Q190.79688 61.479164 190.67188 61.166664Q190.54688 60.854164 190.23438 60.666664Q189.92188 60.46354 189.5 60.46354Q188.82812 60.46354 188.32812 60.90104Q187.84375 61.322914 187.84375 62.510414L187.84375 65.916664L186.79688 65.916664ZM193.375 64.05729L194.40625 63.90104Q194.5 64.52604 194.89062 64.854164Q195.29688 65.18229 196.03125 65.18229Q196.75 65.18229 197.09375 64.90104Q197.45312 64.604164 197.45312 64.197914Q197.45312 63.83854 197.14062 63.635414Q196.92188 63.49479 196.0625 63.27604Q194.90625 62.979164 194.45312 62.77604Q194.01562 62.55729 193.78125 62.18229Q193.54688 61.80729 193.54688 61.33854Q193.54688 60.93229 193.73438 60.572914Q193.92188 60.21354 194.25 59.979164Q194.5 59.80729 194.92188 59.68229Q195.34375 59.55729 195.84375 59.55729Q196.5625 59.55729 197.10938 59.77604Q197.67188 59.979164 197.9375 60.33854Q198.20312 60.697914 198.29688 61.291664L197.26562 61.43229Q197.20312 60.96354 196.85938 60.697914Q196.53125 60.416664 195.90625 60.416664Q195.1875 60.416664 194.875 60.666664Q194.5625 60.90104 194.5625 61.229164Q194.5625 61.43229 194.6875 61.58854Q194.82812 61.760414 195.09375 61.86979Q195.25 61.93229 196.03125 62.135414Q197.15625 62.447914 197.59375 62.635414Q198.03125 62.822914 198.28125 63.18229Q198.53125 63.541664 198.53125 64.08854Q198.53125 64.61979 198.21875 65.08854Q197.92188 65.541664 197.34375 65.80729Q196.76562 66.05729 196.03125 66.05729Q194.8125 66.05729 194.17188 65.55729Q193.54688 65.041664 193.375 64.05729ZM205.04688 63.916664L206.14062 64.041664Q205.89062 64.99479 205.1875 65.52604Q204.48438 66.05729 203.40625 66.05729Q202.04688 66.05729 201.23438 65.21354Q200.4375 64.36979 200.4375 62.854164Q200.4375 61.291664 201.25 60.43229Q202.0625 59.55729 203.34375 59.55729Q204.59375 59.55729 205.375 60.40104Q206.17188 61.24479 206.17188 62.791664Q206.17188 62.885414 206.17188 63.072914L201.53125 63.072914Q201.59375 64.104164 202.10938 64.65104Q202.625 65.18229 203.40625 65.18229Q203.98438 65.18229 204.39062 64.885414Q204.8125 64.572914 205.04688 63.916664ZM201.59375 62.21354L205.0625 62.21354Q205.0 61.416664 204.67188 61.02604Q204.15625 60.416664 203.35938 60.416664Q202.625 60.416664 202.125 60.90104Q201.64062 61.385414 201.59375 62.21354ZM207.78125 65.916664L207.78125 59.697914L208.73438 59.697914L208.73438 60.635414Q209.09375 59.979164 209.39062 59.77604Q209.70312 59.55729 210.07812 59.55729Q210.60938 59.55729 211.15625 59.885414L210.79688 60.86979Q210.40625 60.635414 210.03125 60.635414Q209.67188 60.635414 209.39062 60.854164Q209.125 61.05729 209.01562 61.43229Q208.82812 61.99479 208.82812 62.65104L208.82812 65.916664L207.78125 65.916664ZM214.09375 64.979164L214.25 65.90104Q213.79688 65.99479 213.45312 65.99479Q212.875 65.99479 212.5625 65.822914Q212.25 65.635414 212.10938 65.33854Q211.98438 65.041664 211.98438 64.08854L211.98438 60.510414L211.21875 60.510414L211.21875 59.697914L211.98438 59.697914L211.98438 58.15104L213.03125 57.52604L213.03125 59.697914L214.09375 59.697914L214.09375 60.510414L213.03125 60.510414L213.03125 64.15104Q213.03125 64.604164 213.07812 64.729164Q213.14062 64.854164 213.26562 64.93229Q213.39062 65.010414 213.625 65.010414Q213.8125 65.010414 214.09375 64.979164Z" fill-rule="nonzero"/><path fill="#ea4335" d="M230.0 56.916668C230.0 56.364384 230.44771 55.916668 231.0 55.916668L241.0 55.916668C241.55229 55.916668 242.0 56.364384 242.0 56.916668L242.0 66.916664C242.0 67.46895 241.55229 67.916664 241.0 67.916664L231.0 67.916664C230.44771 67.916664 230.0 67.46895 230.0 66.916664Z" fill-rule="nonzero"/><path fill="#1a1a1a" d="M250.57812 61.729164Q250.57812 59.58854 251.71875 58.385414Q252.875 57.166664 254.6875 57.166664Q255.89062 57.166664 256.84375 57.74479Q257.79688 58.30729 258.29688 59.322914Q258.79688 60.33854 258.79688 61.635414Q258.79688 62.93229 258.26562 63.96354Q257.73438 64.99479 256.76562 65.52604Q255.8125 66.05729 254.6875 66.05729Q253.46875 66.05729 252.51562 65.479164Q251.5625 64.885414 251.0625 63.885414Q250.57812 62.86979 250.57812 61.729164ZM251.75 61.74479Q251.75 63.30729 252.57812 64.197914Q253.42188 65.08854 254.6875 65.08854Q255.96875 65.08854 256.79688 64.197914Q257.625 63.291664 257.625 61.61979Q257.625 60.572914 257.26562 59.791664Q256.92188 59.010414 256.23438 58.58854Q255.54688 58.15104 254.70312 58.15104Q253.5 58.15104 252.625 58.979164Q251.75 59.80729 251.75 61.74479ZM259.79688 68.30729L259.79688 59.697914L260.75 59.697914L260.75 60.49479Q261.09375 60.02604 261.51562 59.791664Q261.95312 59.55729 262.5625 59.55729Q263.35938 59.55729 263.96875 59.96354Q264.57812 60.36979 264.875 61.11979Q265.1875 61.86979 265.1875 62.760414Q265.1875 63.71354 264.84375 64.479164Q264.51562 65.24479 263.85938 65.65104Q263.20312 66.05729 262.48438 66.05729Q261.95312 66.05729 261.53125 65.83854Q261.10938 65.604164 260.84375 65.27604L260.84375 68.30729L259.79688 68.30729ZM260.75 62.83854Q260.75 64.041664 261.23438 64.61979Q261.71875 65.18229 262.40625 65.18229Q263.10938 65.18229 263.60938 64.58854Q264.10938 63.99479 264.10938 62.74479Q264.10938 61.55729 263.625 60.979164Q263.14062 60.385414 262.45312 60.385414Q261.78125 60.385414 261.26562 61.010414Q260.75 61.635414 260.75 62.83854ZM271.04688 63.916664L272.14062 64.041664Q271.89062 64.99479 271.1875 65.52604Q270.48438 66.05729 269.40625 66.05729Q268.04688 66.05729 267.23438 65.21354Q266.4375 64.36979 266.4375 62.854164Q266.4375 61.291664 267.25 60.43229Q268.0625 59.55729 269.34375 59.55729Q270.59375 59.55729 271.375 60.40104Q272.17188 61.24479 272.17188 62.791664Q272.17188 62.885414 272.17188 63.072914L267.53125 63.072914Q267.59375 64.104164 268.10938 64.65104Q268.625 65.18229 269.40625 65.18229Q269.98438 65.18229 270.39062 64.885414Q270.8125 64.572914 271.04688 63.916664ZM267.59375 62.21354L271.0625 62.21354Q271.0 61.416664 270.67188 61.02604Q270.15625 60.416664 269.35938 60.416664Q268.625 60.416664 268.125 60.90104Q267.64062 61.385414 267.59375 62.21354ZM273.78125 65.916664L273.78125 59.697914L274.73438 59.697914L274.73438 60.635414Q275.09375 59.979164 275.39062 59.77604Q275.70312 59.55729 276.07812 59.55729Q276.60938 59.55729 277.15625 59.885414L276.79688 60.86979Q276.40625 60.635414 276.03125 60.635414Q275.67188 60.635414 275.39062 60.854164Q275.125 61.05729 275.01562 61.43229Q274.82812 61.99479 274.82812 62.65104L274.82812 65.916664L273.78125 65.916664ZM281.85938 65.15104Q281.26562 65.65104 280.71875 65.854164Q280.1875 66.05729 279.5625 66.05729Q278.53125 66.05729 277.98438 65.55729Q277.4375 65.05729 277.4375 64.27604Q277.4375 63.822914 277.64062 63.447914Q277.84375 63.05729 278.1875 62.83854Q278.53125 62.604164 278.95312 62.49479Q279.25 62.40104 279.89062 62.322914Q281.15625 62.18229 281.76562 61.96354Q281.76562 61.74479 281.76562 61.697914Q281.76562 61.041664 281.46875 60.77604Q281.0625 60.43229 280.26562 60.43229Q279.53125 60.43229 279.17188 60.697914Q278.8125 60.947914 278.64062 61.604164L277.60938 61.46354Q277.75 60.80729 278.07812 60.40104Q278.40625 59.99479 279.01562 59.77604Q279.625 59.55729 280.42188 59.55729Q281.21875 59.55729 281.71875 59.74479Q282.21875 59.93229 282.45312 60.21354Q282.6875 60.49479 282.78125 60.93229Q282.82812 61.197914 282.82812 61.90104L282.82812 63.30729Q282.82812 64.77604 282.89062 65.166664Q282.96875 65.55729 283.17188 65.916664L282.0625 65.916664Q281.90625 65.58854 281.85938 65.15104ZM281.76562 62.791664Q281.1875 63.02604 280.04688 63.197914Q279.39062 63.291664 279.125 63.416664Q278.85938 63.52604 278.70312 63.74479Q278.5625 63.96354 278.5625 64.24479Q278.5625 64.666664 278.875 64.947914Q279.20312 65.229164 279.8125 65.229164Q280.42188 65.229164 280.89062 64.96354Q281.375 64.697914 281.59375 64.229164Q281.76562 63.86979 281.76562 63.18229L281.76562 62.791664ZM287.09375 64.979164L287.25 65.90104Q286.79688 65.99479 286.45312 65.99479Q285.875 65.99479 285.5625 65.822914Q285.25 65.635414 285.10938 65.33854Q284.98438 65.041664 284.98438 64.08854L284.98438 60.510414L284.21875 60.510414L284.21875 59.697914L284.98438 59.697914L284.98438 58.15104L286.03125 57.52604L286.03125 59.697914L287.09375 59.697914L287.09375 60.510414L286.03125 60.510414L286.03125 64.15104Q286.03125 64.604164 286.07812 64.729164Q286.14062 64.854164 286.26562 64.93229Q286.39062 65.010414 286.625 65.010414Q286.8125 65.010414 287.09375 64.979164ZM287.79688 58.541664L287.79688 57.322914L288.85938 57.322914L288.85938 58.541664L287.79688 58.541664ZM287.79688 65.916664L287.79688 59.697914L288.85938 59.697914L288.85938 65.916664L287.79688 65.916664ZM290.40625 62.80729Q290.40625 61.072914 291.35938 60.24479Q292.15625 59.55729 293.3125 59.55729Q294.59375 59.55729 295.40625 60.40104Q296.23438 61.229164 296.23438 62.71354Q296.23438 63.916664 295.875 64.604164Q295.51562 65.291664 294.8125 65.68229Q294.125 66.05729 293.3125 66.05729Q292.01562 66.05729 291.20312 65.229164Q290.40625 64.385414 290.40625 62.80729ZM291.48438 62.80729Q291.48438 63.99479 292.0 64.58854Q292.53125 65.18229 293.3125 65.18229Q294.10938 65.18229 294.625 64.58854Q295.14062 63.99479 295.14062 62.77604Q295.14062 61.61979 294.60938 61.02604Q294.09375 60.43229 293.3125 60.43229Q292.53125 60.43229 292.0 61.02604Q291.48438 61.604164 291.48438 62.80729ZM297.79688 65.916664L297.79688 59.697914L298.73438 59.697914L298.73438 60.572914Q299.42188 59.55729 300.71875 59.55729Q301.28125 59.55729 301.75 59.760414Q302.23438 59.96354 302.46875 60.291664Q302.70312 60.61979 302.79688 61.05729Q302.84375 61.354164 302.84375 62.08854L302.84375 65.916664L301.79688 65.916664L301.79688 62.135414Q301.79688 61.479164 301.67188 61.166664Q301.54688 60.854164 301.23438 60.666664Q300.92188 60.46354 300.5 60.46354Q299.82812 60.46354 299.32812 60.90104Q298.84375 61.322914 298.84375 62.510414L298.84375 65.916664L297.79688 65.916664ZM307.79688 68.30729L307.79688 59.697914L308.75 59.697914L308.75 60.49479Q309.09375 60.02604 309.51562 59.791664Q309.95312 59.55729 310.5625 59.55729Q311.35938 59.55729 311.96875 59.96354Q312.57812 60.36979 312.875 61.11979Q313.1875 61.86979 313.1875 62.760414Q313.1875 63.71354 312.84375 64.479164Q312.51562 65.24479 311.85938 65.65104Q311.20312 66.05729 310.48438 66.05729Q309.95312 66.05729 309.53125 65.83854Q309.10938 65.604164 308.84375 65.27604L308.84375 68.30729L307.79688 68.30729ZM308.75 62.83854Q308.75 64.041664 309.23438 64.61979Q309.71875 65.18229 310.40625 65.18229Q311.10938 65.18229 311.60938 64.58854Q312.10938 63.99479 312.10938 62.74479Q312.10938 61.55729 311.625 60.979164Q311.14062 60.385414 310.45312 60.385414Q309.78125 60.385414 309.26562 61.010414Q308.75 61.635414 308.75 62.83854ZM319.04688 63.916664L320.14062 64.041664Q319.89062 64.99479 319.1875 65.52604Q318.48438 66.05729 317.40625 66.05729Q316.04688 66.05729 315.23438 65.21354Q314.4375 64.36979 314.4375 62.854164Q314.4375 61.291664 315.25 60.43229Q316.0625 59.55729 317.34375 59.55729Q318.59375 59.55729 319.375 60.40104Q320.17188 61.24479 320.17188 62.791664Q320.17188 62.885414 320.17188 63.072914L315.53125 63.072914Q315.59375 64.104164 316.10938 64.65104Q316.625 65.18229 317.40625 65.18229Q317.98438 65.18229 318.39062 64.885414Q318.8125 64.572914 319.04688 63.916664ZM315.59375 62.21354L319.0625 62.21354Q319.0 61.416664 318.67188 61.02604Q318.15625 60.416664 317.35938 60.416664Q316.625 60.416664 316.125 60.90104Q315.64062 61.385414 315.59375 62.21354ZM321.78125 65.916664L321.78125 59.697914L322.73438 59.697914L322.73438 60.635414Q323.09375 59.979164 323.39062 59.77604Q323.70312 59.55729 324.07812 59.55729Q324.60938 59.55729 325.15625 59.885414L324.79688 60.86979Q324.40625 60.635414 324.03125 60.635414Q323.67188 60.635414 323.39062 60.854164Q323.125 61.05729 323.01562 61.43229Q322.82812 61.99479 322.82812 62.65104L322.82812 65.916664L321.78125 65.916664ZM332.82812 65.916664L332.82812 65.135414Q332.23438 66.05729 331.09375 66.05729Q330.34375 66.05729 329.71875 65.65104Q329.09375 65.229164 328.75 64.49479Q328.40625 63.760414 328.40625 62.80729Q328.40625 61.885414 328.71875 61.11979Q329.03125 60.354164 329.65625 59.96354Q330.28125 59.55729 331.04688 59.55729Q331.60938 59.55729 332.04688 59.791664Q332.48438 60.02604 332.76562 60.40104L332.76562 57.322914L333.8125 57.322914L333.8125 65.916664L332.82812 65.916664ZM329.5 62.80729Q329.5 64.010414 330.0 64.604164Q330.5 65.18229 331.1875 65.18229Q331.875 65.18229 332.35938 64.61979Q332.84375 64.05729 332.84375 62.90104Q332.84375 61.61979 332.34375 61.02604Q331.85938 60.43229 331.14062 60.43229Q330.4375 60.43229 329.96875 61.010414Q329.5 61.572914 329.5 62.80729ZM340.04688 63.916664L341.14062 64.041664Q340.89062 64.99479 340.1875 65.52604Q339.48438 66.05729 338.40625 66.05729Q337.04688 66.05729 336.23438 65.21354Q335.4375 64.36979 335.4375 62.854164Q335.4375 61.291664 336.25 60.43229Q337.0625 59.55729 338.34375 59.55729Q339.59375 59.55729 340.375 60.40104Q341.17188 61.24479 341.17188 62.791664Q341.17188 62.885414 341.17188 63.072914L336.53125 63.072914Q336.59375 64.104164 337.10938 64.65104Q337.625 65.18229 338.40625 65.18229Q338.98438 65.18229 339.39062 64.885414Q339.8125 64.572914 340.04688 63.916664ZM336.59375 62.21354L340.0625 62.21354Q340.0 61.416664 339.67188 61.02604Q339.15625 60.416664 338.35938 60.416664Q337.625 60.416664 337.125 60.90104Q336.64062 61.385414 336.59375 62.21354ZM342.76562 65.916664L342.76562 57.322914L343.82812 57.322914L343.82812 65.916664L342.76562 65.916664ZM350.04688 63.916664L351.14062 64.041664Q350.89062 64.99479 350.1875 65.52604Q349.48438 66.05729 348.40625 66.05729Q347.04688 66.05729 346.23438 65.21354Q345.4375 64.36979 345.4375 62.854164Q345.4375 61.291664 346.25 60.43229Q347.0625 59.55729 348.34375 59.55729Q349.59375 59.55729 350.375 60.40104Q351.17188 61.24479 351.17188 62.791664Q351.17188 62.885414 351.17188 63.072914L346.53125 63.072914Q346.59375 64.104164 347.10938 64.65104Q347.625 65.18229 348.40625 65.18229Q348.98438 65.18229 349.39062 64.885414Q349.8125 64.572914 350.04688 63.916664ZM346.59375 62.21354L350.0625 62.21354Q350.0 61.416664 349.67188 61.02604Q349.15625 60.416664 348.35938 60.416664Q347.625 60.416664 347.125 60.90104Q346.64062 61.385414 346.59375 62.21354ZM355.09375 64.979164L355.25 65.90104Q354.79688 65.99479 354.45312 65.99479Q353.875 65.99479 353.5625 65.822914Q353.25 65.635414 353.10938 65.33854Q352.98438 65.041664 352.98438 64.08854L352.98438 60.510414L352.21875 60.510414L352.21875 59.697914L352.98438 59.697914L352.98438 58.15104L354.03125 57.52604L354.03125 59.697914L355.09375 59.697914L355.09375 60.510414L354.03125 60.510414L354.03125 64.15104Q354.03125 64.604164 354.07812 64.729164Q354.14062 64.854164 354.26562 64.93229Q354.39062 65.010414 354.625 65.010414Q354.8125 65.010414 355.09375 64.979164ZM360.04688 63.916664L361.14062 64.041664Q360.89062 64.99479 360.1875 65.52604Q359.48438 66.05729 358.40625 66.05729Q357.04688 66.05729 356.23438 65.21354Q355.4375 64.36979 355.4375 62.854164Q355.4375 61.291664 356.25 60.43229Q357.0625 59.55729 358.34375 59.55729Q359.59375 59.55729 360.375 60.40104Q361.17188 61.24479 361.17188 62.791664Q361.17188 62.885414 361.17188 63.072914L356.53125 63.072914Q356.59375 64.104164 357.10938 64.65104Q357.625 65.18229 358.40625 65.18229Q358.98438 65.18229 359.39062 64.885414Q359.8125 64.572914 360.04688 63.916664ZM356.59375 62.21354L360.0625 62.21354Q360.0 61.416664 359.67188 61.02604Q359.15625 60.416664 358.35938 60.416664Q357.625 60.416664 357.125 60.90104Q356.64062 61.385414 356.59375 62.21354Z" fill-rule="nonzero"/><path fill="#fbbc04" d="M378.0 56.916668C378.0 56.364384 378.44772 55.916668 379.0 55.916668L389.0 55.916668C389.55228 55.916668 390.0 56.364384 390.0 56.916668L390.0 66.916664C390.0 67.46895 389.55228 67.916664 389.0 67.916664L379.0 67.916664C378.44772 67.916664 378.0 67.46895 378.0 66.916664Z" fill-rule="nonzero"/><path fill="#1a1a1a" d="M398.57812 61.729164Q398.57812 59.58854 399.71875 58.385414Q400.875 57.166664 402.6875 57.166664Q403.89062 57.166664 404.84375 57.74479Q405.79688 58.30729 406.29688 59.322914Q406.79688 60.33854 406.79688 61.635414Q406.79688 62.93229 406.26562 63.96354Q405.73438 64.99479 404.76562 65.52604Q403.8125 66.05729 402.6875 66.05729Q401.46875 66.05729 400.51562 65.479164Q399.5625 64.885414 399.0625 63.885414Q398.57812 62.86979 398.57812 61.729164ZM399.75 61.74479Q399.75 63.30729 400.57812 64.197914Q401.42188 65.08854 402.6875 65.08854Q403.96875 65.08854 404.79688 64.197914Q405.625 63.291664 405.625 61.61979Q405.625 60.572914 405.26562 59.791664Q404.92188 59.010414 404.23438 58.58854Q403.54688 58.15104 402.70312 58.15104Q401.5 58.15104 400.625 58.979164Q399.75 59.80729 399.75 61.74479ZM407.79688 68.30729L407.79688 59.697914L408.75 59.697914L408.75 60.49479Q409.09375 60.02604 409.51562 59.791664Q409.95312 59.55729 410.5625 59.55729Q411.35938 59.55729 411.96875 59.96354Q412.57812 60.36979 412.875 61.11979Q413.1875 61.86979 413.1875 62.760414Q413.1875 63.71354 412.84375 64.479164Q412.51562 65.24479 411.85938 65.65104Q411.20312 66.05729 410.48438 66.05729Q409.95312 66.05729 409.53125 65.83854Q409.10938 65.604164 408.84375 65.27604L408.84375 68.30729L407.79688 68.30729ZM408.75 62.83854Q408.75 64.041664 409.23438 64.61979Q409.71875 65.18229 410.40625 65.18229Q411.10938 65.18229 411.60938 64.58854Q412.10938 63.99479 412.10938 62.74479Q412.10938 61.55729 411.625 60.979164Q411.14062 60.385414 410.45312 60.385414Q409.78125 60.385414 409.26562 61.010414Q408.75 61.635414 408.75 62.83854ZM419.04688 63.916664L420.14062 64.041664Q419.89062 64.99479 419.1875 65.52604Q418.48438 66.05729 417.40625 66.05729Q416.04688 66.05729 415.23438 65.21354Q414.4375 64.36979 414.4375 62.854164Q414.4375 61.291664 415.25 60.43229Q416.0625 59.55729 417.34375 59.55729Q418.59375 59.55729 419.375 60.40104Q420.17188 61.24479 420.17188 62.791664Q420.17188 62.885414 420.17188 63.072914L415.53125 63.072914Q415.59375 64.104164 416.10938 64.65104Q416.625 65.18229 417.40625 65.18229Q417.98438 65.18229 418.39062 64.885414Q418.8125 64.572914 419.04688 63.916664ZM415.59375 62.21354L419.0625 62.21354Q419.0 61.416664 418.67188 61.02604Q418.15625 60.416664 417.35938 60.416664Q416.625 60.416664 416.125 60.90104Q415.64062 61.385414 415.59375 62.21354ZM421.78125 65.916664L421.78125 59.697914L422.73438 59.697914L422.73438 60.635414Q423.09375 59.979164 423.39062 59.77604Q423.70312 59.55729 424.07812 59.55729Q424.60938 59.55729 425.15625 59.885414L424.79688 60.86979Q424.40625 60.635414 424.03125 60.635414Q423.67188 60.635414 423.39062 60.854164Q423.125 61.05729 423.01562 61.43229Q422.82812 61.99479 422.82812 62.65104L422.82812 65.916664L421.78125 65.916664ZM429.85938 65.15104Q429.26562 65.65104 428.71875 65.854164Q428.1875 66.05729 427.5625 66.05729Q426.53125 66.05729 425.98438 65.55729Q425.4375 65.05729 425.4375 64.27604Q425.4375 63.822914 425.64062 63.447914Q425.84375 63.05729 426.1875 62.83854Q426.53125 62.604164 426.95312 62.49479Q427.25 62.40104 427.89062 62.322914Q429.15625 62.18229 429.76562 61.96354Q429.76562 61.74479 429.76562 61.697914Q429.76562 61.041664 429.46875 60.77604Q429.0625 60.43229 428.26562 60.43229Q427.53125 60.43229 427.17188 60.697914Q426.8125 60.947914 426.64062 61.604164L425.60938 61.46354Q425.75 60.80729 426.07812 60.40104Q426.40625 59.99479 427.01562 59.77604Q427.625 59.55729 428.42188 59.55729Q429.21875 59.55729 429.71875 59.74479Q430.21875 59.93229 430.45312 60.21354Q430.6875 60.49479 430.78125 60.93229Q430.82812 61.197914 430.82812 61.90104L430.82812 63.30729Q430.82812 64.77604 430.89062 65.166664Q430.96875 65.55729 431.17188 65.916664L430.0625 65.916664Q429.90625 65.58854 429.85938 65.15104ZM429.76562 62.791664Q429.1875 63.02604 428.04688 63.197914Q427.39062 63.291664 427.125 63.416664Q426.85938 63.52604 426.70312 63.74479Q426.5625 63.96354 426.5625 64.24479Q426.5625 64.666664 426.875 64.947914Q427.20312 65.229164 427.8125 65.229164Q428.42188 65.229164 428.89062 64.96354Q429.375 64.697914 429.59375 64.229164Q429.76562 63.86979 429.76562 63.18229L429.76562 62.791664ZM435.09375 64.979164L435.25 65.90104Q434.79688 65.99479 434.45312 65.99479Q433.875 65.99479 433.5625 65.822914Q433.25 65.635414 433.10938 65.33854Q432.98438 65.041664 432.98438 64.08854L432.98438 60.510414L432.21875 60.510414L432.21875 59.697914L432.98438 59.697914L432.98438 58.15104L434.03125 57.52604L434.03125 59.697914L435.09375 59.697914L435.09375 60.510414L434.03125 60.510414L434.03125 64.15104Q434.03125 64.604164 434.07812 64.729164Q434.14062 64.854164 434.26562 64.93229Q434.39062 65.010414 434.625 65.010414Q434.8125 65.010414 435.09375 64.979164ZM435.79688 58.541664L435.79688 57.322914L436.85938 57.322914L436.85938 58.541664L435.79688 58.541664ZM435.79688 65.916664L435.79688 59.697914L436.85938 59.697914L436.85938 65.916664L435.79688 65.916664ZM438.40625 62.80729Q438.40625 61.072914 439.35938 60.24479Q440.15625 59.55729 441.3125 59.55729Q442.59375 59.55729 443.40625 60.40104Q444.23438 61.229164 444.23438 62.71354Q444.23438 63.916664 443.875 64.604164Q443.51562 65.291664 442.8125 65.68229Q442.125 66.05729 441.3125 66.05729Q440.01562 66.05729 439.20312 65.229164Q438.40625 64.385414 438.40625 62.80729ZM439.48438 62.80729Q439.48438 63.99479 440.0 64.58854Q440.53125 65.18229 441.3125 65.18229Q442.10938 65.18229 442.625 64.58854Q443.14062 63.99479 443.14062 62.77604Q443.14062 61.61979 442.60938 61.02604Q442.09375 60.43229 441.3125 60.43229Q440.53125 60.43229 440.0 61.02604Q439.48438 61.604164 439.48438 62.80729ZM445.79688 65.916664L445.79688 59.697914L446.73438 59.697914L446.73438 60.572914Q447.42188 59.55729 448.71875 59.55729Q449.28125 59.55729 449.75 59.760414Q450.23438 59.96354 450.46875 60.291664Q450.70312 60.61979 450.79688 61.05729Q450.84375 61.354164 450.84375 62.08854L450.84375 65.916664L449.79688 65.916664L449.79688 62.135414Q449.79688 61.479164 449.67188 61.166664Q449.54688 60.854164 449.23438 60.666664Q448.92188 60.46354 448.5 60.46354Q447.82812 60.46354 447.32812 60.90104Q446.84375 61.322914 446.84375 62.510414L446.84375 65.916664L445.79688 65.916664ZM455.79688 68.30729L455.79688 59.697914L456.75 59.697914L456.75 60.49479Q457.09375 60.02604 457.51562 59.791664Q457.95312 59.55729 458.5625 59.55729Q459.35938 59.55729 459.96875 59.96354Q460.57812 60.36979 460.875 61.11979Q461.1875 61.86979 461.1875 62.760414Q461.1875 63.71354 460.84375 64.479164Q460.51562 65.24479 459.85938 65.65104Q459.20312 66.05729 458.48438 66.05729Q457.95312 66.05729 457.53125 65.83854Q457.10938 65.604164 456.84375 65.27604L456.84375 68.30729L455.79688 68.30729ZM456.75 62.83854Q456.75 64.041664 457.23438 64.61979Q457.71875 65.18229 458.40625 65.18229Q459.10938 65.18229 459.60938 64.58854Q460.10938 63.99479 460.10938 62.74479Q460.10938 61.55729 459.625 60.979164Q459.14062 60.385414 458.45312 60.385414Q457.78125 60.385414 457.26562 61.010414Q456.75 61.635414 456.75 62.83854ZM467.04688 63.916664L468.14062 64.041664Q467.89062 64.99479 467.1875 65.52604Q466.48438 66.05729 465.40625 66.05729Q464.04688 66.05729 463.23438 65.21354Q462.4375 64.36979 462.4375 62.854164Q462.4375 61.291664 463.25 60.43229Q464.0625 59.55729 465.34375 59.55729Q466.59375 59.55729 467.375 60.40104Q468.17188 61.24479 468.17188 62.791664Q468.17188 62.885414 468.17188 63.072914L463.53125 63.072914Q463.59375 64.104164 464.10938 64.65104Q464.625 65.18229 465.40625 65.18229Q465.98438 65.18229 466.39062 64.885414Q466.8125 64.572914 467.04688 63.916664ZM463.59375 62.21354L467.0625 62.21354Q467.0 61.416664 466.67188 61.02604Q466.15625 60.416664 465.35938 60.416664Q464.625 60.416664 464.125 60.90104Q463.64062 61.385414 463.59375 62.21354ZM469.78125 65.916664L469.78125 59.697914L470.73438 59.697914L470.73438 60.635414Q471.09375 59.979164 471.39062 59.77604Q471.70312 59.55729 472.07812 59.55729Q472.60938 59.55729 473.15625 59.885414L472.79688 60.86979Q472.40625 60.635414 472.03125 60.635414Q471.67188 60.635414 471.39062 60.854164Q471.125 61.05729 471.01562 61.43229Q470.82812 61.99479 470.82812 62.65104L470.82812 65.916664L469.78125 65.916664ZM476.54688 63.15104L477.60938 63.05729Q477.6875 63.71354 477.96875 64.11979Q478.25 64.52604 478.82812 64.791664Q479.42188 65.041664 480.15625 65.041664Q480.79688 65.041664 481.29688 64.854164Q481.79688 64.65104 482.03125 64.322914Q482.28125 63.979164 482.28125 63.58854Q482.28125 63.18229 482.04688 62.885414Q481.8125 62.572914 481.28125 62.36979Q480.92188 62.229164 479.73438 61.947914Q478.5625 61.666664 478.09375 61.416664Q477.46875 61.08854 477.17188 60.61979Q476.875 60.135414 476.875 59.541664Q476.875 58.90104 477.23438 58.33854Q477.60938 57.760414 478.3125 57.479164Q479.03125 57.18229 479.89062 57.18229Q480.84375 57.18229 481.57812 57.49479Q482.3125 57.791664 482.70312 58.40104Q483.09375 58.99479 483.125 59.74479L482.03125 59.822914Q481.9375 59.010414 481.42188 58.604164Q480.92188 58.18229 479.9375 58.18229Q478.90625 58.18229 478.4375 58.55729Q477.96875 58.93229 477.96875 59.46354Q477.96875 59.93229 478.29688 60.229164Q478.625 60.52604 480.0 60.83854Q481.39062 61.15104 481.90625 61.385414Q482.65625 61.74479 483.01562 62.27604Q483.375 62.791664 483.375 63.49479Q483.375 64.18229 482.98438 64.791664Q482.59375 65.385414 481.85938 65.729164Q481.125 66.05729 480.20312 66.05729Q479.03125 66.05729 478.23438 65.729164Q477.45312 65.385414 477.0 64.697914Q476.5625 64.010414 476.54688 63.15104ZM489.04688 63.916664L490.14062 64.041664Q489.89062 64.99479 489.1875 65.52604Q488.48438 66.05729 487.40625 66.05729Q486.04688 66.05729 485.23438 65.21354Q484.4375 64.36979 484.4375 62.854164Q484.4375 61.291664 485.25 60.43229Q486.0625 59.55729 487.34375 59.55729Q488.59375 59.55729 489.375 60.40104Q490.17188 61.24479 490.17188 62.791664Q490.17188 62.885414 490.17188 63.072914L485.53125 63.072914Q485.59375 64.104164 486.10938 64.65104Q486.625 65.18229 487.40625 65.18229Q487.98438 65.18229 488.39062 64.885414Q488.8125 64.572914 489.04688 63.916664ZM485.59375 62.21354L489.0625 62.21354Q489.0 61.416664 488.67188 61.02604Q488.15625 60.416664 487.35938 60.416664Q486.625 60.416664 486.125 60.90104Q485.64062 61.385414 485.59375 62.21354ZM495.85938 65.15104Q495.26562 65.65104 494.71875 65.854164Q494.1875 66.05729 493.5625 66.05729Q492.53125 66.05729 491.98438 65.55729Q491.4375 65.05729 491.4375 64.27604Q491.4375 63.822914 491.64062 63.447914Q491.84375 63.05729 492.1875 62.83854Q492.53125 62.604164 492.95312 62.49479Q493.25 62.40104 493.89062 62.322914Q495.15625 62.18229 495.76562 61.96354Q495.76562 61.74479 495.76562 61.697914Q495.76562 61.041664 495.46875 60.77604Q495.0625 60.43229 494.26562 60.43229Q493.53125 60.43229 493.17188 60.697914Q492.8125 60.947914 492.64062 61.604164L491.60938 61.46354Q491.75 60.80729 492.07812 60.40104Q492.40625 59.99479 493.01562 59.77604Q493.625 59.55729 494.42188 59.55729Q495.21875 59.55729 495.71875 59.74479Q496.21875 59.93229 496.45312 60.21354Q496.6875 60.49479 496.78125 60.93229Q496.82812 61.197914 496.82812 61.90104L496.82812 63.30729Q496.82812 64.77604 496.89062 65.166664Q496.96875 65.55729 497.17188 65.916664L496.0625 65.916664Q495.90625 65.58854 495.85938 65.15104ZM495.76562 62.791664Q495.1875 63.02604 494.04688 63.197914Q493.39062 63.291664 493.125 63.416664Q492.85938 63.52604 492.70312 63.74479Q492.5625 63.96354 492.5625 64.24479Q492.5625 64.666664 492.875 64.947914Q493.20312 65.229164 493.8125 65.229164Q494.42188 65.229164 494.89062 64.96354Q495.375 64.697914 495.59375 64.229164Q495.76562 63.86979 495.76562 63.18229L495.76562 62.791664ZM498.78125 65.916664L498.78125 59.697914L499.73438 59.697914L499.73438 60.635414Q500.09375 59.979164 500.39062 59.77604Q500.70312 59.55729 501.07812 59.55729Q501.60938 59.55729 502.15625 59.885414L501.79688 60.86979Q501.40625 60.635414 501.03125 60.635414Q500.67188 60.635414 500.39062 60.854164Q500.125 61.05729 500.01562 61.43229Q499.82812 61.99479 499.82812 62.65104L499.82812 65.916664L498.78125 65.916664ZM506.85938 63.635414L507.89062 63.77604Q507.71875 64.83854 507.01562 65.447914Q506.3125 66.05729 505.29688 66.05729Q504.01562 66.05729 503.23438 65.229164Q502.46875 64.385414 502.46875 62.822914Q502.46875 61.822914 502.79688 61.072914Q503.14062 60.30729 503.8125 59.93229Q504.5 59.55729 505.3125 59.55729Q506.3125 59.55729 506.95312 60.072914Q507.60938 60.572914 507.79688 61.52604L506.76562 61.68229Q506.625 61.05729 506.25 60.74479Q505.875 60.416664 505.34375 60.416664Q504.54688 60.416664 504.04688 60.99479Q503.54688 61.55729 503.54688 62.791664Q503.54688 64.05729 504.03125 64.61979Q504.51562 65.18229 505.28125 65.18229Q505.90625 65.18229 506.3125 64.80729Q506.73438 64.43229 506.85938 63.635414ZM508.79688 65.916664L508.79688 57.322914L509.84375 57.322914L509.84375 60.40104Q510.57812 59.55729 511.70312 59.55729Q512.40625 59.55729 512.90625 59.83854Q513.4219 60.104164 513.6406 60.58854Q513.8594 61.05729 513.8594 61.979164L513.8594 65.916664L512.8125 65.916664L512.8125 61.979164Q512.8125 61.18229 512.46875 60.822914Q512.125 60.46354 511.5 60.46354Q511.03125 60.46354 510.60938 60.71354Q510.20312 60.947914 510.01562 61.36979Q509.84375 61.77604 509.84375 62.510414L509.84375 65.916664L508.79688 65.916664Z" fill-rule="nonzero"/><path fill="#000000" d="M16.01875 33.55L16.01875 19.2375L25.846874 19.2375L25.846874 21.659374L18.909374 21.659374L18.909374 25.05L24.89375 25.05L24.89375 27.471874L18.909374 27.471874L18.909374 33.55L16.01875 33.55ZM27.9875 21.76875L27.9875 19.2375L30.7375 19.2375L30.7375 21.76875L27.9875 21.76875ZM27.9875 33.55L27.9875 23.175L30.7375 23.175L30.7375 33.55L27.9875 33.55ZM32.9875 33.55L32.9875 19.2375L35.7375 19.2375L35.7375 33.55L32.9875 33.55ZM43.9875 30.253124L46.721874 30.70625Q46.20625 32.20625 45.065624 33.003124Q43.925 33.784374 42.221874 33.784374Q39.503124 33.784374 38.20625 32.01875Q37.190624 30.596874 37.190624 28.440624Q37.190624 25.8625 38.534374 24.409374Q39.878124 22.940624 41.940624 22.940624Q44.253124 22.940624 45.58125 24.471874Q46.925 26.003124 46.878124 29.159374L40.003124 29.159374Q40.034374 30.378124 40.659374 31.065624Q41.3 31.7375 42.2375 31.7375Q42.89375 31.7375 43.33125 31.39375Q43.76875 31.034374 43.9875 30.253124ZM44.14375 27.471874Q44.1125 26.284374 43.51875 25.675Q42.940624 25.05 42.1125 25.05Q41.20625 25.05 40.628124 25.690624Q40.034374 26.346874 40.05 27.471874L44.14375 27.471874ZM54.3 29.753124L56.95625 29.425Q57.08125 30.440624 57.64375 30.9875Q58.20625 31.51875 58.9875 31.51875Q59.846874 31.51875 60.425 30.878124Q61.003124 30.221874 61.003124 29.128124Q61.003124 28.096874 60.440624 27.503124Q59.89375 26.89375 59.08125 26.89375Q58.565624 26.89375 57.83125 27.096874L58.128124 24.8625Q59.2375 24.89375 59.815624 24.378124Q60.409374 23.8625 60.409374 23.01875Q60.409374 22.284374 59.971874 21.8625Q59.55 21.425 58.846874 21.425Q58.14375 21.425 57.64375 21.925Q57.14375 22.409374 57.034374 23.346874L54.503124 22.909374Q54.76875 21.6125 55.3 20.846874Q55.83125 20.065624 56.784374 19.628124Q57.7375 19.175 58.925 19.175Q60.940624 19.175 62.159374 20.45625Q63.175 21.51875 63.175 22.846874Q63.175 24.7375 61.1125 25.846874Q62.346874 26.1125 63.08125 27.034374Q63.815624 27.95625 63.815624 29.253124Q63.815624 31.14375 62.440624 32.471874Q61.065624 33.8 59.003124 33.8Q57.065624 33.8 55.784374 32.675Q54.503124 31.55 54.3 29.753124Z" fill-rule="nonzero"/></svg>