<svg version="1.1" viewBox="0.0 0.0 600.0 371.0" fill="none" stroke="none" stroke-linecap="square" stroke-miterlimit="10" width="600" height="371" xmlns:xlink="http://www.w3.org/1999/xlink" xmlns="http://www.w3.org/2000/svg"><path fill="#ffffff" d="M0 0L600.0 0L600.0 371.0L0 371.0L0 0Z" fill-rule="nonzero"/><path stroke="#333333" stroke-width="1.0" stroke-linecap="butt" d="M83.5 302.5L581.5 302.5" fill-rule="nonzero"/><path stroke="#cccccc" stroke-width="1.0" stroke-linecap="butt" d="M83.5 248.5L581.5 248.5" fill-rule="nonzero"/><path stroke="#cccccc" stroke-width="1.0" stroke-linecap="butt" d="M83.5 195.5L581.5 195.5" fill-rule="nonzero"/><path stroke="#cccccc" stroke-width="1.0" stroke-linecap="butt" d="M83.5 141.5L581.5 141.5" fill-rule="nonzero"/><path stroke="#cccccc" stroke-width="1.0" stroke-linecap="butt" d="M83.5 88.5L581.5 88.5" fill-rule="nonzero"/><path stroke="#000000" stroke-width="1.0" stroke-linecap="butt" stroke-opacity="0.0" d="M83.5 284.5L581.5 284.5" fill-rule="nonzero"/><path stroke="#000000" stroke-width="1.0" stroke-linecap="butt" stroke-opacity="0.0" d="M83.5 266.5L581.5 266.5" fill-rule="nonzero"/><path stroke="#000000" stroke-width="1.0" stroke-linecap="butt" stroke-opacity="0.0" d="M83.5 231.5L581.5 231.5" fill-rule="nonzero"/><path stroke="#000000" stroke-width="1.0" stroke-linecap="butt" stroke-opacity="0.0" d="M83.5 213.5L581.5 213.5" fill-rule="nonzero"/><path stroke="#000000" stroke-width="1.0" stroke-linecap="butt" stroke-opacity="0.0" d="M83.5 177.5L581.5 177.5" fill-rule="nonzero"/><path stroke="#000000" stroke-width="1.0" stroke-linecap="butt" stroke-opacity="0.0" d="M83.5 159.5L581.5 159.5" fill-rule="nonzero"/><path stroke="#000000" stroke-width="1.0" stroke-linecap="butt" stroke-opacity="0.0" d="M83.5 123.5L581.5 123.5" fill-rule="nonzero"/><path stroke="#000000" stroke-width="1.0" stroke-linecap="butt" stroke-opacity="0.0" d="M83.5 106.5L581.5 106.5" fill-rule="nonzero"/><path stroke="#000000" stroke-width="1.0" stroke-linecap="butt" d="M83.5 302.5L83.5 88.5" fill-rule="nonzero"/><clipPath id="id_0"><path d="M83.55 88.28333L581.45 88.28333L581.45 302.45L83.55 302.45L83.55 88.28333Z" clip-rule="nonzero"/></clipPath><path stroke="#000000" stroke-width="2.0" stroke-linecap="butt" stroke-opacity="0.0" clip-path="url(#id_0)" d="M160.0 302.0L125.0 302.0L125.0 197.0C125.0 195.89543 125.89543 195.0 127.0 195.0L158.0 195.0C159.10457 195.0 160.0 195.89543 160.0 197.0Z" fill-rule="nonzero"/><path fill="#4285f4" clip-path="url(#id_0)" d="M160.0 302.0L125.0 302.0L125.0 197.0C125.0 195.89543 125.89543 195.0 127.0 195.0L158.0 195.0C159.10457 195.0 160.0 195.89543 160.0 197.0Z" fill-rule="nonzero"/><path stroke="#000000" stroke-width="2.0" stroke-linecap="butt" stroke-opacity="0.0" clip-path="url(#id_0)" d="M274.0 302.0L239.0 302.0L239.0 197.0C239.0 195.89543 239.89543 195.0 241.0 195.0L272.0 195.0C273.10458 195.0 274.0 195.89543 274.0 197.0Z" fill-rule="nonzero"/><path fill="#4285f4" clip-path="url(#id_0)" d="M274.0 302.0L239.0 302.0L239.0 197.0C239.0 195.89543 239.89543 195.0 241.0 195.0L272.0 195.0C273.10458 195.0 274.0 195.89543 274.0 197.0Z" fill-rule="nonzero"/><path stroke="#000000" stroke-width="2.0" stroke-linecap="butt" stroke-opacity="0.0" clip-path="url(#id_0)" d="M389.0 302.0L354.0 302.0L354.0 197.0C354.0 195.89543 354.89542 195.0 356.0 195.0L387.0 195.0C388.10458 195.0 389.0 195.89543 389.0 197.0Z" fill-rule="nonzero"/><path fill="#4285f4" clip-path="url(#id_0)" d="M389.0 302.0L354.0 302.0L354.0 197.0C354.0 195.89543 354.89542 195.0 356.0 195.0L387.0 195.0C388.10458 195.0 389.0 195.89543 389.0 197.0Z" fill-rule="nonzero"/><path stroke="#000000" stroke-width="2.0" stroke-linecap="butt" stroke-opacity="0.0" clip-path="url(#id_0)" d="M503.0 302.0L468.0 302.0L468.0 197.0C468.0 195.89543 468.89542 195.0 470.0 195.0L501.0 195.0C502.10458 195.0 503.0 195.89543 503.0 197.0Z" fill-rule="nonzero"/><path fill="#4285f4" clip-path="url(#id_0)" d="M503.0 302.0L468.0 302.0L468.0 197.0C468.0 195.89543 468.89542 195.0 470.0 195.0L501.0 195.0C502.10458 195.0 503.0 195.89543 503.0 197.0Z" fill-rule="nonzero"/><path stroke="#000000" stroke-width="2.0" stroke-linecap="butt" stroke-opacity="0.0" clip-path="url(#id_0)" d="M197.0 302.0L162.0 302.0L162.0 197.0C162.0 195.89543 162.89543 195.0 164.0 195.0L195.0 195.0C196.10457 195.0 197.0 195.89543 197.0 197.0Z" fill-rule="nonzero"/><path fill="#ea4335" clip-path="url(#id_0)" d="M197.0 302.0L162.0 302.0L162.0 197.0C162.0 195.89543 162.89543 195.0 164.0 195.0L195.0 195.0C196.10457 195.0 197.0 195.89543 197.0 197.0Z" fill-rule="nonzero"/><path stroke="#000000" stroke-width="2.0" stroke-linecap="butt" stroke-opacity="0.0" clip-path="url(#id_0)" d="M311.0 302.0L276.0 302.0L276.0 197.0C276.0 195.89543 276.89542 195.0 278.0 195.0L309.0 195.0C310.10458 195.0 311.0 195.89543 311.0 197.0Z" fill-rule="nonzero"/><path fill="#ea4335" clip-path="url(#id_0)" d="M311.0 302.0L276.0 302.0L276.0 197.0C276.0 195.89543 276.89542 195.0 278.0 195.0L309.0 195.0C310.10458 195.0 311.0 195.89543 311.0 197.0Z" fill-rule="nonzero"/><path stroke="#000000" stroke-width="2.0" stroke-linecap="butt" stroke-opacity="0.0" clip-path="url(#id_0)" d="M426.0 302.0L391.0 302.0L391.0 197.0C391.0 195.89543 391.89542 195.0 393.0 195.0L424.0 195.0C425.10458 195.0 426.0 195.89543 426.0 197.0Z" fill-rule="nonzero"/><path fill="#ea4335" clip-path="url(#id_0)" d="M426.0 302.0L391.0 302.0L391.0 197.0C391.0 195.89543 391.89542 195.0 393.0 195.0L424.0 195.0C425.10458 195.0 426.0 195.89543 426.0 197.0Z" fill-rule="nonzero"/><path stroke="#000000" stroke-width="2.0" stroke-linecap="butt" stroke-opacity="0.0" clip-path="url(#id_0)" d="M540.0 302.0L505.0 302.0L505.0 197.0C505.0 195.89543 505.89542 195.0 507.0 195.0L538.0 195.0C539.10455 195.0 540.0 195.89543 540.0 197.0Z" fill-rule="nonzero"/><path fill="#ea4335" clip-path="url(#id_0)" d="M540.0 302.0L505.0 302.0L505.0 197.0C505.0 195.89543 505.89542 195.0 507.0 195.0L538.0 195.0C539.10455 195.0 540.0 195.89543 540.0 197.0Z" fill-rule="nonzero"/><path stroke="#000000" stroke-width="1.0" stroke-linecap="butt" d="M77.5 302.5L89.5 302.5" fill-rule="nonzero"/><path stroke="#000000" stroke-width="1.0" stroke-linecap="butt" d="M77.5 248.5L89.5 248.5" fill-rule="nonzero"/><path stroke="#000000" stroke-width="1.0" stroke-linecap="butt" d="M77.5 195.5L89.5 195.5" fill-rule="nonzero"/><path stroke="#000000" stroke-width="1.0" stroke-linecap="butt" d="M77.5 141.5L89.5 141.5" fill-rule="nonzero"/><path stroke="#000000" stroke-width="1.0" stroke-linecap="butt" d="M77.5 88.5L89.5 88.5" fill-rule="nonzero"/><path fill="#000000" d="M266.43262 340.45L266.43262 331.85626L267.58887 331.85626L272.1045 338.60626L272.1045 331.85626L273.19824 331.85626L273.19824 340.45L272.02637 340.45L267.51074 333.7L267.51074 340.45L266.43262 340.45ZM279.38574 340.45L279.38574 339.52814Q278.65137 340.59064 277.40137 340.59064Q276.8545 340.59064 276.37012 340.3875Q275.90137 340.16876 275.667 339.85626Q275.43262 339.52814 275.33887 339.0594Q275.27637 338.7625 275.27637 338.075L275.27637 334.23126L276.33887 334.23126L276.33887 337.6844Q276.33887 338.4969 276.40137 338.79376Q276.49512 339.2 276.80762 339.45Q277.13574 339.6844 277.62012 339.6844Q278.08887 339.6844 278.49512 339.45Q278.917 339.2 279.08887 338.77814Q279.27637 338.35626 279.27637 337.5594L279.27637 334.23126L280.32324 334.23126L280.32324 340.45L279.38574 340.45ZM282.30762 340.45L282.30762 334.23126L283.24512 334.23126L283.24512 335.10626Q283.542 334.6375 284.02637 334.3719Q284.51074 334.09064 285.13574 334.09064Q285.82324 334.09064 286.26074 334.3719Q286.71387 334.65314 286.88574 335.16876Q287.63574 334.09064 288.80762 334.09064Q289.74512 334.09064 290.2295 334.60626Q290.7295 335.10626 290.7295 336.1844L290.7295 340.45L289.68262 340.45L289.68262 336.52814Q289.68262 335.90314 289.57324 335.6219Q289.4795 335.34064 289.21387 335.16876Q288.94824 334.9969 288.57324 334.9969Q287.917 334.9969 287.4795 335.4344Q287.05762 335.8719 287.05762 336.84064L287.05762 340.45L285.99512 340.45L285.99512 336.40314Q285.99512 335.7 285.7295 335.35626Q285.4795 334.9969 284.90137 334.9969Q284.44824 334.9969 284.07324 335.23126Q283.69824 335.46564 283.52637 335.91876Q283.3545 336.3719 283.3545 337.21564L283.3545 340.45L282.30762 340.45ZM294.27637 340.45L293.292 340.45L293.292 331.85626L294.3545 331.85626L294.3545 334.91876Q295.02637 334.09064 296.05762 334.09064Q296.63574 334.09064 297.13574 334.325Q297.65137 334.54376 297.9795 334.96564Q298.32324 335.3875 298.51074 335.98126Q298.69824 336.575 298.69824 337.2469Q298.69824 338.84064 297.90137 339.71564Q297.1045 340.59064 296.01074 340.59064Q294.90137 340.59064 294.27637 339.66876L294.27637 340.45ZM294.26074 337.29376Q294.26074 338.40314 294.57324 338.90314Q295.07324 339.71564 295.917 339.71564Q296.6045 339.71564 297.1045 339.1219Q297.62012 338.52814 297.62012 337.325Q297.62012 336.10626 297.13574 335.52814Q296.65137 334.95 295.96387 334.95Q295.27637 334.95 294.76074 335.5594Q294.26074 336.15314 294.26074 337.29376ZM304.55762 338.45L305.65137 338.575Q305.40137 339.52814 304.69824 340.0594Q303.99512 340.59064 302.917 340.59064Q301.55762 340.59064 300.74512 339.7469Q299.94824 338.90314 299.94824 337.3875Q299.94824 335.825 300.76074 334.96564Q301.57324 334.09064 302.8545 334.09064Q304.1045 334.09064 304.88574 334.9344Q305.68262 335.77814 305.68262 337.325Q305.68262 337.41876 305.68262 337.60626L301.042 337.60626Q301.1045 338.6375 301.62012 339.1844Q302.13574 339.71564 302.917 339.71564Q303.49512 339.71564 303.90137 339.41876Q304.32324 339.10626 304.55762 338.45ZM301.1045 336.7469L304.57324 336.7469Q304.51074 335.95 304.18262 335.5594Q303.667 334.95 302.87012 334.95Q302.13574 334.95 301.63574 335.4344Q301.15137 335.91876 301.1045 336.7469ZM307.292 340.45L307.292 334.23126L308.24512 334.23126L308.24512 335.16876Q308.6045 334.5125 308.90137 334.3094Q309.21387 334.09064 309.58887 334.09064Q310.12012 334.09064 310.667 334.41876L310.30762 335.40314Q309.917 335.16876 309.542 335.16876Q309.18262 335.16876 308.90137 335.3875Q308.63574 335.59064 308.52637 335.96564Q308.33887 336.52814 308.33887 337.1844L308.33887 340.45L307.292 340.45ZM314.08887 336.2625Q314.08887 334.1219 315.2295 332.91876Q316.38574 331.7 318.19824 331.7Q319.40137 331.7 320.3545 332.27814Q321.30762 332.84064 321.80762 333.85626Q322.30762 334.8719 322.30762 336.16876Q322.30762 337.46564 321.77637 338.4969Q321.24512 339.52814 320.27637 340.0594Q319.32324 340.59064 318.19824 340.59064Q316.9795 340.59064 316.02637 340.0125Q315.07324 339.41876 314.57324 338.41876Q314.08887 337.40314 314.08887 336.2625ZM315.26074 336.27814Q315.26074 337.84064 316.08887 338.73126Q316.93262 339.6219 318.19824 339.6219Q319.4795 339.6219 320.30762 338.73126Q321.13574 337.825 321.13574 336.15314Q321.13574 335.10626 320.77637 334.325Q320.43262 333.54376 319.74512 333.1219Q319.05762 332.6844 318.21387 332.6844Q317.01074 332.6844 316.13574 333.5125Q315.26074 334.34064 315.26074 336.27814ZM323.55762 340.45L323.55762 335.04376L322.62012 335.04376L322.62012 334.23126L323.55762 334.23126L323.55762 333.5594Q323.55762 332.9344 323.667 332.6375Q323.82324 332.21564 324.19824 331.96564Q324.58887 331.71564 325.27637 331.71564Q325.7295 331.71564 326.26074 331.825L326.1045 332.73126Q325.77637 332.6844 325.4795 332.6844Q324.99512 332.6844 324.792 332.8875Q324.6045 333.09064 324.6045 333.65314L324.6045 334.23126L325.82324 334.23126L325.82324 335.04376L324.6045 335.04376L324.6045 340.45L323.55762 340.45ZM329.38574 340.45L329.38574 331.85626L332.62012 331.85626Q333.6045 331.85626 334.19824 332.1219Q334.792 332.3875 335.12012 332.9344Q335.46387 333.46564 335.46387 334.0594Q335.46387 334.60626 335.167 335.09064Q334.87012 335.575 334.26074 335.8719Q335.042 336.10626 335.44824 336.66876Q335.87012 337.21564 335.87012 337.96564Q335.87012 338.5594 335.62012 339.09064Q335.37012 339.60626 334.99512 339.8875Q334.62012 340.16876 334.042 340.3094Q333.4795 340.45 332.667 340.45L329.38574 340.45ZM330.52637 335.46564L332.38574 335.46564Q333.13574 335.46564 333.46387 335.3719Q333.90137 335.2469 334.12012 334.95Q334.33887 334.6375 334.33887 334.1844Q334.33887 333.7625 334.13574 333.4344Q333.93262 333.10626 333.542 332.9969Q333.167 332.8719 332.24512 332.8719L330.52637 332.8719L330.52637 335.46564ZM330.52637 339.4344L332.667 339.4344Q333.21387 339.4344 333.43262 339.3875Q333.83887 339.325 334.08887 339.16876Q334.3545 338.9969 334.52637 338.6844Q334.69824 338.3719 334.69824 337.96564Q334.69824 337.48126 334.44824 337.1219Q334.21387 336.7625 333.77637 336.6219Q333.33887 336.48126 332.51074 336.48126L330.52637 336.48126L330.52637 339.4344ZM341.38574 340.45L341.38574 339.52814Q340.65137 340.59064 339.40137 340.59064Q338.8545 340.59064 338.37012 340.3875Q337.90137 340.16876 337.667 339.85626Q337.43262 339.52814 337.33887 339.0594Q337.27637 338.7625 337.27637 338.075L337.27637 334.23126L338.33887 334.23126L338.33887 337.6844Q338.33887 338.4969 338.40137 338.79376Q338.49512 339.2 338.80762 339.45Q339.13574 339.6844 339.62012 339.6844Q340.08887 339.6844 340.49512 339.45Q340.917 339.2 341.08887 338.77814Q341.27637 338.35626 341.27637 337.5594L341.27637 334.23126L342.32324 334.23126L342.32324 340.45L341.38574 340.45ZM348.37012 338.16876L349.40137 338.3094Q349.2295 339.3719 348.52637 339.98126Q347.82324 340.59064 346.80762 340.59064Q345.52637 340.59064 344.74512 339.7625Q343.9795 338.91876 343.9795 337.35626Q343.9795 336.35626 344.30762 335.60626Q344.65137 334.84064 345.32324 334.46564Q346.01074 334.09064 346.82324 334.09064Q347.82324 334.09064 348.46387 334.60626Q349.12012 335.10626 349.30762 336.0594L348.27637 336.21564Q348.13574 335.59064 347.76074 335.27814Q347.38574 334.95 346.8545 334.95Q346.05762 334.95 345.55762 335.52814Q345.05762 336.09064 345.05762 337.325Q345.05762 338.59064 345.542 339.15314Q346.02637 339.71564 346.792 339.71564Q347.417 339.71564 347.82324 339.34064Q348.24512 338.96564 348.37012 338.16876ZM350.30762 340.45L350.30762 331.85626L351.37012 331.85626L351.37012 336.7625L353.8545 334.23126L355.2295 334.23126L352.83887 336.52814L355.46387 340.45L354.167 340.45L352.1045 337.2625L351.37012 337.98126L351.37012 340.45L350.30762 340.45ZM360.55762 338.45L361.65137 338.575Q361.40137 339.52814 360.69824 340.0594Q359.99512 340.59064 358.917 340.59064Q357.55762 340.59064 356.74512 339.7469Q355.94824 338.90314 355.94824 337.3875Q355.94824 335.825 356.76074 334.96564Q357.57324 334.09064 358.8545 334.09064Q360.1045 334.09064 360.88574 334.9344Q361.68262 335.77814 361.68262 337.325Q361.68262 337.41876 361.68262 337.60626L357.042 337.60626Q357.1045 338.6375 357.62012 339.1844Q358.13574 339.71564 358.917 339.71564Q359.49512 339.71564 359.90137 339.41876Q360.32324 339.10626 360.55762 338.45ZM357.1045 336.7469L360.57324 336.7469Q360.51074 335.95 360.18262 335.5594Q359.667 334.95 358.87012 334.95Q358.13574 334.95 357.63574 335.4344Q357.15137 335.91876 357.1045 336.7469ZM365.6045 339.5125L365.76074 340.4344Q365.30762 340.52814 364.96387 340.52814Q364.38574 340.52814 364.07324 340.35626Q363.76074 340.16876 363.62012 339.8719Q363.49512 339.575 363.49512 338.6219L363.49512 335.04376L362.7295 335.04376L362.7295 334.23126L363.49512 334.23126L363.49512 332.6844L364.542 332.0594L364.542 334.23126L365.6045 334.23126L365.6045 335.04376L364.542 335.04376L364.542 338.6844Q364.542 339.1375 364.58887 339.2625Q364.65137 339.3875 364.77637 339.46564Q364.90137 339.54376 365.13574 339.54376Q365.32324 339.54376 365.6045 339.5125ZM365.88574 338.59064L366.917 338.4344Q367.01074 339.0594 367.40137 339.3875Q367.80762 339.71564 368.542 339.71564Q369.26074 339.71564 369.6045 339.4344Q369.96387 339.1375 369.96387 338.73126Q369.96387 338.3719 369.65137 338.16876Q369.43262 338.02814 368.57324 337.8094Q367.417 337.5125 366.96387 337.3094Q366.52637 337.09064 366.292 336.71564Q366.05762 336.34064 366.05762 335.8719Q366.05762 335.46564 366.24512 335.10626Q366.43262 334.7469 366.76074 334.5125Q367.01074 334.34064 367.43262 334.21564Q367.8545 334.09064 368.3545 334.09064Q369.07324 334.09064 369.62012 334.3094Q370.18262 334.5125 370.44824 334.8719Q370.71387 335.23126 370.80762 335.825L369.77637 335.96564Q369.71387 335.4969 369.37012 335.23126Q369.042 334.95 368.417 334.95Q367.69824 334.95 367.38574 335.2Q367.07324 335.4344 367.07324 335.7625Q367.07324 335.96564 367.19824 336.1219Q367.33887 336.29376 367.6045 336.40314Q367.76074 336.46564 368.542 336.66876Q369.667 336.98126 370.1045 337.16876Q370.542 337.35626 370.792 337.71564Q371.042 338.075 371.042 338.6219Q371.042 339.15314 370.7295 339.6219Q370.43262 340.075 369.8545 340.34064Q369.27637 340.59064 368.542 340.59064Q367.32324 340.59064 366.68262 340.09064Q366.05762 339.575 365.88574 338.59064Z" fill-rule="nonzero"/><path fill="#000000" d="M29.550013 264.47604L20.956263 264.47604L20.956263 262.78854L26.690638 259.27292L20.956263 259.27292L20.956263 257.66354L29.550013 257.66354L29.550013 259.39792L23.940638 262.86667L29.550013 262.86667L29.550013 264.47604ZM29.550013 252.41354L28.612513 252.41354Q29.112513 252.74167 29.409388 253.30417Q29.690638 253.85104 29.690638 254.47604Q29.690638 255.10104 29.425013 255.60104Q29.143763 256.10104 28.643763 256.3198Q28.143763 256.53854 27.268763 256.53854L23.331263 256.53854L23.331263 254.89792L26.190638 254.89792Q27.503138 254.89792 27.800013 254.80417Q28.096888 254.71042 28.268763 254.47604Q28.440638 254.22604 28.440638 253.86667Q28.440638 253.4448 28.206263 253.11667Q27.971888 252.77292 27.628138 252.64792Q27.284388 252.52292 25.956263 252.52292L23.331263 252.52292L23.331263 250.8823L29.550013 250.8823L29.550013 252.41354ZM23.331263 249.6323L23.331263 248.11667L24.175013 248.11667Q23.190638 247.28854 23.190638 246.16354Q23.190638 245.5698 23.440638 245.1323Q23.675013 244.6948 24.175013 244.41354Q23.675013 244.0073 23.440638 243.53854Q23.190638 243.05417 23.190638 242.5073Q23.190638 241.83542 23.471888 241.36667Q23.737513 240.8823 24.284388 240.64792Q24.675013 240.47604 25.565638 240.47604L29.550013 240.47604L29.550013 242.11667L25.987513 242.11667Q25.065638 242.11667 24.800013 242.28854Q24.440638 242.52292 24.440638 242.99167Q24.440638 243.33542 24.659388 243.64792Q24.862513 243.9448 25.268763 244.08542Q25.675013 244.22604 26.565638 244.22604L29.550013 244.22604L29.550013 245.86667L26.143763 245.86667Q25.237513 245.86667 24.971888 245.96042Q24.706263 246.03854 24.581263 246.22604Q24.440638 246.41354 24.440638 246.72604Q24.440638 247.10104 24.659388 247.41354Q24.862513 247.71042 25.253138 247.85104Q25.628138 247.97604 26.518763 247.97604L29.550013 247.97604L29.550013 249.6323L23.331263 249.6323ZM29.550013 238.5698L20.956263 238.5698L20.956263 236.92917L24.050013 236.92917Q23.190638 236.16354 23.190638 235.11667Q23.190638 233.99167 24.018763 233.24167Q24.831263 232.49167 26.378138 232.49167Q27.971888 232.49167 28.831263 233.2573Q29.690638 234.02292 29.690638 235.10104Q29.690638 235.6323 29.425013 236.14792Q29.159388 236.66354 28.628138 237.03854L29.550013 237.03854L29.550013 238.5698ZM26.300013 236.9448Q27.268763 236.9448 27.737513 236.6323Q28.393763 236.21042 28.393763 235.49167Q28.393763 234.96042 27.925013 234.5698Q27.456263 234.17917 26.456263 234.17917Q25.393763 234.17917 24.925013 234.5698Q24.440638 234.96042 24.440638 235.5698Q24.440638 236.14792 24.909388 236.55417Q25.362513 236.9448 26.300013 236.9448ZM27.565638 227.89792L27.846888 226.2573Q28.753138 226.5698 29.221888 227.2573Q29.690638 227.9448 29.690638 228.96042Q29.690638 230.58542 28.628138 231.36667Q27.784388 231.99167 26.487513 231.99167Q24.940638 231.99167 24.065638 231.17917Q23.190638 230.36667 23.190638 229.1323Q23.190638 227.74167 24.112513 226.9448Q25.018763 226.1323 26.909388 226.17917L26.909388 230.30417Q27.643763 230.27292 28.050013 229.89792Q28.456263 229.52292 28.456263 228.9448Q28.456263 228.5698 28.253138 228.30417Q28.034388 228.03854 27.565638 227.89792ZM25.909388 227.80417Q25.190638 227.8198 24.815638 228.17917Q24.440638 228.52292 24.440638 229.03854Q24.440638 229.5698 24.831263 229.92917Q25.237513 230.27292 25.909388 230.27292L25.909388 227.80417ZM29.550013 222.92917L29.550013 224.5698L23.331263 224.5698L23.331263 223.03854L24.206263 223.03854Q23.581263 222.64792 23.393763 222.33542Q23.190638 222.02292 23.190638 221.6323Q23.190638 221.0698 23.503138 220.53854L24.925013 221.05417Q24.659388 221.47604 24.659388 221.8198Q24.659388 222.17917 24.862513 222.41354Q25.050013 222.64792 25.550013 222.78854Q26.034388 222.92917 27.628138 222.92917L29.550013 222.92917ZM25.300013 216.85104Q23.987513 216.85104 23.096888 216.4448Q22.440638 216.16354 21.925013 215.66354Q21.409388 215.14792 21.159388 214.53854Q20.815638 213.74167 20.815638 212.6948Q20.815638 210.78854 22.003138 209.64792Q23.175013 208.5073 25.268763 208.5073Q27.346888 208.5073 28.518763 209.64792Q29.690638 210.77292 29.690638 212.66354Q29.690638 214.58542 28.534388 215.72604Q27.362513 216.85104 25.300013 216.85104ZM25.253138 215.05417Q26.706263 215.05417 27.456263 214.3823Q28.206263 213.71042 28.206263 212.67917Q28.206263 211.6323 27.471888 210.97604Q26.721888 210.30417 25.221888 210.30417Q23.753138 210.30417 23.034388 210.96042Q22.300013 211.60104 22.300013 212.67917Q22.300013 213.74167 23.034388 214.39792Q23.768763 215.05417 25.253138 215.05417ZM23.331263 208.22604L23.331263 207.30417L22.862513 207.30417Q22.065638 207.30417 21.690638 207.14792Q21.300013 206.97604 21.065638 206.53854Q20.815638 206.08542 20.815638 205.39792Q20.815638 204.6948 21.018763 204.02292L22.175013 204.24167Q22.081263 204.6323 22.081263 204.99167Q22.081263 205.35104 22.253138 205.5073Q22.409388 205.66354 22.893763 205.66354L23.331263 205.66354L23.331263 204.42917L24.628138 204.42917L24.628138 205.66354L29.550013 205.66354L29.550013 207.30417L24.628138 207.30417L24.628138 208.22604L23.331263 208.22604ZM25.300013 200.85104Q23.987513 200.85104 23.096888 200.4448Q22.440638 200.16354 21.925013 199.66354Q21.409388 199.14792 21.159388 198.53854Q20.815638 197.74167 20.815638 196.6948Q20.815638 194.78854 22.003138 193.64792Q23.175013 192.5073 25.268763 192.5073Q27.346888 192.5073 28.518763 193.64792Q29.690638 194.77292 29.690638 196.66354Q29.690638 198.58542 28.534388 199.72604Q27.362513 200.85104 25.300013 200.85104ZM25.253138 199.05417Q26.706263 199.05417 27.456263 198.3823Q28.206263 197.71042 28.206263 196.67917Q28.206263 195.6323 27.471888 194.97604Q26.721888 194.30417 25.221888 194.30417Q23.753138 194.30417 23.034388 194.96042Q22.300013 195.60104 22.300013 196.67917Q22.300013 197.74167 23.034388 198.39792Q23.768763 199.05417 25.253138 199.05417ZM23.331263 191.55417L23.331263 190.02292L24.237513 190.02292Q23.768763 189.71042 23.487513 189.21042Q23.190638 188.6948 23.190638 188.0698Q23.190638 186.99167 24.034388 186.24167Q24.878138 185.47604 26.409388 185.47604Q27.956263 185.47604 28.831263 186.24167Q29.690638 187.0073 29.690638 188.08542Q29.690638 188.60104 29.487513 189.02292Q29.284388 189.4448 28.784388 189.89792L31.925013 189.89792L31.925013 191.55417L23.331263 191.55417ZM26.331263 189.92917Q27.378138 189.92917 27.878138 189.5073Q28.378138 189.08542 28.378138 188.49167Q28.378138 187.91354 27.925013 187.53854Q27.456263 187.16354 26.409388 187.16354Q25.440638 187.16354 24.971888 187.55417Q24.487513 187.9448 24.487513 188.52292Q24.487513 189.1323 24.956263 189.53854Q25.425013 189.92917 26.331263 189.92917ZM27.565638 180.89792L27.846888 179.2573Q28.753138 179.5698 29.221888 180.2573Q29.690638 180.9448 29.690638 181.96042Q29.690638 183.58542 28.628138 184.36667Q27.784388 184.99167 26.487513 184.99167Q24.940638 184.99167 24.065638 184.17917Q23.190638 183.36667 23.190638 182.1323Q23.190638 180.74167 24.112513 179.9448Q25.018763 179.1323 26.909388 179.17917L26.909388 183.30417Q27.643763 183.27292 28.050013 182.89792Q28.456263 182.52292 28.456263 181.9448Q28.456263 181.5698 28.253138 181.30417Q28.034388 181.03854 27.565638 180.89792ZM25.909388 180.80417Q25.190638 180.8198 24.815638 181.17917Q24.440638 181.52292 24.440638 182.03854Q24.440638 182.5698 24.831263 182.92917Q25.237513 183.27292 25.909388 183.27292L25.909388 180.80417ZM29.550013 175.92917L29.550013 177.5698L23.331263 177.5698L23.331263 176.03854L24.206263 176.03854Q23.581263 175.64792 23.393763 175.33542Q23.190638 175.02292 23.190638 174.6323Q23.190638 174.0698 23.503138 173.53854L24.925013 174.05417Q24.659388 174.47604 24.659388 174.8198Q24.659388 175.17917 24.862513 175.41354Q25.050013 175.64792 25.550013 175.78854Q26.034388 175.92917 27.628138 175.92917L29.550013 175.92917ZM25.221888 171.27292L24.956263 172.77292Q24.050013 172.52292 23.628138 171.91354Q23.190638 171.28854 23.190638 170.0698Q23.190638 168.97604 23.456263 168.4448Q23.706263 167.89792 24.112513 167.67917Q24.503138 167.46042 25.581263 167.46042L27.503138 167.47604Q28.331263 167.47604 28.721888 167.39792Q29.096888 167.3198 29.550013 167.10104L29.550013 168.72604Q29.378138 168.78854 29.065638 168.8823Q28.909388 168.92917 28.862513 168.9448Q29.284388 169.36667 29.487513 169.85104Q29.690638 170.3198 29.690638 170.86667Q29.690638 171.83542 29.175013 172.39792Q28.643763 172.9448 27.846888 172.9448Q27.315638 172.9448 26.909388 172.6948Q26.503138 172.42917 26.284388 171.97604Q26.050013 171.52292 25.893763 170.66354Q25.675013 169.52292 25.487513 169.0698L25.331263 169.0698Q24.846888 169.0698 24.643763 169.30417Q24.440638 169.53854 24.440638 170.1948Q24.440638 170.6323 24.612513 170.8823Q24.784388 171.11667 25.221888 171.27292ZM26.565638 169.0698Q26.659388 169.3823 26.815638 170.0698Q26.956263 170.7573 27.096888 170.97604Q27.331263 171.28854 27.675013 171.28854Q28.018763 171.28854 28.284388 171.03854Q28.534388 170.77292 28.534388 170.3823Q28.534388 169.92917 28.237513 169.52292Q28.018763 169.22604 27.690638 169.1323Q27.487513 169.0698 26.893763 169.0698L26.565638 169.0698ZM23.331263 162.64792L24.643763 162.64792L24.643763 163.77292L27.143763 163.77292Q27.909388 163.77292 28.034388 163.74167Q28.159388 163.71042 28.253138 163.60104Q28.331263 163.47604 28.331263 163.3198Q28.331263 163.08542 28.159388 162.66354L29.440638 162.52292Q29.690638 163.08542 29.690638 163.8198Q29.690638 164.2573 29.550013 164.61667Q29.393763 164.97604 29.159388 165.14792Q28.909388 165.30417 28.518763 165.3823Q28.221888 165.42917 27.346888 165.42917L24.643763 165.42917L24.643763 166.17917L23.331263 166.17917L23.331263 165.42917L22.096888 165.42917L21.128138 163.77292L23.331263 163.77292L23.331263 162.64792ZM22.487513 161.5073L20.956263 161.5073L20.956263 159.85104L22.487513 159.85104L22.487513 161.5073ZM29.550013 161.5073L23.331263 161.5073L23.331263 159.85104L29.550013 159.85104L29.550013 161.5073ZM26.346888 158.8823Q25.534388 158.8823 24.768763 158.47604Q23.987513 158.0698 23.596888 157.33542Q23.190638 156.60104 23.190638 155.67917Q23.190638 154.27292 24.112513 153.36667Q25.018763 152.46042 26.425013 152.46042Q27.831263 152.46042 28.768763 153.3823Q29.690638 154.28854 29.690638 155.66354Q29.690638 156.52292 29.300013 157.30417Q28.909388 158.0698 28.175013 158.47604Q27.425013 158.8823 26.346888 158.8823ZM26.440638 157.1948Q27.362513 157.1948 27.862513 156.7573Q28.346888 156.3198 28.346888 155.67917Q28.346888 155.02292 27.862513 154.60104Q27.362513 154.16354 26.425013 154.16354Q25.518763 154.16354 25.034388 154.60104Q24.534388 155.02292 24.534388 155.67917Q24.534388 156.3198 25.034388 156.7573Q25.518763 157.1948 26.440638 157.1948ZM29.550013 145.85104L29.550013 147.49167L26.378138 147.49167Q25.362513 147.49167 25.065638 147.60104Q24.768763 147.6948 24.612513 147.9448Q24.440638 148.17917 24.440638 148.5073Q24.440638 148.9448 24.675013 149.28854Q24.909388 149.61667 25.300013 149.74167Q25.690638 149.86667 26.737513 149.86667L29.550013 149.86667L29.550013 151.52292L23.331263 151.52292L23.331263 149.99167L24.237513 149.99167Q23.190638 149.17917 23.190638 147.92917Q23.190638 147.39792 23.393763 146.9448Q23.581263 146.49167 23.893763 146.2573Q24.190638 146.02292 24.581263 145.9448Q24.956263 145.85104 25.675013 145.85104L29.550013 145.85104ZM27.768763 145.08542L27.518763 143.42917Q28.003138 143.3198 28.253138 143.0073Q28.503138 142.67917 28.503138 142.10104Q28.503138 141.46042 28.268763 141.14792Q28.096888 140.92917 27.831263 140.92917Q27.643763 140.92917 27.518763 141.03854Q27.393763 141.16354 27.300013 141.58542Q26.862513 143.58542 26.503138 144.11667Q25.987513 144.85104 25.096888 144.85104Q24.284388 144.85104 23.737513 144.22604Q23.190638 143.58542 23.190638 142.24167Q23.190638 140.96042 23.612513 140.33542Q24.018763 139.71042 24.831263 139.47604L25.112513 141.03854Q24.753138 141.1323 24.565638 141.41354Q24.362513 141.6948 24.362513 142.21042Q24.362513 142.85104 24.550013 143.1323Q24.675013 143.3198 24.878138 143.3198Q25.065638 143.3198 25.190638 143.16354Q25.346888 142.9448 25.643763 141.6323Q25.940638 140.30417 26.378138 139.78854Q26.815638 139.27292 27.596888 139.27292Q28.456263 139.27292 29.081263 139.99167Q29.690638 140.6948 29.690638 142.10104Q29.690638 143.36667 29.175013 144.11667Q28.659388 144.85104 27.768763 145.08542Z" fill-rule="nonzero"/><path fill="#000000" d="M55.05 302.21564Q55.05 300.6844 55.3625 299.7625Q55.675 298.825 56.284374 298.325Q56.909374 297.825 57.846874 297.825Q58.534374 297.825 59.05 298.10626Q59.58125 298.3875 59.925 298.91876Q60.26875 299.4344 60.45625 300.1844Q60.64375 300.9344 60.64375 302.21564Q60.64375 303.73126 60.33125 304.65314Q60.034374 305.575 59.409374 306.09064Q58.8 306.59064 57.846874 306.59064Q56.6125 306.59064 55.89375 305.7Q55.05 304.6375 55.05 302.21564ZM56.128124 302.21564Q56.128124 304.325 56.628124 305.02814Q57.128124 305.73126 57.846874 305.73126Q58.58125 305.73126 59.065624 305.02814Q59.565624 304.325 59.565624 302.21564Q59.565624 300.09064 59.065624 299.40314Q58.58125 298.7 57.83125 298.7Q57.1125 298.7 56.675 299.3094Q56.128124 300.09064 56.128124 302.21564ZM62.64375 306.45L62.64375 305.2469L63.846874 305.2469L63.846874 306.45L62.64375 306.45ZM65.05 302.21564Q65.05 300.6844 65.3625 299.7625Q65.675 298.825 66.28438 298.325Q66.90938 297.825 67.84688 297.825Q68.53438 297.825 69.05 298.10626Q69.58125 298.3875 69.925 298.91876Q70.26875 299.4344 70.45625 300.1844Q70.64375 300.9344 70.64375 302.21564Q70.64375 303.73126 70.33125 304.65314Q70.03438 305.575 69.40938 306.09064Q68.8 306.59064 67.84688 306.59064Q66.6125 306.59064 65.89375 305.7Q65.05 304.6375 65.05 302.21564ZM66.12813 302.21564Q66.12813 304.325 66.62813 305.02814Q67.12813 305.73126 67.84688 305.73126Q68.58125 305.73126 69.06563 305.02814Q69.56563 304.325 69.56563 302.21564Q69.56563 300.09064 69.06563 299.40314Q68.58125 298.7 67.83125 298.7Q67.1125 298.7 66.675 299.3094Q66.12813 300.09064 66.12813 302.21564Z" fill-rule="nonzero"/><path fill="#000000" d="M55.05 248.67397Q55.05 247.14272 55.3625 246.22084Q55.675 245.28334 56.284374 244.78334Q56.909374 244.28334 57.846874 244.28334Q58.534374 244.28334 59.05 244.56459Q59.58125 244.84584 59.925 245.37709Q60.26875 245.89272 60.45625 246.64272Q60.64375 247.39272 60.64375 248.67397Q60.64375 250.18959 60.33125 251.11147Q60.034374 252.03334 59.409374 252.54897Q58.8 253.04897 57.846874 253.04897Q56.6125 253.04897 55.89375 252.15834Q55.05 251.09584 55.05 248.67397ZM56.128124 248.67397Q56.128124 250.78334 56.628124 251.48647Q57.128124 252.18959 57.846874 252.18959Q58.58125 252.18959 59.065624 251.48647Q59.565624 250.78334 59.565624 248.67397Q59.565624 246.54897 59.065624 245.86147Q58.58125 245.15834 57.83125 245.15834Q57.1125 245.15834 56.675 245.76772Q56.128124 246.54897 56.128124 248.67397ZM62.64375 252.90834L62.64375 251.70522L63.846874 251.70522L63.846874 252.90834L62.64375 252.90834ZM65.05 250.65834L66.15938 250.56459Q66.28438 251.37709 66.72188 251.78334Q67.175 252.18959 67.81563 252.18959Q68.56563 252.18959 69.09688 251.61147Q69.62813 251.03334 69.62813 250.09584Q69.62813 249.18959 69.1125 248.67397Q68.6125 248.14272 67.78438 248.14272Q67.28438 248.14272 66.8625 248.37709Q66.45625 248.61147 66.22188 248.97084L65.2375 248.84584L66.06563 244.43959L70.34688 244.43959L70.34688 245.43959L66.90938 245.43959L66.45625 247.75209Q67.22188 247.20522 68.06563 247.20522Q69.19063 247.20522 69.95625 247.98647Q70.7375 248.76772 70.7375 250.00209Q70.7375 251.15834 70.06563 252.01772Q69.2375 253.04897 67.81563 253.04897Q66.64375 253.04897 65.89375 252.39272Q65.15938 251.73647 65.05 250.65834Z" fill-rule="nonzero"/><path fill="#000000" d="M59.01875 199.36667L57.971874 199.36667L57.971874 192.64792Q57.58125 193.0073 56.95625 193.3823Q56.346874 193.74167 55.8625 193.91354L55.8625 192.89792Q56.7375 192.47604 57.39375 191.89792Q58.065624 191.30417 58.346874 190.74167L59.01875 190.74167L59.01875 199.36667ZM62.64375 199.36667L62.64375 198.16354L63.846874 198.16354L63.846874 199.36667L62.64375 199.36667ZM65.05 195.1323Q65.05 193.60104 65.3625 192.67917Q65.675 191.74167 66.28438 191.24167Q66.90938 190.74167 67.84688 190.74167Q68.53438 190.74167 69.05 191.02292Q69.58125 191.30417 69.925 191.83542Q70.26875 192.35104 70.45625 193.10104Q70.64375 193.85104 70.64375 195.1323Q70.64375 196.64792 70.33125 197.5698Q70.03438 198.49167 69.40938 199.0073Q68.8 199.5073 67.84688 199.5073Q66.6125 199.5073 65.89375 198.61667Q65.05 197.55417 65.05 195.1323ZM66.12813 195.1323Q66.12813 197.24167 66.62813 197.9448Q67.12813 198.64792 67.84688 198.64792Q68.58125 198.64792 69.06563 197.9448Q69.56563 197.24167 69.56563 195.1323Q69.56563 193.0073 69.06563 192.3198Q68.58125 191.61667 67.83125 191.61667Q67.1125 191.61667 66.675 192.22604Q66.12813 193.0073 66.12813 195.1323Z" fill-rule="nonzero"/><path fill="#000000" d="M59.01875 145.825L57.971874 145.825L57.971874 139.10625Q57.58125 139.46562 56.95625 139.84062Q56.346874 140.2 55.8625 140.37187L55.8625 139.35625Q56.7375 138.93437 57.39375 138.35625Q58.065624 137.7625 58.346874 137.2L59.01875 137.2L59.01875 145.825ZM62.64375 145.825L62.64375 144.62187L63.846874 144.62187L63.846874 145.825L62.64375 145.825ZM65.05 143.575L66.15938 143.48125Q66.28438 144.29375 66.72188 144.7Q67.175 145.10625 67.81563 145.10625Q68.56563 145.10625 69.09688 144.52812Q69.62813 143.95 69.62813 143.0125Q69.62813 142.10625 69.1125 141.59062Q68.6125 141.05937 67.78438 141.05937Q67.28438 141.05937 66.8625 141.29375Q66.45625 141.52812 66.22188 141.8875L65.2375 141.7625L66.06563 137.35625L70.34688 137.35625L70.34688 138.35625L66.90938 138.35625L66.45625 140.66875Q67.22188 140.12187 68.06563 140.12187Q69.19063 140.12187 69.95625 140.90312Q70.7375 141.68437 70.7375 142.91875Q70.7375 144.075 70.06563 144.93437Q69.2375 145.96562 67.81563 145.96562Q66.64375 145.96562 65.89375 145.30937Q65.15938 144.65312 65.05 143.575Z" fill-rule="nonzero"/><path fill="#000000" d="M60.596874 91.26771L60.596874 92.28333L54.909374 92.28333Q54.909374 91.90833 55.034374 91.54896Q55.253124 90.97083 55.721874 90.40833Q56.20625 89.84583 57.1125 89.11146Q58.51875 87.95521 59.003124 87.28333Q59.503124 86.61146 59.503124 86.01771Q59.503124 85.39271 59.05 84.97083Q58.596874 84.53333 57.878124 84.53333Q57.1125 84.53333 56.659374 84.98646Q56.20625 85.43958 56.190624 86.25208L55.1125 86.14271Q55.221874 84.92396 55.940624 84.29896Q56.675 83.65833 57.909374 83.65833Q59.14375 83.65833 59.8625 84.34583Q60.58125 85.03333 60.58125 86.04896Q60.58125 86.56458 60.3625 87.06458Q60.159374 87.54896 59.659374 88.11146Q59.175 88.65833 58.05 89.61146Q57.096874 90.40833 56.815624 90.70521Q56.55 90.98646 56.378124 91.26771L60.596874 91.26771ZM62.64375 92.28333L62.64375 91.08021L63.846874 91.08021L63.846874 92.28333L62.64375 92.28333ZM65.05 88.04896Q65.05 86.51771 65.3625 85.59583Q65.675 84.65833 66.28438 84.15833Q66.90938 83.65833 67.84688 83.65833Q68.53438 83.65833 69.05 83.93958Q69.58125 84.22083 69.925 84.75208Q70.26875 85.26771 70.45625 86.01771Q70.64375 86.76771 70.64375 88.04896Q70.64375 89.56458 70.33125 90.48646Q70.03438 91.40833 69.40938 91.92396Q68.8 92.42396 67.84688 92.42396Q66.6125 92.42396 65.89375 91.53333Q65.05 90.47083 65.05 88.04896ZM66.12813 88.04896Q66.12813 90.15833 66.62813 90.86146Q67.12813 91.56458 67.84688 91.56458Q68.58125 91.56458 69.06563 90.86146Q69.56563 90.15833 69.56563 88.04896Q69.56563 85.92396 69.06563 85.23646Q68.58125 84.53333 67.83125 84.53333Q67.1125 84.53333 66.675 85.14271Q66.12813 85.92396 66.12813 88.04896Z" fill-rule="nonzero"/><path fill="#000000" d="M163.35722 318.4344L163.35722 319.45L157.66972 319.45Q157.66972 319.075 157.79472 318.71564Q158.01347 318.1375 158.48222 317.575Q158.9666 317.0125 159.87285 316.27814Q161.2791 315.1219 161.76347 314.45Q162.26347 313.77814 162.26347 313.1844Q162.26347 312.5594 161.81035 312.1375Q161.35722 311.7 160.63847 311.7Q159.87285 311.7 159.41972 312.15314Q158.9666 312.60626 158.95097 313.41876L157.87285 313.3094Q157.98222 312.09064 158.70097 311.46564Q159.43535 310.825 160.66972 310.825Q161.9041 310.825 162.62285 311.5125Q163.3416 312.2 163.3416 313.21564Q163.3416 313.73126 163.12285 314.23126Q162.91972 314.71564 162.41972 315.27814Q161.93535 315.825 160.81035 316.77814Q159.85722 317.575 159.57597 317.8719Q159.31035 318.15314 159.13847 318.4344L163.35722 318.4344Z" fill-rule="nonzero"/><path fill="#000000" d="M272.2701 317.2L273.3795 317.10626Q273.5045 317.91876 273.942 318.325Q274.3951 318.73126 275.03574 318.73126Q275.78574 318.73126 276.317 318.15314Q276.84824 317.575 276.84824 316.6375Q276.84824 315.73126 276.3326 315.21564Q275.8326 314.6844 275.0045 314.6844Q274.5045 314.6844 274.0826 314.91876Q273.67636 315.15314 273.442 315.5125L272.4576 315.3875L273.28574 310.98126L277.567 310.98126L277.567 311.98126L274.1295 311.98126L273.67636 314.29376Q274.442 313.7469 275.28574 313.7469Q276.41074 313.7469 277.17636 314.52814Q277.9576 315.3094 277.9576 316.54376Q277.9576 317.7 277.28574 318.5594Q276.4576 319.59064 275.03574 319.59064Q273.86386 319.59064 273.11386 318.9344Q272.3795 318.27814 272.2701 317.2Z" fill-rule="nonzero"/><path fill="#000000" d="M387.19864 319.45L386.15176 319.45L386.15176 312.73126Q385.76114 313.09064 385.13614 313.46564Q384.52676 313.825 384.0424 313.9969L384.0424 312.98126Q384.9174 312.5594 385.57364 311.98126Q386.2455 311.3875 386.52676 310.825L387.19864 310.825L387.19864 319.45ZM390.2299 315.21564Q390.2299 313.6844 390.5424 312.7625Q390.8549 311.825 391.46426 311.325Q392.08926 310.825 393.02676 310.825Q393.71426 310.825 394.2299 311.10626Q394.76114 311.3875 395.1049 311.91876Q395.44864 312.4344 395.63614 313.1844Q395.82364 313.9344 395.82364 315.21564Q395.82364 316.73126 395.51114 317.65314Q395.21426 318.575 394.58926 319.09064Q393.9799 319.59064 393.02676 319.59064Q391.7924 319.59064 391.07364 318.7Q390.2299 317.6375 390.2299 315.21564ZM391.308 315.21564Q391.308 317.325 391.808 318.02814Q392.308 318.73126 393.02676 318.73126Q393.76114 318.73126 394.2455 318.02814Q394.7455 317.325 394.7455 315.21564Q394.7455 313.09064 394.2455 312.40314Q393.76114 311.7 393.01114 311.7Q392.2924 311.7 391.8549 312.3094Q391.308 313.09064 391.308 315.21564Z" fill-rule="nonzero"/><path fill="#000000" d="M503.23654 318.4344L503.23654 319.45L497.54904 319.45Q497.54904 319.075 497.67404 318.71564Q497.8928 318.1375 498.36154 317.575Q498.84592 317.0125 499.75217 316.27814Q501.15842 315.1219 501.6428 314.45Q502.1428 313.77814 502.1428 313.1844Q502.1428 312.5594 501.68967 312.1375Q501.23654 311.7 500.5178 311.7Q499.75217 311.7 499.29904 312.15314Q498.84592 312.60626 498.8303 313.41876L497.75217 313.3094Q497.86154 312.09064 498.5803 311.46564Q499.31467 310.825 500.54904 310.825Q501.78342 310.825 502.50217 311.5125Q503.22092 312.2 503.22092 313.21564Q503.22092 313.73126 503.00217 314.23126Q502.79904 314.71564 502.29904 315.27814Q501.81467 315.825 500.68967 316.77814Q499.73654 317.575 499.4553 317.8719Q499.18967 318.15314 499.0178 318.4344L503.23654 318.4344ZM504.68967 315.21564Q504.68967 313.6844 505.00217 312.7625Q505.31467 311.825 505.92404 311.325Q506.54904 310.825 507.48654 310.825Q508.17404 310.825 508.68967 311.10626Q509.22092 311.3875 509.56467 311.91876Q509.90842 312.4344 510.09592 313.1844Q510.28342 313.9344 510.28342 315.21564Q510.28342 316.73126 509.97092 317.65314Q509.67404 318.575 509.04904 319.09064Q508.43967 319.59064 507.48654 319.59064Q506.25217 319.59064 505.53342 318.7Q504.68967 317.6375 504.68967 315.21564ZM505.7678 315.21564Q505.7678 317.325 506.2678 318.02814Q506.7678 318.73126 507.48654 318.73126Q508.22092 318.73126 508.7053 318.02814Q509.2053 317.325 509.2053 315.21564Q509.2053 313.09064 508.7053 312.40314Q508.22092 311.7 507.47092 311.7Q506.75217 311.7 506.31467 312.3094Q505.7678 313.09064 505.7678 315.21564Z" fill-rule="nonzero"/><path fill="#4285f4" d="M159.0 56.916668C159.0 56.364384 159.44771 55.916668 160.0 55.916668L170.0 55.916668C170.55229 55.916668 171.0 56.364384 171.0 56.916668L171.0 66.916664C171.0 67.46895 170.55229 67.916664 170.0 67.916664L160.0 67.916664C159.44771 67.916664 159.0 67.46895 159.0 66.916664Z" fill-rule="nonzero"/><path fill="#1a1a1a" d="M179.57812 61.729164Q179.57812 59.58854 180.71875 58.385414Q181.875 57.166664 183.6875 57.166664Q184.89062 57.166664 185.84375 57.74479Q186.79688 58.30729 187.29688 59.322914Q187.79688 60.33854 187.79688 61.635414Q187.79688 62.93229 187.26562 63.96354Q186.73438 64.99479 185.76562 65.52604Q184.8125 66.05729 183.6875 66.05729Q182.46875 66.05729 181.51562 65.479164Q180.5625 64.885414 180.0625 63.885414Q179.57812 62.86979 179.57812 61.729164ZM180.75 61.74479Q180.75 63.30729 181.57812 64.197914Q182.42188 65.08854 183.6875 65.08854Q184.96875 65.08854 185.79688 64.197914Q186.625 63.291664 186.625 61.61979Q186.625 60.572914 186.26562 59.791664Q185.92188 59.010414 185.23438 58.58854Q184.54688 58.15104 183.70312 58.15104Q182.5 58.15104 181.625 58.979164Q180.75 59.80729 180.75 61.74479ZM188.79688 68.30729L188.79688 59.697914L189.75 59.697914L189.75 60.49479Q190.09375 60.02604 190.51562 59.791664Q190.95312 59.55729 191.5625 59.55729Q192.35938 59.55729 192.96875 59.96354Q193.57812 60.36979 193.875 61.11979Q194.1875 61.86979 194.1875 62.760414Q194.1875 63.71354 193.84375 64.479164Q193.51562 65.24479 192.85938 65.65104Q192.20312 66.05729 191.48438 66.05729Q190.95312 66.05729 190.53125 65.83854Q190.10938 65.604164 189.84375 65.27604L189.84375 68.30729L188.79688 68.30729ZM189.75 62.83854Q189.75 64.041664 190.23438 64.61979Q190.71875 65.18229 191.40625 65.18229Q192.10938 65.18229 192.60938 64.58854Q193.10938 63.99479 193.10938 62.74479Q193.10938 61.55729 192.625 60.979164Q192.14062 60.385414 191.45312 60.385414Q190.78125 60.385414 190.26562 61.010414Q189.75 61.635414 189.75 62.83854ZM200.04688 63.916664L201.14062 64.041664Q200.89062 64.99479 200.1875 65.52604Q199.48438 66.05729 198.40625 66.05729Q197.04688 66.05729 196.23438 65.21354Q195.4375 64.36979 195.4375 62.854164Q195.4375 61.291664 196.25 60.43229Q197.0625 59.55729 198.34375 59.55729Q199.59375 59.55729 200.375 60.40104Q201.17188 61.24479 201.17188 62.791664Q201.17188 62.885414 201.17188 63.072914L196.53125 63.072914Q196.59375 64.104164 197.10938 64.65104Q197.625 65.18229 198.40625 65.18229Q198.98438 65.18229 199.39062 64.885414Q199.8125 64.572914 200.04688 63.916664ZM196.59375 62.21354L200.0625 62.21354Q200.0 61.416664 199.67188 61.02604Q199.15625 60.416664 198.35938 60.416664Q197.625 60.416664 197.125 60.90104Q196.64062 61.385414 196.59375 62.21354ZM202.78125 65.916664L202.78125 59.697914L203.73438 59.697914L203.73438 60.635414Q204.09375 59.979164 204.39062 59.77604Q204.70312 59.55729 205.07812 59.55729Q205.60938 59.55729 206.15625 59.885414L205.79688 60.86979Q205.40625 60.635414 205.03125 60.635414Q204.67188 60.635414 204.39062 60.854164Q204.125 61.05729 204.01562 61.43229Q203.82812 61.99479 203.82812 62.65104L203.82812 65.916664L202.78125 65.916664ZM210.85938 65.15104Q210.26562 65.65104 209.71875 65.854164Q209.1875 66.05729 208.5625 66.05729Q207.53125 66.05729 206.98438 65.55729Q206.4375 65.05729 206.4375 64.27604Q206.4375 63.822914 206.64062 63.447914Q206.84375 63.05729 207.1875 62.83854Q207.53125 62.604164 207.95312 62.49479Q208.25 62.40104 208.89062 62.322914Q210.15625 62.18229 210.76562 61.96354Q210.76562 61.74479 210.76562 61.697914Q210.76562 61.041664 210.46875 60.77604Q210.0625 60.43229 209.26562 60.43229Q208.53125 60.43229 208.17188 60.697914Q207.8125 60.947914 207.64062 61.604164L206.60938 61.46354Q206.75 60.80729 207.07812 60.40104Q207.40625 59.99479 208.01562 59.77604Q208.625 59.55729 209.42188 59.55729Q210.21875 59.55729 210.71875 59.74479Q211.21875 59.93229 211.45312 60.21354Q211.6875 60.49479 211.78125 60.93229Q211.82812 61.197914 211.82812 61.90104L211.82812 63.30729Q211.82812 64.77604 211.89062 65.166664Q211.96875 65.55729 212.17188 65.916664L211.0625 65.916664Q210.90625 65.58854 210.85938 65.15104ZM210.76562 62.791664Q210.1875 63.02604 209.04688 63.197914Q208.39062 63.291664 208.125 63.416664Q207.85938 63.52604 207.70312 63.74479Q207.5625 63.96354 207.5625 64.24479Q207.5625 64.666664 207.875 64.947914Q208.20312 65.229164 208.8125 65.229164Q209.42188 65.229164 209.89062 64.96354Q210.375 64.697914 210.59375 64.229164Q210.76562 63.86979 210.76562 63.18229L210.76562 62.791664ZM216.09375 64.979164L216.25 65.90104Q215.79688 65.99479 215.45312 65.99479Q214.875 65.99479 214.5625 65.822914Q214.25 65.635414 214.10938 65.33854Q213.98438 65.041664 213.98438 64.08854L213.98438 60.510414L213.21875 60.510414L213.21875 59.697914L213.98438 59.697914L213.98438 58.15104L215.03125 57.52604L215.03125 59.697914L216.09375 59.697914L216.09375 60.510414L215.03125 60.510414L215.03125 64.15104Q215.03125 64.604164 215.07812 64.729164Q215.14062 64.854164 215.26562 64.93229Q215.39062 65.010414 215.625 65.010414Q215.8125 65.010414 216.09375 64.979164ZM216.79688 58.541664L216.79688 57.322914L217.85938 57.322914L217.85938 58.541664L216.79688 58.541664ZM216.79688 65.916664L216.79688 59.697914L217.85938 59.697914L217.85938 65.916664L216.79688 65.916664ZM219.40625 62.80729Q219.40625 61.072914 220.35938 60.24479Q221.15625 59.55729 222.3125 59.55729Q223.59375 59.55729 224.40625 60.40104Q225.23438 61.229164 225.23438 62.71354Q225.23438 63.916664 224.875 64.604164Q224.51562 65.291664 223.8125 65.68229Q223.125 66.05729 222.3125 66.05729Q221.01562 66.05729 220.20312 65.229164Q219.40625 64.385414 219.40625 62.80729ZM220.48438 62.80729Q220.48438 63.99479 221.0 64.58854Q221.53125 65.18229 222.3125 65.18229Q223.10938 65.18229 223.625 64.58854Q224.14062 63.99479 224.14062 62.77604Q224.14062 61.61979 223.60938 61.02604Q223.09375 60.43229 222.3125 60.43229Q221.53125 60.43229 221.0 61.02604Q220.48438 61.604164 220.48438 62.80729ZM226.79688 65.916664L226.79688 59.697914L227.73438 59.697914L227.73438 60.572914Q228.42188 59.55729 229.71875 59.55729Q230.28125 59.55729 230.75 59.760414Q231.23438 59.96354 231.46875 60.291664Q231.70312 60.61979 231.79688 61.05729Q231.84375 61.354164 231.84375 62.08854L231.84375 65.916664L230.79688 65.916664L230.79688 62.135414Q230.79688 61.479164 230.67188 61.166664Q230.54688 60.854164 230.23438 60.666664Q229.92188 60.46354 229.5 60.46354Q228.82812 60.46354 228.32812 60.90104Q227.84375 61.322914 227.84375 62.510414L227.84375 65.916664L226.79688 65.916664ZM236.79688 68.30729L236.79688 59.697914L237.75 59.697914L237.75 60.49479Q238.09375 60.02604 238.51562 59.791664Q238.95312 59.55729 239.5625 59.55729Q240.35938 59.55729 240.96875 59.96354Q241.57812 60.36979 241.875 61.11979Q242.1875 61.86979 242.1875 62.760414Q242.1875 63.71354 241.84375 64.479164Q241.51562 65.24479 240.85938 65.65104Q240.20312 66.05729 239.48438 66.05729Q238.95312 66.05729 238.53125 65.83854Q238.10938 65.604164 237.84375 65.27604L237.84375 68.30729L236.79688 68.30729ZM237.75 62.83854Q237.75 64.041664 238.23438 64.61979Q238.71875 65.18229 239.40625 65.18229Q240.10938 65.18229 240.60938 64.58854Q241.10938 63.99479 241.10938 62.74479Q241.10938 61.55729 240.625 60.979164Q240.14062 60.385414 239.45312 60.385414Q238.78125 60.385414 238.26562 61.010414Q237.75 61.635414 237.75 62.83854ZM248.04688 63.916664L249.14062 64.041664Q248.89062 64.99479 248.1875 65.52604Q247.48438 66.05729 246.40625 66.05729Q245.04688 66.05729 244.23438 65.21354Q243.4375 64.36979 243.4375 62.854164Q243.4375 61.291664 244.25 60.43229Q245.0625 59.55729 246.34375 59.55729Q247.59375 59.55729 248.375 60.40104Q249.17188 61.24479 249.17188 62.791664Q249.17188 62.885414 249.17188 63.072914L244.53125 63.072914Q244.59375 64.104164 245.10938 64.65104Q245.625 65.18229 246.40625 65.18229Q246.98438 65.18229 247.39062 64.885414Q247.8125 64.572914 248.04688 63.916664ZM244.59375 62.21354L248.0625 62.21354Q248.0 61.416664 247.67188 61.02604Q247.15625 60.416664 246.35938 60.416664Q245.625 60.416664 245.125 60.90104Q244.64062 61.385414 244.59375 62.21354ZM250.78125 65.916664L250.78125 59.697914L251.73438 59.697914L251.73438 60.635414Q252.09375 59.979164 252.39062 59.77604Q252.70312 59.55729 253.07812 59.55729Q253.60938 59.55729 254.15625 59.885414L253.79688 60.86979Q253.40625 60.635414 253.03125 60.635414Q252.67188 60.635414 252.39062 60.854164Q252.125 61.05729 252.01562 61.43229Q251.82812 61.99479 251.82812 62.65104L251.82812 65.916664L250.78125 65.916664ZM258.125 65.916664L258.125 57.322914L259.25 57.322914L259.25 65.916664L258.125 65.916664ZM260.79688 65.916664L260.79688 59.697914L261.73438 59.697914L261.73438 60.572914Q262.42188 59.55729 263.71875 59.55729Q264.28125 59.55729 264.75 59.760414Q265.23438 59.96354 265.46875 60.291664Q265.70312 60.61979 265.79688 61.05729Q265.84375 61.354164 265.84375 62.08854L265.84375 65.916664L264.79688 65.916664L264.79688 62.135414Q264.79688 61.479164 264.67188 61.166664Q264.54688 60.854164 264.23438 60.666664Q263.92188 60.46354 263.5 60.46354Q262.82812 60.46354 262.32812 60.90104Q261.84375 61.322914 261.84375 62.510414L261.84375 65.916664L260.79688 65.916664ZM267.375 64.05729L268.40625 63.90104Q268.5 64.52604 268.89062 64.854164Q269.29688 65.18229 270.03125 65.18229Q270.75 65.18229 271.09375 64.90104Q271.45312 64.604164 271.45312 64.197914Q271.45312 63.83854 271.14062 63.635414Q270.92188 63.49479 270.0625 63.27604Q268.90625 62.979164 268.45312 62.77604Q268.01562 62.55729 267.78125 62.18229Q267.54688 61.80729 267.54688 61.33854Q267.54688 60.93229 267.73438 60.572914Q267.92188 60.21354 268.25 59.979164Q268.5 59.80729 268.92188 59.68229Q269.34375 59.55729 269.84375 59.55729Q270.5625 59.55729 271.10938 59.77604Q271.67188 59.979164 271.9375 60.33854Q272.20312 60.697914 272.29688 61.291664L271.26562 61.43229Q271.20312 60.96354 270.85938 60.697914Q270.53125 60.416664 269.90625 60.416664Q269.1875 60.416664 268.875 60.666664Q268.5625 60.90104 268.5625 61.229164Q268.5625 61.43229 268.6875 61.58854Q268.82812 61.760414 269.09375 61.86979Q269.25 61.93229 270.03125 62.135414Q271.15625 62.447914 271.59375 62.635414Q272.03125 62.822914 272.28125 63.18229Q272.53125 63.541664 272.53125 64.08854Q272.53125 64.61979 272.21875 65.08854Q271.92188 65.541664 271.34375 65.80729Q270.76562 66.05729 270.03125 66.05729Q268.8125 66.05729 268.17188 65.55729Q267.54688 65.041664 267.375 64.05729ZM279.04688 63.916664L280.14062 64.041664Q279.89062 64.99479 279.1875 65.52604Q278.48438 66.05729 277.40625 66.05729Q276.04688 66.05729 275.23438 65.21354Q274.4375 64.36979 274.4375 62.854164Q274.4375 61.291664 275.25 60.43229Q276.0625 59.55729 277.34375 59.55729Q278.59375 59.55729 279.375 60.40104Q280.17188 61.24479 280.17188 62.791664Q280.17188 62.885414 280.17188 63.072914L275.53125 63.072914Q275.59375 64.104164 276.10938 64.65104Q276.625 65.18229 277.40625 65.18229Q277.98438 65.18229 278.39062 64.885414Q278.8125 64.572914 279.04688 63.916664ZM275.59375 62.21354L279.0625 62.21354Q279.0 61.416664 278.67188 61.02604Q278.15625 60.416664 277.35938 60.416664Q276.625 60.416664 276.125 60.90104Q275.64062 61.385414 275.59375 62.21354ZM281.78125 65.916664L281.78125 59.697914L282.73438 59.697914L282.73438 60.635414Q283.09375 59.979164 283.39062 59.77604Q283.70312 59.55729 284.07812 59.55729Q284.60938 59.55729 285.15625 59.885414L284.79688 60.86979Q284.40625 60.635414 284.03125 60.635414Q283.67188 60.635414 283.39062 60.854164Q283.125 61.05729 283.01562 61.43229Q282.82812 61.99479 282.82812 62.65104L282.82812 65.916664L281.78125 65.916664ZM288.09375 64.979164L288.25 65.90104Q287.79688 65.99479 287.45312 65.99479Q286.875 65.99479 286.5625 65.822914Q286.25 65.635414 286.10938 65.33854Q285.98438 65.041664 285.98438 64.08854L285.98438 60.510414L285.21875 60.510414L285.21875 59.697914L285.98438 59.697914L285.98438 58.15104L287.03125 57.52604L287.03125 59.697914L288.09375 59.697914L288.09375 60.510414L287.03125 60.510414L287.03125 64.15104Q287.03125 64.604164 287.07812 64.729164Q287.14062 64.854164 287.26562 64.93229Q287.39062 65.010414 287.625 65.010414Q287.8125 65.010414 288.09375 64.979164Z" fill-rule="nonzero"/><path fill="#ea4335" d="M304.0 56.916668C304.0 56.364384 304.44772 55.916668 305.0 55.916668L315.0 55.916668C315.55228 55.916668 316.0 56.364384 316.0 56.916668L316.0 66.916664C316.0 67.46895 315.55228 67.916664 315.0 67.916664L305.0 67.916664C304.44772 67.916664 304.0 67.46895 304.0 66.916664Z" fill-rule="nonzero"/><path fill="#1a1a1a" d="M324.57812 61.729164Q324.57812 59.58854 325.71875 58.385414Q326.875 57.166664 328.6875 57.166664Q329.89062 57.166664 330.84375 57.74479Q331.79688 58.30729 332.29688 59.322914Q332.79688 60.33854 332.79688 61.635414Q332.79688 62.93229 332.26562 63.96354Q331.73438 64.99479 330.76562 65.52604Q329.8125 66.05729 328.6875 66.05729Q327.46875 66.05729 326.51562 65.479164Q325.5625 64.885414 325.0625 63.885414Q324.57812 62.86979 324.57812 61.729164ZM325.75 61.74479Q325.75 63.30729 326.57812 64.197914Q327.42188 65.08854 328.6875 65.08854Q329.96875 65.08854 330.79688 64.197914Q331.625 63.291664 331.625 61.61979Q331.625 60.572914 331.26562 59.791664Q330.92188 59.010414 330.23438 58.58854Q329.54688 58.15104 328.70312 58.15104Q327.5 58.15104 326.625 58.979164Q325.75 59.80729 325.75 61.74479ZM333.79688 68.30729L333.79688 59.697914L334.75 59.697914L334.75 60.49479Q335.09375 60.02604 335.51562 59.791664Q335.95312 59.55729 336.5625 59.55729Q337.35938 59.55729 337.96875 59.96354Q338.57812 60.36979 338.875 61.11979Q339.1875 61.86979 339.1875 62.760414Q339.1875 63.71354 338.84375 64.479164Q338.51562 65.24479 337.85938 65.65104Q337.20312 66.05729 336.48438 66.05729Q335.95312 66.05729 335.53125 65.83854Q335.10938 65.604164 334.84375 65.27604L334.84375 68.30729L333.79688 68.30729ZM334.75 62.83854Q334.75 64.041664 335.23438 64.61979Q335.71875 65.18229 336.40625 65.18229Q337.10938 65.18229 337.60938 64.58854Q338.10938 63.99479 338.10938 62.74479Q338.10938 61.55729 337.625 60.979164Q337.14062 60.385414 336.45312 60.385414Q335.78125 60.385414 335.26562 61.010414Q334.75 61.635414 334.75 62.83854ZM345.04688 63.916664L346.14062 64.041664Q345.89062 64.99479 345.1875 65.52604Q344.48438 66.05729 343.40625 66.05729Q342.04688 66.05729 341.23438 65.21354Q340.4375 64.36979 340.4375 62.854164Q340.4375 61.291664 341.25 60.43229Q342.0625 59.55729 343.34375 59.55729Q344.59375 59.55729 345.375 60.40104Q346.17188 61.24479 346.17188 62.791664Q346.17188 62.885414 346.17188 63.072914L341.53125 63.072914Q341.59375 64.104164 342.10938 64.65104Q342.625 65.18229 343.40625 65.18229Q343.98438 65.18229 344.39062 64.885414Q344.8125 64.572914 345.04688 63.916664ZM341.59375 62.21354L345.0625 62.21354Q345.0 61.416664 344.67188 61.02604Q344.15625 60.416664 343.35938 60.416664Q342.625 60.416664 342.125 60.90104Q341.64062 61.385414 341.59375 62.21354ZM347.78125 65.916664L347.78125 59.697914L348.73438 59.697914L348.73438 60.635414Q349.09375 59.979164 349.39062 59.77604Q349.70312 59.55729 350.07812 59.55729Q350.60938 59.55729 351.15625 59.885414L350.79688 60.86979Q350.40625 60.635414 350.03125 60.635414Q349.67188 60.635414 349.39062 60.854164Q349.125 61.05729 349.01562 61.43229Q348.82812 61.99479 348.82812 62.65104L348.82812 65.916664L347.78125 65.916664ZM355.85938 65.15104Q355.26562 65.65104 354.71875 65.854164Q354.1875 66.05729 353.5625 66.05729Q352.53125 66.05729 351.98438 65.55729Q351.4375 65.05729 351.4375 64.27604Q351.4375 63.822914 351.64062 63.447914Q351.84375 63.05729 352.1875 62.83854Q352.53125 62.604164 352.95312 62.49479Q353.25 62.40104 353.89062 62.322914Q355.15625 62.18229 355.76562 61.96354Q355.76562 61.74479 355.76562 61.697914Q355.76562 61.041664 355.46875 60.77604Q355.0625 60.43229 354.26562 60.43229Q353.53125 60.43229 353.17188 60.697914Q352.8125 60.947914 352.64062 61.604164L351.60938 61.46354Q351.75 60.80729 352.07812 60.40104Q352.40625 59.99479 353.01562 59.77604Q353.625 59.55729 354.42188 59.55729Q355.21875 59.55729 355.71875 59.74479Q356.21875 59.93229 356.45312 60.21354Q356.6875 60.49479 356.78125 60.93229Q356.82812 61.197914 356.82812 61.90104L356.82812 63.30729Q356.82812 64.77604 356.89062 65.166664Q356.96875 65.55729 357.17188 65.916664L356.0625 65.916664Q355.90625 65.58854 355.85938 65.15104ZM355.76562 62.791664Q355.1875 63.02604 354.04688 63.197914Q353.39062 63.291664 353.125 63.416664Q352.85938 63.52604 352.70312 63.74479Q352.5625 63.96354 352.5625 64.24479Q352.5625 64.666664 352.875 64.947914Q353.20312 65.229164 353.8125 65.229164Q354.42188 65.229164 354.89062 64.96354Q355.375 64.697914 355.59375 64.229164Q355.76562 63.86979 355.76562 63.18229L355.76562 62.791664ZM361.09375 64.979164L361.25 65.90104Q360.79688 65.99479 360.45312 65.99479Q359.875 65.99479 359.5625 65.822914Q359.25 65.635414 359.10938 65.33854Q358.98438 65.041664 358.98438 64.08854L358.98438 60.510414L358.21875 60.510414L358.21875 59.697914L358.98438 59.697914L358.98438 58.15104L360.03125 57.52604L360.03125 59.697914L361.09375 59.697914L361.09375 60.510414L360.03125 60.510414L360.03125 64.15104Q360.03125 64.604164 360.07812 64.729164Q360.14062 64.854164 360.26562 64.93229Q360.39062 65.010414 360.625 65.010414Q360.8125 65.010414 361.09375 64.979164ZM361.79688 58.541664L361.79688 57.322914L362.85938 57.322914L362.85938 58.541664L361.79688 58.541664ZM361.79688 65.916664L361.79688 59.697914L362.85938 59.697914L362.85938 65.916664L361.79688 65.916664ZM364.40625 62.80729Q364.40625 61.072914 365.35938 60.24479Q366.15625 59.55729 367.3125 59.55729Q368.59375 59.55729 369.40625 60.40104Q370.23438 61.229164 370.23438 62.71354Q370.23438 63.916664 369.875 64.604164Q369.51562 65.291664 368.8125 65.68229Q368.125 66.05729 367.3125 66.05729Q366.01562 66.05729 365.20312 65.229164Q364.40625 64.385414 364.40625 62.80729ZM365.48438 62.80729Q365.48438 63.99479 366.0 64.58854Q366.53125 65.18229 367.3125 65.18229Q368.10938 65.18229 368.625 64.58854Q369.14062 63.99479 369.14062 62.77604Q369.14062 61.61979 368.60938 61.02604Q368.09375 60.43229 367.3125 60.43229Q366.53125 60.43229 366.0 61.02604Q365.48438 61.604164 365.48438 62.80729ZM371.79688 65.916664L371.79688 59.697914L372.73438 59.697914L372.73438 60.572914Q373.42188 59.55729 374.71875 59.55729Q375.28125 59.55729 375.75 59.760414Q376.23438 59.96354 376.46875 60.291664Q376.70312 60.61979 376.79688 61.05729Q376.84375 61.354164 376.84375 62.08854L376.84375 65.916664L375.79688 65.916664L375.79688 62.135414Q375.79688 61.479164 375.67188 61.166664Q375.54688 60.854164 375.23438 60.666664Q374.92188 60.46354 374.5 60.46354Q373.82812 60.46354 373.32812 60.90104Q372.84375 61.322914 372.84375 62.510414L372.84375 65.916664L371.79688 65.916664ZM381.79688 68.30729L381.79688 59.697914L382.75 59.697914L382.75 60.49479Q383.09375 60.02604 383.51562 59.791664Q383.95312 59.55729 384.5625 59.55729Q385.35938 59.55729 385.96875 59.96354Q386.57812 60.36979 386.875 61.11979Q387.1875 61.86979 387.1875 62.760414Q387.1875 63.71354 386.84375 64.479164Q386.51562 65.24479 385.85938 65.65104Q385.20312 66.05729 384.48438 66.05729Q383.95312 66.05729 383.53125 65.83854Q383.10938 65.604164 382.84375 65.27604L382.84375 68.30729L381.79688 68.30729ZM382.75 62.83854Q382.75 64.041664 383.23438 64.61979Q383.71875 65.18229 384.40625 65.18229Q385.10938 65.18229 385.60938 64.58854Q386.10938 63.99479 386.10938 62.74479Q386.10938 61.55729 385.625 60.979164Q385.14062 60.385414 384.45312 60.385414Q383.78125 60.385414 383.26562 61.010414Q382.75 61.635414 382.75 62.83854ZM393.04688 63.916664L394.14062 64.041664Q393.89062 64.99479 393.1875 65.52604Q392.48438 66.05729 391.40625 66.05729Q390.04688 66.05729 389.23438 65.21354Q388.4375 64.36979 388.4375 62.854164Q388.4375 61.291664 389.25 60.43229Q390.0625 59.55729 391.34375 59.55729Q392.59375 59.55729 393.375 60.40104Q394.17188 61.24479 394.17188 62.791664Q394.17188 62.885414 394.17188 63.072914L389.53125 63.072914Q389.59375 64.104164 390.10938 64.65104Q390.625 65.18229 391.40625 65.18229Q391.98438 65.18229 392.39062 64.885414Q392.8125 64.572914 393.04688 63.916664ZM389.59375 62.21354L393.0625 62.21354Q393.0 61.416664 392.67188 61.02604Q392.15625 60.416664 391.35938 60.416664Q390.625 60.416664 390.125 60.90104Q389.64062 61.385414 389.59375 62.21354ZM395.78125 65.916664L395.78125 59.697914L396.73438 59.697914L396.73438 60.635414Q397.09375 59.979164 397.39062 59.77604Q397.70312 59.55729 398.07812 59.55729Q398.60938 59.55729 399.15625 59.885414L398.79688 60.86979Q398.40625 60.635414 398.03125 60.635414Q397.67188 60.635414 397.39062 60.854164Q397.125 61.05729 397.01562 61.43229Q396.82812 61.99479 396.82812 62.65104L396.82812 65.916664L395.78125 65.916664ZM402.54688 63.15104L403.60938 63.05729Q403.6875 63.71354 403.96875 64.11979Q404.25 64.52604 404.82812 64.791664Q405.42188 65.041664 406.15625 65.041664Q406.79688 65.041664 407.29688 64.854164Q407.79688 64.65104 408.03125 64.322914Q408.28125 63.979164 408.28125 63.58854Q408.28125 63.18229 408.04688 62.885414Q407.8125 62.572914 407.28125 62.36979Q406.92188 62.229164 405.73438 61.947914Q404.5625 61.666664 404.09375 61.416664Q403.46875 61.08854 403.17188 60.61979Q402.875 60.135414 402.875 59.541664Q402.875 58.90104 403.23438 58.33854Q403.60938 57.760414 404.3125 57.479164Q405.03125 57.18229 405.89062 57.18229Q406.84375 57.18229 407.57812 57.49479Q408.3125 57.791664 408.70312 58.40104Q409.09375 58.99479 409.125 59.74479L408.03125 59.822914Q407.9375 59.010414 407.42188 58.604164Q406.92188 58.18229 405.9375 58.18229Q404.90625 58.18229 404.4375 58.55729Q403.96875 58.93229 403.96875 59.46354Q403.96875 59.93229 404.29688 60.229164Q404.625 60.52604 406.0 60.83854Q407.39062 61.15104 407.90625 61.385414Q408.65625 61.74479 409.01562 62.27604Q409.375 62.791664 409.375 63.49479Q409.375 64.18229 408.98438 64.791664Q408.59375 65.385414 407.85938 65.729164Q407.125 66.05729 406.20312 66.05729Q405.03125 66.05729 404.23438 65.729164Q403.45312 65.385414 403.0 64.697914Q402.5625 64.010414 402.54688 63.15104ZM415.04688 63.916664L416.14062 64.041664Q415.89062 64.99479 415.1875 65.52604Q414.48438 66.05729 413.40625 66.05729Q412.04688 66.05729 411.23438 65.21354Q410.4375 64.36979 410.4375 62.854164Q410.4375 61.291664 411.25 60.43229Q412.0625 59.55729 413.34375 59.55729Q414.59375 59.55729 415.375 60.40104Q416.17188 61.24479 416.17188 62.791664Q416.17188 62.885414 416.17188 63.072914L411.53125 63.072914Q411.59375 64.104164 412.10938 64.65104Q412.625 65.18229 413.40625 65.18229Q413.98438 65.18229 414.39062 64.885414Q414.8125 64.572914 415.04688 63.916664ZM411.59375 62.21354L415.0625 62.21354Q415.0 61.416664 414.67188 61.02604Q414.15625 60.416664 413.35938 60.416664Q412.625 60.416664 412.125 60.90104Q411.64062 61.385414 411.59375 62.21354ZM421.85938 65.15104Q421.26562 65.65104 420.71875 65.854164Q420.1875 66.05729 419.5625 66.05729Q418.53125 66.05729 417.98438 65.55729Q417.4375 65.05729 417.4375 64.27604Q417.4375 63.822914 417.64062 63.447914Q417.84375 63.05729 418.1875 62.83854Q418.53125 62.604164 418.95312 62.49479Q419.25 62.40104 419.89062 62.322914Q421.15625 62.18229 421.76562 61.96354Q421.76562 61.74479 421.76562 61.697914Q421.76562 61.041664 421.46875 60.77604Q421.0625 60.43229 420.26562 60.43229Q419.53125 60.43229 419.17188 60.697914Q418.8125 60.947914 418.64062 61.604164L417.60938 61.46354Q417.75 60.80729 418.07812 60.40104Q418.40625 59.99479 419.01562 59.77604Q419.625 59.55729 420.42188 59.55729Q421.21875 59.55729 421.71875 59.74479Q422.21875 59.93229 422.45312 60.21354Q422.6875 60.49479 422.78125 60.93229Q422.82812 61.197914 422.82812 61.90104L422.82812 63.30729Q422.82812 64.77604 422.89062 65.166664Q422.96875 65.55729 423.17188 65.916664L422.0625 65.916664Q421.90625 65.58854 421.85938 65.15104ZM421.76562 62.791664Q421.1875 63.02604 420.04688 63.197914Q419.39062 63.291664 419.125 63.416664Q418.85938 63.52604 418.70312 63.74479Q418.5625 63.96354 418.5625 64.24479Q418.5625 64.666664 418.875 64.947914Q419.20312 65.229164 419.8125 65.229164Q420.42188 65.229164 420.89062 64.96354Q421.375 64.697914 421.59375 64.229164Q421.76562 63.86979 421.76562 63.18229L421.76562 62.791664ZM424.78125 65.916664L424.78125 59.697914L425.73438 59.697914L425.73438 60.635414Q426.09375 59.979164 426.39062 59.77604Q426.70312 59.55729 427.07812 59.55729Q427.60938 59.55729 428.15625 59.885414L427.79688 60.86979Q427.40625 60.635414 427.03125 60.635414Q426.67188 60.635414 426.39062 60.854164Q426.125 61.05729 426.01562 61.43229Q425.82812 61.99479 425.82812 62.65104L425.82812 65.916664L424.78125 65.916664ZM432.85938 63.635414L433.89062 63.77604Q433.71875 64.83854 433.01562 65.447914Q432.3125 66.05729 431.29688 66.05729Q430.01562 66.05729 429.23438 65.229164Q428.46875 64.385414 428.46875 62.822914Q428.46875 61.822914 428.79688 61.072914Q429.14062 60.30729 429.8125 59.93229Q430.5 59.55729 431.3125 59.55729Q432.3125 59.55729 432.95312 60.072914Q433.60938 60.572914 433.79688 61.52604L432.76562 61.68229Q432.625 61.05729 432.25 60.74479Q431.875 60.416664 431.34375 60.416664Q430.54688 60.416664 430.04688 60.99479Q429.54688 61.55729 429.54688 62.791664Q429.54688 64.05729 430.03125 64.61979Q430.51562 65.18229 431.28125 65.18229Q431.90625 65.18229 432.3125 64.80729Q432.73438 64.43229 432.85938 63.635414ZM434.79688 65.916664L434.79688 57.322914L435.84375 57.322914L435.84375 60.40104Q436.57812 59.55729 437.70312 59.55729Q438.40625 59.55729 438.90625 59.83854Q439.42188 60.104164 439.64062 60.58854Q439.85938 61.05729 439.85938 61.979164L439.85938 65.916664L438.8125 65.916664L438.8125 61.979164Q438.8125 61.18229 438.46875 60.822914Q438.125 60.46354 437.5 60.46354Q437.03125 60.46354 436.60938 60.71354Q436.20312 60.947914 436.01562 61.36979Q435.84375 61.77604 435.84375 62.510414L435.84375 65.916664L434.79688 65.916664Z" fill-rule="nonzero"/><path fill="#000000" d="M14.01875 29.55L14.01875 15.237499L23.846874 15.237499L23.846874 17.659374L16.909374 17.659374L16.909374 21.05L22.89375 21.05L22.89375 23.471874L16.909374 23.471874L16.909374 29.55L14.01875 29.55ZM25.925 29.55L25.925 15.237499L28.815624 15.237499L28.815624 29.55L25.925 29.55ZM31.08125 29.55L31.08125 15.346874L33.971874 15.346874L33.971874 27.14375L41.159374 27.14375L41.159374 29.55L31.08125 29.55ZM43.003124 29.55L43.003124 15.237499L53.628124 15.237499L53.628124 17.659374L45.89375 17.659374L45.89375 20.83125L53.08125 20.83125L53.08125 23.2375L45.89375 23.2375L45.89375 27.14375L53.89375 27.14375L53.89375 29.55L43.003124 29.55ZM68.425 29.55L65.675 29.55L65.675 19.20625Q64.175 20.6125 62.128124 21.284374L62.128124 18.8Q63.20625 18.440624 64.45625 17.471874Q65.72188 16.4875 66.19063 15.174999L68.425 15.174999L68.425 29.55ZM77.03438 15.174999Q79.1125 15.174999 80.28438 16.659374Q81.69063 18.409374 81.69063 22.4875Q81.69063 26.55 80.28438 28.33125Q79.1125 29.8 77.03438 29.8Q74.95625 29.8 73.675 28.190624Q72.39375 26.58125 72.39375 22.45625Q72.39375 18.409374 73.8 16.64375Q74.95625 15.174999 77.03438 15.174999ZM77.03438 17.45625Q76.53438 17.45625 76.14375 17.76875Q75.75313 18.08125 75.55 18.909374Q75.26875 19.971874 75.26875 22.4875Q75.26875 25.003124 75.51875 25.95625Q75.76875 26.89375 76.14375 27.20625Q76.53438 27.51875 77.03438 27.51875Q77.53438 27.51875 77.925 27.20625Q78.31563 26.878124 78.53438 26.065624Q78.81563 25.003124 78.81563 22.4875Q78.81563 19.971874 78.56563 19.034374Q78.31563 18.08125 77.925 17.76875Q77.53438 17.45625 77.03438 17.45625Z" fill-rule="nonzero"/></svg>