<svg version="1.1" viewBox="0.0 0.0 600.0 371.0" fill="none" stroke="none" stroke-linecap="square" stroke-miterlimit="10" width="600" height="371" xmlns:xlink="http://www.w3.org/1999/xlink" xmlns="http://www.w3.org/2000/svg"><path fill="#ffffff" d="M0 0L600.0 0L600.0 371.0L0 371.0L0 0Z" fill-rule="nonzero"/><path stroke="#333333" stroke-width="1.0" stroke-linecap="butt" d="M83.5 302.5L581.5 302.5" fill-rule="nonzero"/><path stroke="#cccccc" stroke-width="1.0" stroke-linecap="butt" d="M83.5 281.5L581.5 281.5" fill-rule="nonzero"/><path stroke="#cccccc" stroke-width="1.0" stroke-linecap="butt" d="M83.5 259.5L581.5 259.5" fill-rule="nonzero"/><path stroke="#cccccc" stroke-width="1.0" stroke-linecap="butt" d="M83.5 238.5L581.5 238.5" fill-rule="nonzero"/><path stroke="#cccccc" stroke-width="1.0" stroke-linecap="butt" d="M83.5 216.5L581.5 216.5" fill-rule="nonzero"/><path stroke="#cccccc" stroke-width="1.0" stroke-linecap="butt" d="M83.5 195.5L581.5 195.5" fill-rule="nonzero"/><path stroke="#cccccc" stroke-width="1.0" stroke-linecap="butt" d="M83.5 173.5L581.5 173.5" fill-rule="nonzero"/><path stroke="#cccccc" stroke-width="1.0" stroke-linecap="butt" d="M83.5 152.5L581.5 152.5" fill-rule="nonzero"/><path stroke="#cccccc" stroke-width="1.0" stroke-linecap="butt" d="M83.5 131.5L581.5 131.5" fill-rule="nonzero"/><path stroke="#cccccc" stroke-width="1.0" stroke-linecap="butt" d="M83.5 109.5L581.5 109.5" fill-rule="nonzero"/><path stroke="#cccccc" stroke-width="1.0" stroke-linecap="butt" d="M83.5 88.5L581.5 88.5" fill-rule="nonzero"/><path stroke="#000000" stroke-width="1.0" stroke-linecap="butt" stroke-opacity="0.0" d="M83.5 295.5L581.5 295.5" fill-rule="nonzero"/><path stroke="#000000" stroke-width="1.0" stroke-linecap="butt" stroke-opacity="0.0" d="M83.5 288.5L581.5 288.5" fill-rule="nonzero"/><path stroke="#000000" stroke-width="1.0" stroke-linecap="butt" stroke-opacity="0.0" d="M83.5 273.5L581.5 273.5" fill-rule="nonzero"/><path stroke="#000000" stroke-width="1.0" stroke-linecap="butt" stroke-opacity="0.0" d="M83.5 266.5L581.5 266.5" fill-rule="nonzero"/><path stroke="#000000" stroke-width="1.0" stroke-linecap="butt" stroke-opacity="0.0" d="M83.5 252.5L581.5 252.5" fill-rule="nonzero"/><path stroke="#000000" stroke-width="1.0" stroke-linecap="butt" stroke-opacity="0.0" d="M83.5 245.5L581.5 245.5" fill-rule="nonzero"/><path stroke="#000000" stroke-width="1.0" stroke-linecap="butt" stroke-opacity="0.0" d="M83.5 231.5L581.5 231.5" fill-rule="nonzero"/><path stroke="#000000" stroke-width="1.0" stroke-linecap="butt" stroke-opacity="0.0" d="M83.5 223.5L581.5 223.5" fill-rule="nonzero"/><path stroke="#000000" stroke-width="1.0" stroke-linecap="butt" stroke-opacity="0.0" d="M83.5 209.5L581.5 209.5" fill-rule="nonzero"/><path stroke="#000000" stroke-width="1.0" stroke-linecap="butt" stroke-opacity="0.0" d="M83.5 202.5L581.5 202.5" fill-rule="nonzero"/><path stroke="#000000" stroke-width="1.0" stroke-linecap="butt" stroke-opacity="0.0" d="M83.5 188.5L581.5 188.5" fill-rule="nonzero"/><path stroke="#000000" stroke-width="1.0" stroke-linecap="butt" stroke-opacity="0.0" d="M83.5 181.5L581.5 181.5" fill-rule="nonzero"/><path stroke="#000000" stroke-width="1.0" stroke-linecap="butt" stroke-opacity="0.0" d="M83.5 166.5L581.5 166.5" fill-rule="nonzero"/><path stroke="#000000" stroke-width="1.0" stroke-linecap="butt" stroke-opacity="0.0" d="M83.5 159.5L581.5 159.5" fill-rule="nonzero"/><path stroke="#000000" stroke-width="1.0" stroke-linecap="butt" stroke-opacity="0.0" d="M83.5 145.5L581.5 145.5" fill-rule="nonzero"/><path stroke="#000000" stroke-width="1.0" stroke-linecap="butt" stroke-opacity="0.0" d="M83.5 138.5L581.5 138.5" fill-rule="nonzero"/><path stroke="#000000" stroke-width="1.0" stroke-linecap="butt" stroke-opacity="0.0" d="M83.5 123.5L581.5 123.5" fill-rule="nonzero"/><path stroke="#000000" stroke-width="1.0" stroke-linecap="butt" stroke-opacity="0.0" d="M83.5 116.5L581.5 116.5" fill-rule="nonzero"/><path stroke="#000000" stroke-width="1.0" stroke-linecap="butt" stroke-opacity="0.0" d="M83.5 102.5L581.5 102.5" fill-rule="nonzero"/><path stroke="#000000" stroke-width="1.0" stroke-linecap="butt" stroke-opacity="0.0" d="M83.5 95.5L581.5 95.5" fill-rule="nonzero"/><path stroke="#000000" stroke-width="1.0" stroke-linecap="butt" d="M83.5 302.5L83.5 88.5" fill-rule="nonzero"/><clipPath id="id_0"><path d="M83.55 88.28333L581.45 88.28333L581.45 302.45L83.55 302.45L83.55 88.28333Z" clip-rule="nonzero"/></clipPath><path stroke="#000000" stroke-width="2.0" stroke-linecap="butt" stroke-opacity="0.0" clip-path="url(#id_0)" d="M148.0 302.0L125.0 302.0L125.0 112.0C125.0 110.89543 125.89543 110.0 127.0 110.0L146.0 110.0C147.10457 110.0 148.0 110.89543 148.0 112.0Z" fill-rule="nonzero"/><path fill="#4285f4" clip-path="url(#id_0)" d="M148.0 302.0L125.0 302.0L125.0 112.0C125.0 110.89543 125.89543 110.0 127.0 110.0L146.0 110.0C147.10457 110.0 148.0 110.89543 148.0 112.0Z" fill-rule="nonzero"/><path stroke="#000000" stroke-width="2.0" stroke-linecap="butt" stroke-opacity="0.0" clip-path="url(#id_0)" d="M262.0 302.0L239.0 302.0L239.0 227.0C239.0 225.89543 239.89543 225.0 241.0 225.0L260.0 225.0C261.10458 225.0 262.0 225.89543 262.0 227.0Z" fill-rule="nonzero"/><path fill="#4285f4" clip-path="url(#id_0)" d="M262.0 302.0L239.0 302.0L239.0 227.0C239.0 225.89543 239.89543 225.0 241.0 225.0L260.0 225.0C261.10458 225.0 262.0 225.89543 262.0 227.0Z" fill-rule="nonzero"/><path stroke="#000000" stroke-width="2.0" stroke-linecap="butt" stroke-opacity="0.0" clip-path="url(#id_0)" d="M377.0 302.0L354.0 302.0L354.0 266.0C354.0 264.89542 354.89542 264.0 356.0 264.0L375.0 264.0C376.10458 264.0 377.0 264.89542 377.0 266.0Z" fill-rule="nonzero"/><path fill="#4285f4" clip-path="url(#id_0)" d="M377.0 302.0L354.0 302.0L354.0 266.0C354.0 264.89542 354.89542 264.0 356.0 264.0L375.0 264.0C376.10458 264.0 377.0 264.89542 377.0 266.0Z" fill-rule="nonzero"/><path stroke="#000000" stroke-width="2.0" stroke-linecap="butt" stroke-opacity="0.0" clip-path="url(#id_0)" d="M491.0 302.0L468.0 302.0L468.0 285.0C468.0 283.89542 468.89542 283.0 470.0 283.0L489.0 283.0C490.10458 283.0 491.0 283.89542 491.0 285.0Z" fill-rule="nonzero"/><path fill="#4285f4" clip-path="url(#id_0)" d="M491.0 302.0L468.0 302.0L468.0 285.0C468.0 283.89542 468.89542 283.0 470.0 283.0L489.0 283.0C490.10458 283.0 491.0 283.89542 491.0 285.0Z" fill-rule="nonzero"/><path stroke="#000000" stroke-width="2.0" stroke-linecap="butt" stroke-opacity="0.0" clip-path="url(#id_0)" d="M173.0 302.0L150.0 302.0L150.0 91.0C150.0 89.89543 150.89543 89.0 152.0 89.0L171.0 89.0C172.10457 89.0 173.0 89.89543 173.0 91.0Z" fill-rule="nonzero"/><path fill="#ea4335" clip-path="url(#id_0)" d="M173.0 302.0L150.0 302.0L150.0 91.0C150.0 89.89543 150.89543 89.0 152.0 89.0L171.0 89.0C172.10457 89.0 173.0 89.89543 173.0 91.0Z" fill-rule="nonzero"/><path stroke="#000000" stroke-width="2.0" stroke-linecap="butt" stroke-opacity="0.0" clip-path="url(#id_0)" d="M287.0 302.0L264.0 302.0L264.0 219.0C264.0 217.89543 264.89542 217.0 266.0 217.0L285.0 217.0C286.10458 217.0 287.0 217.89543 287.0 219.0Z" fill-rule="nonzero"/><path fill="#ea4335" clip-path="url(#id_0)" d="M287.0 302.0L264.0 302.0L264.0 219.0C264.0 217.89543 264.89542 217.0 266.0 217.0L285.0 217.0C286.10458 217.0 287.0 217.89543 287.0 219.0Z" fill-rule="nonzero"/><path stroke="#000000" stroke-width="2.0" stroke-linecap="butt" stroke-opacity="0.0" clip-path="url(#id_0)" d="M402.0 302.0L379.0 302.0L379.0 262.0C379.0 260.89542 379.89542 260.0 381.0 260.0L400.0 260.0C401.10458 260.0 402.0 260.89542 402.0 262.0Z" fill-rule="nonzero"/><path fill="#ea4335" clip-path="url(#id_0)" d="M402.0 302.0L379.0 302.0L379.0 262.0C379.0 260.89542 379.89542 260.0 381.0 260.0L400.0 260.0C401.10458 260.0 402.0 260.89542 402.0 262.0Z" fill-rule="nonzero"/><path stroke="#000000" stroke-width="2.0" stroke-linecap="butt" stroke-opacity="0.0" clip-path="url(#id_0)" d="M516.0 302.0L493.0 302.0L493.0 283.0C493.0 281.89542 493.89542 281.0 495.0 281.0L514.0 281.0C515.10455 281.0 516.0 281.89542 516.0 283.0Z" fill-rule="nonzero"/><path fill="#ea4335" clip-path="url(#id_0)" d="M516.0 302.0L493.0 302.0L493.0 283.0C493.0 281.89542 493.89542 281.0 495.0 281.0L514.0 281.0C515.10455 281.0 516.0 281.89542 516.0 283.0Z" fill-rule="nonzero"/><path stroke="#000000" stroke-width="2.0" stroke-linecap="butt" stroke-opacity="0.0" clip-path="url(#id_0)" d="M198.0 302.0L175.0 302.0L175.0 94.0C175.0 92.89543 175.89543 92.0 177.0 92.0L196.0 92.0C197.10457 92.0 198.0 92.89543 198.0 94.0Z" fill-rule="nonzero"/><path fill="#fbbc04" clip-path="url(#id_0)" d="M198.0 302.0L175.0 302.0L175.0 94.0C175.0 92.89543 175.89543 92.0 177.0 92.0L196.0 92.0C197.10457 92.0 198.0 92.89543 198.0 94.0Z" fill-rule="nonzero"/><path stroke="#000000" stroke-width="2.0" stroke-linecap="butt" stroke-opacity="0.0" clip-path="url(#id_0)" d="M312.0 302.0L289.0 302.0L289.0 220.0C289.0 218.89543 289.89542 218.0 291.0 218.0L310.0 218.0C311.10458 218.0 312.0 218.89543 312.0 220.0Z" fill-rule="nonzero"/><path fill="#fbbc04" clip-path="url(#id_0)" d="M312.0 302.0L289.0 302.0L289.0 220.0C289.0 218.89543 289.89542 218.0 291.0 218.0L310.0 218.0C311.10458 218.0 312.0 218.89543 312.0 220.0Z" fill-rule="nonzero"/><path stroke="#000000" stroke-width="2.0" stroke-linecap="butt" stroke-opacity="0.0" clip-path="url(#id_0)" d="M427.0 302.0L404.0 302.0L404.0 262.0C404.0 260.89542 404.89542 260.0 406.0 260.0L425.0 260.0C426.10458 260.0 427.0 260.89542 427.0 262.0Z" fill-rule="nonzero"/><path fill="#fbbc04" clip-path="url(#id_0)" d="M427.0 302.0L404.0 302.0L404.0 262.0C404.0 260.89542 404.89542 260.0 406.0 260.0L425.0 260.0C426.10458 260.0 427.0 260.89542 427.0 262.0Z" fill-rule="nonzero"/><path stroke="#000000" stroke-width="2.0" stroke-linecap="butt" stroke-opacity="0.0" clip-path="url(#id_0)" d="M541.0 302.0L518.0 302.0L518.0 283.0C518.0 281.89542 518.89545 281.0 520.0 281.0L539.0 281.0C540.10455 281.0 541.0 281.89542 541.0 283.0Z" fill-rule="nonzero"/><path fill="#fbbc04" clip-path="url(#id_0)" d="M541.0 302.0L518.0 302.0L518.0 283.0C518.0 281.89542 518.89545 281.0 520.0 281.0L539.0 281.0C540.10455 281.0 541.0 281.89542 541.0 283.0Z" fill-rule="nonzero"/><path stroke="#000000" stroke-width="1.0" stroke-linecap="butt" d="M77.5 302.5L89.5 302.5" fill-rule="nonzero"/><path stroke="#000000" stroke-width="1.0" stroke-linecap="butt" d="M77.5 281.5L89.5 281.5" fill-rule="nonzero"/><path stroke="#000000" stroke-width="1.0" stroke-linecap="butt" d="M77.5 259.5L89.5 259.5" fill-rule="nonzero"/><path stroke="#000000" stroke-width="1.0" stroke-linecap="butt" d="M77.5 238.5L89.5 238.5" fill-rule="nonzero"/><path stroke="#000000" stroke-width="1.0" stroke-linecap="butt" d="M77.5 216.5L89.5 216.5" fill-rule="nonzero"/><path stroke="#000000" stroke-width="1.0" stroke-linecap="butt" d="M77.5 195.5L89.5 195.5" fill-rule="nonzero"/><path stroke="#000000" stroke-width="1.0" stroke-linecap="butt" d="M77.5 173.5L89.5 173.5" fill-rule="nonzero"/><path stroke="#000000" stroke-width="1.0" stroke-linecap="butt" d="M77.5 152.5L89.5 152.5" fill-rule="nonzero"/><path stroke="#000000" stroke-width="1.0" stroke-linecap="butt" d="M77.5 131.5L89.5 131.5" fill-rule="nonzero"/><path stroke="#000000" stroke-width="1.0" stroke-linecap="butt" d="M77.5 109.5L89.5 109.5" fill-rule="nonzero"/><path stroke="#000000" stroke-width="1.0" stroke-linecap="butt" d="M77.5 88.5L89.5 88.5" fill-rule="nonzero"/><path fill="#000000" d="M266.43262 340.45L266.43262 331.85626L267.58887 331.85626L272.1045 338.60626L272.1045 331.85626L273.19824 331.85626L273.19824 340.45L272.02637 340.45L267.51074 333.7L267.51074 340.45L266.43262 340.45ZM279.38574 340.45L279.38574 339.52814Q278.65137 340.59064 277.40137 340.59064Q276.8545 340.59064 276.37012 340.3875Q275.90137 340.16876 275.667 339.85626Q275.43262 339.52814 275.33887 339.0594Q275.27637 338.7625 275.27637 338.075L275.27637 334.23126L276.33887 334.23126L276.33887 337.6844Q276.33887 338.4969 276.40137 338.79376Q276.49512 339.2 276.80762 339.45Q277.13574 339.6844 277.62012 339.6844Q278.08887 339.6844 278.49512 339.45Q278.917 339.2 279.08887 338.77814Q279.27637 338.35626 279.27637 337.5594L279.27637 334.23126L280.32324 334.23126L280.32324 340.45L279.38574 340.45ZM282.30762 340.45L282.30762 334.23126L283.24512 334.23126L283.24512 335.10626Q283.542 334.6375 284.02637 334.3719Q284.51074 334.09064 285.13574 334.09064Q285.82324 334.09064 286.26074 334.3719Q286.71387 334.65314 286.88574 335.16876Q287.63574 334.09064 288.80762 334.09064Q289.74512 334.09064 290.2295 334.60626Q290.7295 335.10626 290.7295 336.1844L290.7295 340.45L289.68262 340.45L289.68262 336.52814Q289.68262 335.90314 289.57324 335.6219Q289.4795 335.34064 289.21387 335.16876Q288.94824 334.9969 288.57324 334.9969Q287.917 334.9969 287.4795 335.4344Q287.05762 335.8719 287.05762 336.84064L287.05762 340.45L285.99512 340.45L285.99512 336.40314Q285.99512 335.7 285.7295 335.35626Q285.4795 334.9969 284.90137 334.9969Q284.44824 334.9969 284.07324 335.23126Q283.69824 335.46564 283.52637 335.91876Q283.3545 336.3719 283.3545 337.21564L283.3545 340.45L282.30762 340.45ZM294.27637 340.45L293.292 340.45L293.292 331.85626L294.3545 331.85626L294.3545 334.91876Q295.02637 334.09064 296.05762 334.09064Q296.63574 334.09064 297.13574 334.325Q297.65137 334.54376 297.9795 334.96564Q298.32324 335.3875 298.51074 335.98126Q298.69824 336.575 298.69824 337.2469Q298.69824 338.84064 297.90137 339.71564Q297.1045 340.59064 296.01074 340.59064Q294.90137 340.59064 294.27637 339.66876L294.27637 340.45ZM294.26074 337.29376Q294.26074 338.40314 294.57324 338.90314Q295.07324 339.71564 295.917 339.71564Q296.6045 339.71564 297.1045 339.1219Q297.62012 338.52814 297.62012 337.325Q297.62012 336.10626 297.13574 335.52814Q296.65137 334.95 295.96387 334.95Q295.27637 334.95 294.76074 335.5594Q294.26074 336.15314 294.26074 337.29376ZM304.55762 338.45L305.65137 338.575Q305.40137 339.52814 304.69824 340.0594Q303.99512 340.59064 302.917 340.59064Q301.55762 340.59064 300.74512 339.7469Q299.94824 338.90314 299.94824 337.3875Q299.94824 335.825 300.76074 334.96564Q301.57324 334.09064 302.8545 334.09064Q304.1045 334.09064 304.88574 334.9344Q305.68262 335.77814 305.68262 337.325Q305.68262 337.41876 305.68262 337.60626L301.042 337.60626Q301.1045 338.6375 301.62012 339.1844Q302.13574 339.71564 302.917 339.71564Q303.49512 339.71564 303.90137 339.41876Q304.32324 339.10626 304.55762 338.45ZM301.1045 336.7469L304.57324 336.7469Q304.51074 335.95 304.18262 335.5594Q303.667 334.95 302.87012 334.95Q302.13574 334.95 301.63574 335.4344Q301.15137 335.91876 301.1045 336.7469ZM307.292 340.45L307.292 334.23126L308.24512 334.23126L308.24512 335.16876Q308.6045 334.5125 308.90137 334.3094Q309.21387 334.09064 309.58887 334.09064Q310.12012 334.09064 310.667 334.41876L310.30762 335.40314Q309.917 335.16876 309.542 335.16876Q309.18262 335.16876 308.90137 335.3875Q308.63574 335.59064 308.52637 335.96564Q308.33887 336.52814 308.33887 337.1844L308.33887 340.45L307.292 340.45ZM314.08887 336.2625Q314.08887 334.1219 315.2295 332.91876Q316.38574 331.7 318.19824 331.7Q319.40137 331.7 320.3545 332.27814Q321.30762 332.84064 321.80762 333.85626Q322.30762 334.8719 322.30762 336.16876Q322.30762 337.46564 321.77637 338.4969Q321.24512 339.52814 320.27637 340.0594Q319.32324 340.59064 318.19824 340.59064Q316.9795 340.59064 316.02637 340.0125Q315.07324 339.41876 314.57324 338.41876Q314.08887 337.40314 314.08887 336.2625ZM315.26074 336.27814Q315.26074 337.84064 316.08887 338.73126Q316.93262 339.6219 318.19824 339.6219Q319.4795 339.6219 320.30762 338.73126Q321.13574 337.825 321.13574 336.15314Q321.13574 335.10626 320.77637 334.325Q320.43262 333.54376 319.74512 333.1219Q319.05762 332.6844 318.21387 332.6844Q317.01074 332.6844 316.13574 333.5125Q315.26074 334.34064 315.26074 336.27814ZM323.55762 340.45L323.55762 335.04376L322.62012 335.04376L322.62012 334.23126L323.55762 334.23126L323.55762 333.5594Q323.55762 332.9344 323.667 332.6375Q323.82324 332.21564 324.19824 331.96564Q324.58887 331.71564 325.27637 331.71564Q325.7295 331.71564 326.26074 331.825L326.1045 332.73126Q325.77637 332.6844 325.4795 332.6844Q324.99512 332.6844 324.792 332.8875Q324.6045 333.09064 324.6045 333.65314L324.6045 334.23126L325.82324 334.23126L325.82324 335.04376L324.6045 335.04376L324.6045 340.45L323.55762 340.45ZM329.38574 340.45L329.38574 331.85626L332.62012 331.85626Q333.6045 331.85626 334.19824 332.1219Q334.792 332.3875 335.12012 332.9344Q335.46387 333.46564 335.46387 334.0594Q335.46387 334.60626 335.167 335.09064Q334.87012 335.575 334.26074 335.8719Q335.042 336.10626 335.44824 336.66876Q335.87012 337.21564 335.87012 337.96564Q335.87012 338.5594 335.62012 339.09064Q335.37012 339.60626 334.99512 339.8875Q334.62012 340.16876 334.042 340.3094Q333.4795 340.45 332.667 340.45L329.38574 340.45ZM330.52637 335.46564L332.38574 335.46564Q333.13574 335.46564 333.46387 335.3719Q333.90137 335.2469 334.12012 334.95Q334.33887 334.6375 334.33887 334.1844Q334.33887 333.7625 334.13574 333.4344Q333.93262 333.10626 333.542 332.9969Q333.167 332.8719 332.24512 332.8719L330.52637 332.8719L330.52637 335.46564ZM330.52637 339.4344L332.667 339.4344Q333.21387 339.4344 333.43262 339.3875Q333.83887 339.325 334.08887 339.16876Q334.3545 338.9969 334.52637 338.6844Q334.69824 338.3719 334.69824 337.96564Q334.69824 337.48126 334.44824 337.1219Q334.21387 336.7625 333.77637 336.6219Q333.33887 336.48126 332.51074 336.48126L330.52637 336.48126L330.52637 339.4344ZM341.38574 340.45L341.38574 339.52814Q340.65137 340.59064 339.40137 340.59064Q338.8545 340.59064 338.37012 340.3875Q337.90137 340.16876 337.667 339.85626Q337.43262 339.52814 337.33887 339.0594Q337.27637 338.7625 337.27637 338.075L337.27637 334.23126L338.33887 334.23126L338.33887 337.6844Q338.33887 338.4969 338.40137 338.79376Q338.49512 339.2 338.80762 339.45Q339.13574 339.6844 339.62012 339.6844Q340.08887 339.6844 340.49512 339.45Q340.917 339.2 341.08887 338.77814Q341.27637 338.35626 341.27637 337.5594L341.27637 334.23126L342.32324 334.23126L342.32324 340.45L341.38574 340.45ZM348.37012 338.16876L349.40137 338.3094Q349.2295 339.3719 348.52637 339.98126Q347.82324 340.59064 346.80762 340.59064Q345.52637 340.59064 344.74512 339.7625Q343.9795 338.91876 343.9795 337.35626Q343.9795 336.35626 344.30762 335.60626Q344.65137 334.84064 345.32324 334.46564Q346.01074 334.09064 346.82324 334.09064Q347.82324 334.09064 348.46387 334.60626Q349.12012 335.10626 349.30762 336.0594L348.27637 336.21564Q348.13574 335.59064 347.76074 335.27814Q347.38574 334.95 346.8545 334.95Q346.05762 334.95 345.55762 335.52814Q345.05762 336.09064 345.05762 337.325Q345.05762 338.59064 345.542 339.15314Q346.02637 339.71564 346.792 339.71564Q347.417 339.71564 347.82324 339.34064Q348.24512 338.96564 348.37012 338.16876ZM350.30762 340.45L350.30762 331.85626L351.37012 331.85626L351.37012 336.7625L353.8545 334.23126L355.2295 334.23126L352.83887 336.52814L355.46387 340.45L354.167 340.45L352.1045 337.2625L351.37012 337.98126L351.37012 340.45L350.30762 340.45ZM360.55762 338.45L361.65137 338.575Q361.40137 339.52814 360.69824 340.0594Q359.99512 340.59064 358.917 340.59064Q357.55762 340.59064 356.74512 339.7469Q355.94824 338.90314 355.94824 337.3875Q355.94824 335.825 356.76074 334.96564Q357.57324 334.09064 358.8545 334.09064Q360.1045 334.09064 360.88574 334.9344Q361.68262 335.77814 361.68262 337.325Q361.68262 337.41876 361.68262 337.60626L357.042 337.60626Q357.1045 338.6375 357.62012 339.1844Q358.13574 339.71564 358.917 339.71564Q359.49512 339.71564 359.90137 339.41876Q360.32324 339.10626 360.55762 338.45ZM357.1045 336.7469L360.57324 336.7469Q360.51074 335.95 360.18262 335.5594Q359.667 334.95 358.87012 334.95Q358.13574 334.95 357.63574 335.4344Q357.15137 335.91876 357.1045 336.7469ZM365.6045 339.5125L365.76074 340.4344Q365.30762 340.52814 364.96387 340.52814Q364.38574 340.52814 364.07324 340.35626Q363.76074 340.16876 363.62012 339.8719Q363.49512 339.575 363.49512 338.6219L363.49512 335.04376L362.7295 335.04376L362.7295 334.23126L363.49512 334.23126L363.49512 332.6844L364.542 332.0594L364.542 334.23126L365.6045 334.23126L365.6045 335.04376L364.542 335.04376L364.542 338.6844Q364.542 339.1375 364.58887 339.2625Q364.65137 339.3875 364.77637 339.46564Q364.90137 339.54376 365.13574 339.54376Q365.32324 339.54376 365.6045 339.5125ZM365.88574 338.59064L366.917 338.4344Q367.01074 339.0594 367.40137 339.3875Q367.80762 339.71564 368.542 339.71564Q369.26074 339.71564 369.6045 339.4344Q369.96387 339.1375 369.96387 338.73126Q369.96387 338.3719 369.65137 338.16876Q369.43262 338.02814 368.57324 337.8094Q367.417 337.5125 366.96387 337.3094Q366.52637 337.09064 366.292 336.71564Q366.05762 336.34064 366.05762 335.8719Q366.05762 335.46564 366.24512 335.10626Q366.43262 334.7469 366.76074 334.5125Q367.01074 334.34064 367.43262 334.21564Q367.8545 334.09064 368.3545 334.09064Q369.07324 334.09064 369.62012 334.3094Q370.18262 334.5125 370.44824 334.8719Q370.71387 335.23126 370.80762 335.825L369.77637 335.96564Q369.71387 335.4969 369.37012 335.23126Q369.042 334.95 368.417 334.95Q367.69824 334.95 367.38574 335.2Q367.07324 335.4344 367.07324 335.7625Q367.07324 335.96564 367.19824 336.1219Q367.33887 336.29376 367.6045 336.40314Q367.76074 336.46564 368.542 336.66876Q369.667 336.98126 370.1045 337.16876Q370.542 337.35626 370.792 337.71564Q371.042 338.075 371.042 338.6219Q371.042 339.15314 370.7295 339.6219Q370.43262 340.075 369.8545 340.34064Q369.27637 340.59064 368.542 340.59064Q367.32324 340.59064 366.68262 340.09064Q366.05762 339.575 365.88574 338.59064Z" fill-rule="nonzero"/><path fill="#000000" d="M29.550013 264.47604L20.956263 264.47604L20.956263 262.78854L26.690638 259.27292L20.956263 259.27292L20.956263 257.66354L29.550013 257.66354L29.550013 259.39792L23.940638 262.86667L29.550013 262.86667L29.550013 264.47604ZM29.550013 252.41354L28.612513 252.41354Q29.112513 252.74167 29.409388 253.30417Q29.690638 253.85104 29.690638 254.47604Q29.690638 255.10104 29.425013 255.60104Q29.143763 256.10104 28.643763 256.3198Q28.143763 256.53854 27.268763 256.53854L23.331263 256.53854L23.331263 254.89792L26.190638 254.89792Q27.503138 254.89792 27.800013 254.80417Q28.096888 254.71042 28.268763 254.47604Q28.440638 254.22604 28.440638 253.86667Q28.440638 253.4448 28.206263 253.11667Q27.971888 252.77292 27.628138 252.64792Q27.284388 252.52292 25.956263 252.52292L23.331263 252.52292L23.331263 250.8823L29.550013 250.8823L29.550013 252.41354ZM23.331263 249.6323L23.331263 248.11667L24.175013 248.11667Q23.190638 247.28854 23.190638 246.16354Q23.190638 245.5698 23.440638 245.1323Q23.675013 244.6948 24.175013 244.41354Q23.675013 244.0073 23.440638 243.53854Q23.190638 243.05417 23.190638 242.5073Q23.190638 241.83542 23.471888 241.36667Q23.737513 240.8823 24.284388 240.64792Q24.675013 240.47604 25.565638 240.47604L29.550013 240.47604L29.550013 242.11667L25.987513 242.11667Q25.065638 242.11667 24.800013 242.28854Q24.440638 242.52292 24.440638 242.99167Q24.440638 243.33542 24.659388 243.64792Q24.862513 243.9448 25.268763 244.08542Q25.675013 244.22604 26.565638 244.22604L29.550013 244.22604L29.550013 245.86667L26.143763 245.86667Q25.237513 245.86667 24.971888 245.96042Q24.706263 246.03854 24.581263 246.22604Q24.440638 246.41354 24.440638 246.72604Q24.440638 247.10104 24.659388 247.41354Q24.862513 247.71042 25.253138 247.85104Q25.628138 247.97604 26.518763 247.97604L29.550013 247.97604L29.550013 249.6323L23.331263 249.6323ZM29.550013 238.5698L20.956263 238.5698L20.956263 236.92917L24.050013 236.92917Q23.190638 236.16354 23.190638 235.11667Q23.190638 233.99167 24.018763 233.24167Q24.831263 232.49167 26.378138 232.49167Q27.971888 232.49167 28.831263 233.2573Q29.690638 234.02292 29.690638 235.10104Q29.690638 235.6323 29.425013 236.14792Q29.159388 236.66354 28.628138 237.03854L29.550013 237.03854L29.550013 238.5698ZM26.300013 236.9448Q27.268763 236.9448 27.737513 236.6323Q28.393763 236.21042 28.393763 235.49167Q28.393763 234.96042 27.925013 234.5698Q27.456263 234.17917 26.456263 234.17917Q25.393763 234.17917 24.925013 234.5698Q24.440638 234.96042 24.440638 235.5698Q24.440638 236.14792 24.909388 236.55417Q25.362513 236.9448 26.300013 236.9448ZM27.565638 227.89792L27.846888 226.2573Q28.753138 226.5698 29.221888 227.2573Q29.690638 227.9448 29.690638 228.96042Q29.690638 230.58542 28.628138 231.36667Q27.784388 231.99167 26.487513 231.99167Q24.940638 231.99167 24.065638 231.17917Q23.190638 230.36667 23.190638 229.1323Q23.190638 227.74167 24.112513 226.9448Q25.018763 226.1323 26.909388 226.17917L26.909388 230.30417Q27.643763 230.27292 28.050013 229.89792Q28.456263 229.52292 28.456263 228.9448Q28.456263 228.5698 28.253138 228.30417Q28.034388 228.03854 27.565638 227.89792ZM25.909388 227.80417Q25.190638 227.8198 24.815638 228.17917Q24.440638 228.52292 24.440638 229.03854Q24.440638 229.5698 24.831263 229.92917Q25.237513 230.27292 25.909388 230.27292L25.909388 227.80417ZM29.550013 222.92917L29.550013 224.5698L23.331263 224.5698L23.331263 223.03854L24.206263 223.03854Q23.581263 222.64792 23.393763 222.33542Q23.190638 222.02292 23.190638 221.6323Q23.190638 221.0698 23.503138 220.53854L24.925013 221.05417Q24.659388 221.47604 24.659388 221.8198Q24.659388 222.17917 24.862513 222.41354Q25.050013 222.64792 25.550013 222.78854Q26.034388 222.92917 27.628138 222.92917L29.550013 222.92917ZM25.300013 216.85104Q23.987513 216.85104 23.096888 216.4448Q22.440638 216.16354 21.925013 215.66354Q21.409388 215.14792 21.159388 214.53854Q20.815638 213.74167 20.815638 212.6948Q20.815638 210.78854 22.003138 209.64792Q23.175013 208.5073 25.268763 208.5073Q27.346888 208.5073 28.518763 209.64792Q29.690638 210.77292 29.690638 212.66354Q29.690638 214.58542 28.534388 215.72604Q27.362513 216.85104 25.300013 216.85104ZM25.253138 215.05417Q26.706263 215.05417 27.456263 214.3823Q28.206263 213.71042 28.206263 212.67917Q28.206263 211.6323 27.471888 210.97604Q26.721888 210.30417 25.221888 210.30417Q23.753138 210.30417 23.034388 210.96042Q22.300013 211.60104 22.300013 212.67917Q22.300013 213.74167 23.034388 214.39792Q23.768763 215.05417 25.253138 215.05417ZM23.331263 208.22604L23.331263 207.30417L22.862513 207.30417Q22.065638 207.30417 21.690638 207.14792Q21.300013 206.97604 21.065638 206.53854Q20.815638 206.08542 20.815638 205.39792Q20.815638 204.6948 21.018763 204.02292L22.175013 204.24167Q22.081263 204.6323 22.081263 204.99167Q22.081263 205.35104 22.253138 205.5073Q22.409388 205.66354 22.893763 205.66354L23.331263 205.66354L23.331263 204.42917L24.628138 204.42917L24.628138 205.66354L29.550013 205.66354L29.550013 207.30417L24.628138 207.30417L24.628138 208.22604L23.331263 208.22604ZM25.300013 200.85104Q23.987513 200.85104 23.096888 200.4448Q22.440638 200.16354 21.925013 199.66354Q21.409388 199.14792 21.159388 198.53854Q20.815638 197.74167 20.815638 196.6948Q20.815638 194.78854 22.003138 193.64792Q23.175013 192.5073 25.268763 192.5073Q27.346888 192.5073 28.518763 193.64792Q29.690638 194.77292 29.690638 196.66354Q29.690638 198.58542 28.534388 199.72604Q27.362513 200.85104 25.300013 200.85104ZM25.253138 199.05417Q26.706263 199.05417 27.456263 198.3823Q28.206263 197.71042 28.206263 196.67917Q28.206263 195.6323 27.471888 194.97604Q26.721888 194.30417 25.221888 194.30417Q23.753138 194.30417 23.034388 194.96042Q22.300013 195.60104 22.300013 196.67917Q22.300013 197.74167 23.034388 198.39792Q23.768763 199.05417 25.253138 199.05417ZM23.331263 191.55417L23.331263 190.02292L24.237513 190.02292Q23.768763 189.71042 23.487513 189.21042Q23.190638 188.6948 23.190638 188.0698Q23.190638 186.99167 24.034388 186.24167Q24.878138 185.47604 26.409388 185.47604Q27.956263 185.47604 28.831263 186.24167Q29.690638 187.0073 29.690638 188.08542Q29.690638 188.60104 29.487513 189.02292Q29.284388 189.4448 28.784388 189.89792L31.925013 189.89792L31.925013 191.55417L23.331263 191.55417ZM26.331263 189.92917Q27.378138 189.92917 27.878138 189.5073Q28.378138 189.08542 28.378138 188.49167Q28.378138 187.91354 27.925013 187.53854Q27.456263 187.16354 26.409388 187.16354Q25.440638 187.16354 24.971888 187.55417Q24.487513 187.9448 24.487513 188.52292Q24.487513 189.1323 24.956263 189.53854Q25.425013 189.92917 26.331263 189.92917ZM27.565638 180.89792L27.846888 179.2573Q28.753138 179.5698 29.221888 180.2573Q29.690638 180.9448 29.690638 181.96042Q29.690638 183.58542 28.628138 184.36667Q27.784388 184.99167 26.487513 184.99167Q24.940638 184.99167 24.065638 184.17917Q23.190638 183.36667 23.190638 182.1323Q23.190638 180.74167 24.112513 179.9448Q25.018763 179.1323 26.909388 179.17917L26.909388 183.30417Q27.643763 183.27292 28.050013 182.89792Q28.456263 182.52292 28.456263 181.9448Q28.456263 181.5698 28.253138 181.30417Q28.034388 181.03854 27.565638 180.89792ZM25.909388 180.80417Q25.190638 180.8198 24.815638 181.17917Q24.440638 181.52292 24.440638 182.03854Q24.440638 182.5698 24.831263 182.92917Q25.237513 183.27292 25.909388 183.27292L25.909388 180.80417ZM29.550013 175.92917L29.550013 177.5698L23.331263 177.5698L23.331263 176.03854L24.206263 176.03854Q23.581263 175.64792 23.393763 175.33542Q23.190638 175.02292 23.190638 174.6323Q23.190638 174.0698 23.503138 173.53854L24.925013 174.05417Q24.659388 174.47604 24.659388 174.8198Q24.659388 175.17917 24.862513 175.41354Q25.050013 175.64792 25.550013 175.78854Q26.034388 175.92917 27.628138 175.92917L29.550013 175.92917ZM25.221888 171.27292L24.956263 172.77292Q24.050013 172.52292 23.628138 171.91354Q23.190638 171.28854 23.190638 170.0698Q23.190638 168.97604 23.456263 168.4448Q23.706263 167.89792 24.112513 167.67917Q24.503138 167.46042 25.581263 167.46042L27.503138 167.47604Q28.331263 167.47604 28.721888 167.39792Q29.096888 167.3198 29.550013 167.10104L29.550013 168.72604Q29.378138 168.78854 29.065638 168.8823Q28.909388 168.92917 28.862513 168.9448Q29.284388 169.36667 29.487513 169.85104Q29.690638 170.3198 29.690638 170.86667Q29.690638 171.83542 29.175013 172.39792Q28.643763 172.9448 27.846888 172.9448Q27.315638 172.9448 26.909388 172.6948Q26.503138 172.42917 26.284388 171.97604Q26.050013 171.52292 25.893763 170.66354Q25.675013 169.52292 25.487513 169.0698L25.331263 169.0698Q24.846888 169.0698 24.643763 169.30417Q24.440638 169.53854 24.440638 170.1948Q24.440638 170.6323 24.612513 170.8823Q24.784388 171.11667 25.221888 171.27292ZM26.565638 169.0698Q26.659388 169.3823 26.815638 170.0698Q26.956263 170.7573 27.096888 170.97604Q27.331263 171.28854 27.675013 171.28854Q28.018763 171.28854 28.284388 171.03854Q28.534388 170.77292 28.534388 170.3823Q28.534388 169.92917 28.237513 169.52292Q28.018763 169.22604 27.690638 169.1323Q27.487513 169.0698 26.893763 169.0698L26.565638 169.0698ZM23.331263 162.64792L24.643763 162.64792L24.643763 163.77292L27.143763 163.77292Q27.909388 163.77292 28.034388 163.74167Q28.159388 163.71042 28.253138 163.60104Q28.331263 163.47604 28.331263 163.3198Q28.331263 163.08542 28.159388 162.66354L29.440638 162.52292Q29.690638 163.08542 29.690638 163.8198Q29.690638 164.2573 29.550013 164.61667Q29.393763 164.97604 29.159388 165.14792Q28.909388 165.30417 28.518763 165.3823Q28.221888 165.42917 27.346888 165.42917L24.643763 165.42917L24.643763 166.17917L23.331263 166.17917L23.331263 165.42917L22.096888 165.42917L21.128138 163.77292L23.331263 163.77292L23.331263 162.64792ZM22.487513 161.5073L20.956263 161.5073L20.956263 159.85104L22.487513 159.85104L22.487513 161.5073ZM29.550013 161.5073L23.331263 161.5073L23.331263 159.85104L29.550013 159.85104L29.550013 161.5073ZM26.346888 158.8823Q25.534388 158.8823 24.768763 158.47604Q23.987513 158.0698 23.596888 157.33542Q23.190638 156.60104 23.190638 155.67917Q23.190638 154.27292 24.112513 153.36667Q25.018763 152.46042 26.425013 152.46042Q27.831263 152.46042 28.768763 153.3823Q29.690638 154.28854 29.690638 155.66354Q29.690638 156.52292 29.300013 157.30417Q28.909388 158.0698 28.175013 158.47604Q27.425013 158.8823 26.346888 158.8823ZM26.440638 157.1948Q27.362513 157.1948 27.862513 156.7573Q28.346888 156.3198 28.346888 155.67917Q28.346888 155.02292 27.862513 154.60104Q27.362513 154.16354 26.425013 154.16354Q25.518763 154.16354 25.034388 154.60104Q24.534388 155.02292 24.534388 155.67917Q24.534388 156.3198 25.034388 156.7573Q25.518763 157.1948 26.440638 157.1948ZM29.550013 145.85104L29.550013 147.49167L26.378138 147.49167Q25.362513 147.49167 25.065638 147.60104Q24.768763 147.6948 24.612513 147.9448Q24.440638 148.17917 24.440638 148.5073Q24.440638 148.9448 24.675013 149.28854Q24.909388 149.61667 25.300013 149.74167Q25.690638 149.86667 26.737513 149.86667L29.550013 149.86667L29.550013 151.52292L23.331263 151.52292L23.331263 149.99167L24.237513 149.99167Q23.190638 149.17917 23.190638 147.92917Q23.190638 147.39792 23.393763 146.9448Q23.581263 146.49167 23.893763 146.2573Q24.190638 146.02292 24.581263 145.9448Q24.956263 145.85104 25.675013 145.85104L29.550013 145.85104ZM27.768763 145.08542L27.518763 143.42917Q28.003138 143.3198 28.253138 143.0073Q28.503138 142.67917 28.503138 142.10104Q28.503138 141.46042 28.268763 141.14792Q28.096888 140.92917 27.831263 140.92917Q27.643763 140.92917 27.518763 141.03854Q27.393763 141.16354 27.300013 141.58542Q26.862513 143.58542 26.503138 144.11667Q25.987513 144.85104 25.096888 144.85104Q24.284388 144.85104 23.737513 144.22604Q23.190638 143.58542 23.190638 142.24167Q23.190638 140.96042 23.612513 140.33542Q24.018763 139.71042 24.831263 139.47604L25.112513 141.03854Q24.753138 141.1323 24.565638 141.41354Q24.362513 141.6948 24.362513 142.21042Q24.362513 142.85104 24.550013 143.1323Q24.675013 143.3198 24.878138 143.3198Q25.065638 143.3198 25.190638 143.16354Q25.346888 142.9448 25.643763 141.6323Q25.940638 140.30417 26.378138 139.78854Q26.815638 139.27292 27.596888 139.27292Q28.456263 139.27292 29.081263 139.99167Q29.690638 140.6948 29.690638 142.10104Q29.690638 143.36667 29.175013 144.11667Q28.659388 144.85104 27.768763 145.08542Z" fill-rule="nonzero"/><path fill="#000000" d="M65.05 302.21564Q65.05 300.6844 65.3625 299.7625Q65.675 298.825 66.28438 298.325Q66.90938 297.825 67.84688 297.825Q68.53438 297.825 69.05 298.10626Q69.58125 298.3875 69.925 298.91876Q70.26875 299.4344 70.45625 300.1844Q70.64375 300.9344 70.64375 302.21564Q70.64375 303.73126 70.33125 304.65314Q70.03438 305.575 69.40938 306.09064Q68.8 306.59064 67.84688 306.59064Q66.6125 306.59064 65.89375 305.7Q65.05 304.6375 65.05 302.21564ZM66.12813 302.21564Q66.12813 304.325 66.62813 305.02814Q67.12813 305.73126 67.84688 305.73126Q68.58125 305.73126 69.06563 305.02814Q69.56563 304.325 69.56563 302.21564Q69.56563 300.09064 69.06563 299.40314Q68.58125 298.7 67.83125 298.7Q67.1125 298.7 66.675 299.3094Q66.12813 300.09064 66.12813 302.21564Z" fill-rule="nonzero"/><path fill="#000000" d="M58.05 282.78333L59.159374 282.68958Q59.284374 283.50208 59.721874 283.90833Q60.175 284.31458 60.815624 284.31458Q61.565624 284.31458 62.096874 283.73645Q62.628124 283.15833 62.628124 282.22083Q62.628124 281.31458 62.1125 280.79895Q61.6125 280.2677 60.784374 280.2677Q60.284374 280.2677 59.8625 280.50208Q59.45625 280.73645 59.221874 281.09583L58.2375 280.97083L59.065624 276.56458L63.346874 276.56458L63.346874 277.56458L59.909374 277.56458L59.45625 279.87708Q60.221874 279.3302 61.065624 279.3302Q62.190624 279.3302 62.95625 280.11145Q63.7375 280.8927 63.7375 282.12708Q63.7375 283.28333 63.065624 284.1427Q62.2375 285.17395 60.815624 285.17395Q59.64375 285.17395 58.89375 284.5177Q58.159374 283.86145 58.05 282.78333ZM65.05 280.79895Q65.05 279.2677 65.3625 278.34583Q65.675 277.40833 66.28438 276.90833Q66.90938 276.40833 67.84688 276.40833Q68.53438 276.40833 69.05 276.68958Q69.58125 276.97083 69.925 277.50208Q70.26875 278.0177 70.45625 278.7677Q70.64375 279.5177 70.64375 280.79895Q70.64375 282.31458 70.33125 283.23645Q70.03438 284.15833 69.40938 284.67395Q68.8 285.17395 67.84688 285.17395Q66.6125 285.17395 65.89375 284.28333Q65.05 283.22083 65.05 280.79895ZM66.12813 280.79895Q66.12813 282.90833 66.62813 283.61145Q67.12813 284.31458 67.84688 284.31458Q68.58125 284.31458 69.06563 283.61145Q69.56563 282.90833 69.56563 280.79895Q69.56563 278.67395 69.06563 277.98645Q68.58125 277.28333 67.83125 277.28333Q67.1125 277.28333 66.675 277.8927Q66.12813 278.67395 66.12813 280.79895Z" fill-rule="nonzero"/><path fill="#000000" d="M55.01875 263.61667L53.971874 263.61667L53.971874 256.89792Q53.58125 257.2573 52.95625 257.6323Q52.346874 257.99167 51.8625 258.16354L51.8625 257.14792Q52.7375 256.72604 53.39375 256.14792Q54.065624 255.55417 54.346874 254.99167L55.01875 254.99167L55.01875 263.61667ZM58.05 259.3823Q58.05 257.85104 58.3625 256.92917Q58.675 255.99167 59.284374 255.49167Q59.909374 254.99167 60.846874 254.99167Q61.534374 254.99167 62.05 255.27292Q62.58125 255.55417 62.925 256.08542Q63.26875 256.60104 63.45625 257.35104Q63.64375 258.10104 63.64375 259.3823Q63.64375 260.89792 63.33125 261.8198Q63.034374 262.74167 62.409374 263.2573Q61.8 263.7573 60.846874 263.7573Q59.6125 263.7573 58.89375 262.86667Q58.05 261.80417 58.05 259.3823ZM59.128124 259.3823Q59.128124 261.49167 59.628124 262.1948Q60.128124 262.89792 60.846874 262.89792Q61.58125 262.89792 62.065624 262.1948Q62.565624 261.49167 62.565624 259.3823Q62.565624 257.2573 62.065624 256.5698Q61.58125 255.86667 60.83125 255.86667Q60.1125 255.86667 59.675 256.47604Q59.128124 257.2573 59.128124 259.3823ZM65.05 259.3823Q65.05 257.85104 65.3625 256.92917Q65.675 255.99167 66.28438 255.49167Q66.90938 254.99167 67.84688 254.99167Q68.53438 254.99167 69.05 255.27292Q69.58125 255.55417 69.925 256.08542Q70.26875 256.60104 70.45625 257.35104Q70.64375 258.10104 70.64375 259.3823Q70.64375 260.89792 70.33125 261.8198Q70.03438 262.74167 69.40938 263.2573Q68.8 263.7573 67.84688 263.7573Q66.6125 263.7573 65.89375 262.86667Q65.05 261.80417 65.05 259.3823ZM66.12813 259.3823Q66.12813 261.49167 66.62813 262.1948Q67.12813 262.89792 67.84688 262.89792Q68.58125 262.89792 69.06563 262.1948Q69.56563 261.49167 69.56563 259.3823Q69.56563 257.2573 69.06563 256.5698Q68.58125 255.86667 67.83125 255.86667Q67.1125 255.86667 66.675 256.47604Q66.12813 257.2573 66.12813 259.3823Z" fill-rule="nonzero"/><path fill="#000000" d="M55.01875 242.2L53.971874 242.2L53.971874 235.48125Q53.58125 235.84062 52.95625 236.21562Q52.346874 236.575 51.8625 236.74687L51.8625 235.73125Q52.7375 235.30937 53.39375 234.73125Q54.065624 234.1375 54.346874 233.575L55.01875 233.575L55.01875 242.2ZM58.05 239.95L59.159374 239.85625Q59.284374 240.66875 59.721874 241.075Q60.175 241.48125 60.815624 241.48125Q61.565624 241.48125 62.096874 240.90312Q62.628124 240.325 62.628124 239.3875Q62.628124 238.48125 62.1125 237.96562Q61.6125 237.43437 60.784374 237.43437Q60.284374 237.43437 59.8625 237.66875Q59.45625 237.90312 59.221874 238.2625L58.2375 238.1375L59.065624 233.73125L63.346874 233.73125L63.346874 234.73125L59.909374 234.73125L59.45625 237.04375Q60.221874 236.49687 61.065624 236.49687Q62.190624 236.49687 62.95625 237.27812Q63.7375 238.05937 63.7375 239.29375Q63.7375 240.45 63.065624 241.30937Q62.2375 242.34062 60.815624 242.34062Q59.64375 242.34062 58.89375 241.68437Q58.159374 241.02812 58.05 239.95ZM65.05 237.96562Q65.05 236.43437 65.3625 235.5125Q65.675 234.575 66.28438 234.075Q66.90938 233.575 67.84688 233.575Q68.53438 233.575 69.05 233.85625Q69.58125 234.1375 69.925 234.66875Q70.26875 235.18437 70.45625 235.93437Q70.64375 236.68437 70.64375 237.96562Q70.64375 239.48125 70.33125 240.40312Q70.03438 241.325 69.40938 241.84062Q68.8 242.34062 67.84688 242.34062Q66.6125 242.34062 65.89375 241.45Q65.05 240.3875 65.05 237.96562ZM66.12813 237.96562Q66.12813 240.075 66.62813 240.77812Q67.12813 241.48125 67.84688 241.48125Q68.58125 241.48125 69.06563 240.77812Q69.56563 240.075 69.56563 237.96562Q69.56563 235.84062 69.06563 235.15312Q68.58125 234.45 67.83125 234.45Q67.1125 234.45 66.675 235.05937Q66.12813 235.84062 66.12813 237.96562Z" fill-rule="nonzero"/><path fill="#000000" d="M56.596874 219.76772L56.596874 220.78334L50.909374 220.78334Q50.909374 220.40834 51.034374 220.04897Q51.253124 219.47084 51.721874 218.90834Q52.20625 218.34584 53.1125 217.61147Q54.51875 216.45522 55.003124 215.78334Q55.503124 215.11147 55.503124 214.51772Q55.503124 213.89272 55.05 213.47084Q54.596874 213.03334 53.878124 213.03334Q53.1125 213.03334 52.659374 213.48647Q52.20625 213.93959 52.190624 214.75209L51.1125 214.64272Q51.221874 213.42397 51.940624 212.79897Q52.675 212.15834 53.909374 212.15834Q55.14375 212.15834 55.8625 212.84584Q56.58125 213.53334 56.58125 214.54897Q56.58125 215.06459 56.3625 215.56459Q56.159374 216.04897 55.659374 216.61147Q55.175 217.15834 54.05 218.11147Q53.096874 218.90834 52.815624 219.20522Q52.55 219.48647 52.378124 219.76772L56.596874 219.76772ZM58.05 216.54897Q58.05 215.01772 58.3625 214.09584Q58.675 213.15834 59.284374 212.65834Q59.909374 212.15834 60.846874 212.15834Q61.534374 212.15834 62.05 212.43959Q62.58125 212.72084 62.925 213.25209Q63.26875 213.76772 63.45625 214.51772Q63.64375 215.26772 63.64375 216.54897Q63.64375 218.06459 63.33125 218.98647Q63.034374 219.90834 62.409374 220.42397Q61.8 220.92397 60.846874 220.92397Q59.6125 220.92397 58.89375 220.03334Q58.05 218.97084 58.05 216.54897ZM59.128124 216.54897Q59.128124 218.65834 59.628124 219.36147Q60.128124 220.06459 60.846874 220.06459Q61.58125 220.06459 62.065624 219.36147Q62.565624 218.65834 62.565624 216.54897Q62.565624 214.42397 62.065624 213.73647Q61.58125 213.03334 60.83125 213.03334Q60.1125 213.03334 59.675 213.64272Q59.128124 214.42397 59.128124 216.54897ZM65.05 216.54897Q65.05 215.01772 65.3625 214.09584Q65.675 213.15834 66.28438 212.65834Q66.90938 212.15834 67.84688 212.15834Q68.53438 212.15834 69.05 212.43959Q69.58125 212.72084 69.925 213.25209Q70.26875 213.76772 70.45625 214.51772Q70.64375 215.26772 70.64375 216.54897Q70.64375 218.06459 70.33125 218.98647Q70.03438 219.90834 69.40938 220.42397Q68.8 220.92397 67.84688 220.92397Q66.6125 220.92397 65.89375 220.03334Q65.05 218.97084 65.05 216.54897ZM66.12813 216.54897Q66.12813 218.65834 66.62813 219.36147Q67.12813 220.06459 67.84688 220.06459Q68.58125 220.06459 69.06563 219.36147Q69.56563 218.65834 69.56563 216.54897Q69.56563 214.42397 69.06563 213.73647Q68.58125 213.03334 67.83125 213.03334Q67.1125 213.03334 66.675 213.64272Q66.12813 214.42397 66.12813 216.54897Z" fill-rule="nonzero"/><path fill="#000000" d="M56.596874 198.35104L56.596874 199.36667L50.909374 199.36667Q50.909374 198.99167 51.034374 198.6323Q51.253124 198.05417 51.721874 197.49167Q52.20625 196.92917 53.1125 196.1948Q54.51875 195.03854 55.003124 194.36667Q55.503124 193.6948 55.503124 193.10104Q55.503124 192.47604 55.05 192.05417Q54.596874 191.61667 53.878124 191.61667Q53.1125 191.61667 52.659374 192.0698Q52.20625 192.52292 52.190624 193.33542L51.1125 193.22604Q51.221874 192.0073 51.940624 191.3823Q52.675 190.74167 53.909374 190.74167Q55.14375 190.74167 55.8625 191.42917Q56.58125 192.11667 56.58125 193.1323Q56.58125 193.64792 56.3625 194.14792Q56.159374 194.6323 55.659374 195.1948Q55.175 195.74167 54.05 196.6948Q53.096874 197.49167 52.815624 197.78854Q52.55 198.0698 52.378124 198.35104L56.596874 198.35104ZM58.05 197.11667L59.159374 197.02292Q59.284374 197.83542 59.721874 198.24167Q60.175 198.64792 60.815624 198.64792Q61.565624 198.64792 62.096874 198.0698Q62.628124 197.49167 62.628124 196.55417Q62.628124 195.64792 62.1125 195.1323Q61.6125 194.60104 60.784374 194.60104Q60.284374 194.60104 59.8625 194.83542Q59.45625 195.0698 59.221874 195.42917L58.2375 195.30417L59.065624 190.89792L63.346874 190.89792L63.346874 191.89792L59.909374 191.89792L59.45625 194.21042Q60.221874 193.66354 61.065624 193.66354Q62.190624 193.66354 62.95625 194.4448Q63.7375 195.22604 63.7375 196.46042Q63.7375 197.61667 63.065624 198.47604Q62.2375 199.5073 60.815624 199.5073Q59.64375 199.5073 58.89375 198.85104Q58.159374 198.1948 58.05 197.11667ZM65.05 195.1323Q65.05 193.60104 65.3625 192.67917Q65.675 191.74167 66.28438 191.24167Q66.90938 190.74167 67.84688 190.74167Q68.53438 190.74167 69.05 191.02292Q69.58125 191.30417 69.925 191.83542Q70.26875 192.35104 70.45625 193.10104Q70.64375 193.85104 70.64375 195.1323Q70.64375 196.64792 70.33125 197.5698Q70.03438 198.49167 69.40938 199.0073Q68.8 199.5073 67.84688 199.5073Q66.6125 199.5073 65.89375 198.61667Q65.05 197.55417 65.05 195.1323ZM66.12813 195.1323Q66.12813 197.24167 66.62813 197.9448Q67.12813 198.64792 67.84688 198.64792Q68.58125 198.64792 69.06563 197.9448Q69.56563 197.24167 69.56563 195.1323Q69.56563 193.0073 69.06563 192.3198Q68.58125 191.61667 67.83125 191.61667Q67.1125 191.61667 66.675 192.22604Q66.12813 193.0073 66.12813 195.1323Z" fill-rule="nonzero"/><path fill="#000000" d="M51.05 175.68437L52.1125 175.54375Q52.284374 176.43437 52.721874 176.84062Q53.159374 177.23125 53.784374 177.23125Q54.534374 177.23125 55.05 176.71562Q55.565624 176.2 55.565624 175.43437Q55.565624 174.71562 55.08125 174.24687Q54.6125 173.7625 53.878124 173.7625Q53.58125 173.7625 53.128124 173.8875L53.253124 172.95Q53.3625 172.96562 53.425 172.96562Q54.096874 172.96562 54.628124 172.62187Q55.175 172.2625 55.175 171.52812Q55.175 170.95 54.784374 170.575Q54.39375 170.18437 53.76875 170.18437Q53.159374 170.18437 52.7375 170.575Q52.33125 170.96562 52.221874 171.73125L51.159374 171.54375Q51.346874 170.49687 52.034374 169.91875Q52.721874 169.325 53.7375 169.325Q54.440624 169.325 55.034374 169.6375Q55.628124 169.93437 55.940624 170.45Q56.253124 170.96562 56.253124 171.55937Q56.253124 172.10625 55.95625 172.575Q55.659374 173.02812 55.08125 173.29375Q55.83125 173.46562 56.253124 174.02812Q56.675 174.575 56.675 175.41875Q56.675 176.54375 55.846874 177.325Q55.034374 178.10625 53.784374 178.10625Q52.659374 178.10625 51.909374 177.43437Q51.159374 176.74687 51.05 175.68437ZM58.05 173.71562Q58.05 172.18437 58.3625 171.2625Q58.675 170.325 59.284374 169.825Q59.909374 169.325 60.846874 169.325Q61.534374 169.325 62.05 169.60625Q62.58125 169.8875 62.925 170.41875Q63.26875 170.93437 63.45625 171.68437Q63.64375 172.43437 63.64375 173.71562Q63.64375 175.23125 63.33125 176.15312Q63.034374 177.075 62.409374 177.59062Q61.8 178.09062 60.846874 178.09062Q59.6125 178.09062 58.89375 177.2Q58.05 176.1375 58.05 173.71562ZM59.128124 173.71562Q59.128124 175.825 59.628124 176.52812Q60.128124 177.23125 60.846874 177.23125Q61.58125 177.23125 62.065624 176.52812Q62.565624 175.825 62.565624 173.71562Q62.565624 171.59062 62.065624 170.90312Q61.58125 170.2 60.83125 170.2Q60.1125 170.2 59.675 170.80937Q59.128124 171.59062 59.128124 173.71562ZM65.05 173.71562Q65.05 172.18437 65.3625 171.2625Q65.675 170.325 66.28438 169.825Q66.90938 169.325 67.84688 169.325Q68.53438 169.325 69.05 169.60625Q69.58125 169.8875 69.925 170.41875Q70.26875 170.93437 70.45625 171.68437Q70.64375 172.43437 70.64375 173.71562Q70.64375 175.23125 70.33125 176.15312Q70.03438 177.075 69.40938 177.59062Q68.8 178.09062 67.84688 178.09062Q66.6125 178.09062 65.89375 177.2Q65.05 176.1375 65.05 173.71562ZM66.12813 173.71562Q66.12813 175.825 66.62813 176.52812Q67.12813 177.23125 67.84688 177.23125Q68.58125 177.23125 69.06563 176.52812Q69.56563 175.825 69.56563 173.71562Q69.56563 171.59062 69.06563 170.90312Q68.58125 170.2 67.83125 170.2Q67.1125 170.2 66.675 170.80937Q66.12813 171.59062 66.12813 173.71562Z" fill-rule="nonzero"/><path fill="#000000" d="M51.05 154.26772L52.1125 154.12709Q52.284374 155.01772 52.721874 155.42397Q53.159374 155.81459 53.784374 155.81459Q54.534374 155.81459 55.05 155.29897Q55.565624 154.78334 55.565624 154.01772Q55.565624 153.29897 55.08125 152.83022Q54.6125 152.34584 53.878124 152.34584Q53.58125 152.34584 53.128124 152.47084L53.253124 151.53334Q53.3625 151.54897 53.425 151.54897Q54.096874 151.54897 54.628124 151.20522Q55.175 150.84584 55.175 150.11147Q55.175 149.53334 54.784374 149.15834Q54.39375 148.76772 53.76875 148.76772Q53.159374 148.76772 52.7375 149.15834Q52.33125 149.54897 52.221874 150.31459L51.159374 150.12709Q51.346874 149.08022 52.034374 148.50209Q52.721874 147.90834 53.7375 147.90834Q54.440624 147.90834 55.034374 148.22084Q55.628124 148.51772 55.940624 149.03334Q56.253124 149.54897 56.253124 150.14272Q56.253124 150.68959 55.95625 151.15834Q55.659374 151.61147 55.08125 151.87709Q55.83125 152.04897 56.253124 152.61147Q56.675 153.15834 56.675 154.00209Q56.675 155.12709 55.846874 155.90834Q55.034374 156.68959 53.784374 156.68959Q52.659374 156.68959 51.909374 156.01772Q51.159374 155.33022 51.05 154.26772ZM58.05 154.28334L59.159374 154.18959Q59.284374 155.00209 59.721874 155.40834Q60.175 155.81459 60.815624 155.81459Q61.565624 155.81459 62.096874 155.23647Q62.628124 154.65834 62.628124 153.72084Q62.628124 152.81459 62.1125 152.29897Q61.6125 151.76772 60.784374 151.76772Q60.284374 151.76772 59.8625 152.00209Q59.45625 152.23647 59.221874 152.59584L58.2375 152.47084L59.065624 148.06459L63.346874 148.06459L63.346874 149.06459L59.909374 149.06459L59.45625 151.37709Q60.221874 150.83022 61.065624 150.83022Q62.190624 150.83022 62.95625 151.61147Q63.7375 152.39272 63.7375 153.62709Q63.7375 154.78334 63.065624 155.64272Q62.2375 156.67397 60.815624 156.67397Q59.64375 156.67397 58.89375 156.01772Q58.159374 155.36147 58.05 154.28334ZM65.05 152.29897Q65.05 150.76772 65.3625 149.84584Q65.675 148.90834 66.28438 148.40834Q66.90938 147.90834 67.84688 147.90834Q68.53438 147.90834 69.05 148.18959Q69.58125 148.47084 69.925 149.00209Q70.26875 149.51772 70.45625 150.26772Q70.64375 151.01772 70.64375 152.29897Q70.64375 153.81459 70.33125 154.73647Q70.03438 155.65834 69.40938 156.17397Q68.8 156.67397 67.84688 156.67397Q66.6125 156.67397 65.89375 155.78334Q65.05 154.72084 65.05 152.29897ZM66.12813 152.29897Q66.12813 154.40834 66.62813 155.11147Q67.12813 155.81459 67.84688 155.81459Q68.58125 155.81459 69.06563 155.11147Q69.56563 154.40834 69.56563 152.29897Q69.56563 150.17397 69.06563 149.48647Q68.58125 148.78334 67.83125 148.78334Q67.1125 148.78334 66.675 149.39272Q66.12813 150.17397 66.12813 152.29897Z" fill-rule="nonzero"/><path fill="#000000" d="M54.425 135.11667L54.425 133.05417L50.70625 133.05417L50.70625 132.08542L54.628124 126.52292L55.4875 126.52292L55.4875 132.08542L56.64375 132.08542L56.64375 133.05417L55.4875 133.05417L55.4875 135.11667L54.425 135.11667ZM54.425 132.08542L54.425 128.22604L51.7375 132.08542L54.425 132.08542ZM58.05 130.8823Q58.05 129.35104 58.3625 128.42917Q58.675 127.49167 59.284374 126.99167Q59.909374 126.49167 60.846874 126.49167Q61.534374 126.49167 62.05 126.77292Q62.58125 127.05417 62.925 127.58542Q63.26875 128.10104 63.45625 128.85104Q63.64375 129.60104 63.64375 130.8823Q63.64375 132.39792 63.33125 133.3198Q63.034374 134.24167 62.409374 134.7573Q61.8 135.2573 60.846874 135.2573Q59.6125 135.2573 58.89375 134.36667Q58.05 133.30417 58.05 130.8823ZM59.128124 130.8823Q59.128124 132.99167 59.628124 133.6948Q60.128124 134.39792 60.846874 134.39792Q61.58125 134.39792 62.065624 133.6948Q62.565624 132.99167 62.565624 130.8823Q62.565624 128.7573 62.065624 128.0698Q61.58125 127.36667 60.83125 127.36667Q60.1125 127.36667 59.675 127.97604Q59.128124 128.7573 59.128124 130.8823ZM65.05 130.8823Q65.05 129.35104 65.3625 128.42917Q65.675 127.49167 66.28438 126.99167Q66.90938 126.49167 67.84688 126.49167Q68.53438 126.49167 69.05 126.77292Q69.58125 127.05417 69.925 127.58542Q70.26875 128.10104 70.45625 128.85104Q70.64375 129.60104 70.64375 130.8823Q70.64375 132.39792 70.33125 133.3198Q70.03438 134.24167 69.40938 134.7573Q68.8 135.2573 67.84688 135.2573Q66.6125 135.2573 65.89375 134.36667Q65.05 133.30417 65.05 130.8823ZM66.12813 130.8823Q66.12813 132.99167 66.62813 133.6948Q67.12813 134.39792 67.84688 134.39792Q68.58125 134.39792 69.06563 133.6948Q69.56563 132.99167 69.56563 130.8823Q69.56563 128.7573 69.06563 128.0698Q68.58125 127.36667 67.83125 127.36667Q67.1125 127.36667 66.675 127.97604Q66.12813 128.7573 66.12813 130.8823Z" fill-rule="nonzero"/><path fill="#000000" d="M54.425 113.7L54.425 111.6375L50.70625 111.6375L50.70625 110.66875L54.628124 105.10625L55.4875 105.10625L55.4875 110.66875L56.64375 110.66875L56.64375 111.6375L55.4875 111.6375L55.4875 113.7L54.425 113.7ZM54.425 110.66875L54.425 106.80937L51.7375 110.66875L54.425 110.66875ZM58.05 111.45L59.159374 111.35625Q59.284374 112.16875 59.721874 112.575Q60.175 112.98125 60.815624 112.98125Q61.565624 112.98125 62.096874 112.40312Q62.628124 111.825 62.628124 110.8875Q62.628124 109.98125 62.1125 109.46562Q61.6125 108.93437 60.784374 108.93437Q60.284374 108.93437 59.8625 109.16875Q59.45625 109.40312 59.221874 109.7625L58.2375 109.6375L59.065624 105.23125L63.346874 105.23125L63.346874 106.23125L59.909374 106.23125L59.45625 108.54375Q60.221874 107.99687 61.065624 107.99687Q62.190624 107.99687 62.95625 108.77812Q63.7375 109.55937 63.7375 110.79375Q63.7375 111.95 63.065624 112.80937Q62.2375 113.84062 60.815624 113.84062Q59.64375 113.84062 58.89375 113.18437Q58.159374 112.52812 58.05 111.45ZM65.05 109.46562Q65.05 107.93437 65.3625 107.0125Q65.675 106.075 66.28438 105.575Q66.90938 105.075 67.84688 105.075Q68.53438 105.075 69.05 105.35625Q69.58125 105.6375 69.925 106.16875Q70.26875 106.68437 70.45625 107.43437Q70.64375 108.18437 70.64375 109.46562Q70.64375 110.98125 70.33125 111.90312Q70.03438 112.825 69.40938 113.34062Q68.8 113.84062 67.84688 113.84062Q66.6125 113.84062 65.89375 112.95Q65.05 111.8875 65.05 109.46562ZM66.12813 109.46562Q66.12813 111.575 66.62813 112.27812Q67.12813 112.98125 67.84688 112.98125Q68.58125 112.98125 69.06563 112.27812Q69.56563 111.575 69.56563 109.46562Q69.56563 107.34062 69.06563 106.65312Q68.58125 105.95 67.83125 105.95Q67.1125 105.95 66.675 106.55937Q66.12813 107.34062 66.12813 109.46562Z" fill-rule="nonzero"/><path fill="#000000" d="M51.05 90.03333L52.159374 89.93958Q52.284374 90.75208 52.721874 91.15833Q53.175 91.56458 53.815624 91.56458Q54.565624 91.56458 55.096874 90.98646Q55.628124 90.40833 55.628124 89.47083Q55.628124 88.56458 55.1125 88.04896Q54.6125 87.51771 53.784374 87.51771Q53.284374 87.51771 52.8625 87.75208Q52.45625 87.98646 52.221874 88.34583L51.2375 88.22083L52.065624 83.81458L56.346874 83.81458L56.346874 84.81458L52.909374 84.81458L52.45625 87.12708Q53.221874 86.58021 54.065624 86.58021Q55.190624 86.58021 55.95625 87.36146Q56.7375 88.14271 56.7375 89.37708Q56.7375 90.53333 56.065624 91.39271Q55.2375 92.42396 53.815624 92.42396Q52.64375 92.42396 51.89375 91.76771Q51.159374 91.11146 51.05 90.03333ZM58.05 88.04896Q58.05 86.51771 58.3625 85.59583Q58.675 84.65833 59.284374 84.15833Q59.909374 83.65833 60.846874 83.65833Q61.534374 83.65833 62.05 83.93958Q62.58125 84.22083 62.925 84.75208Q63.26875 85.26771 63.45625 86.01771Q63.64375 86.76771 63.64375 88.04896Q63.64375 89.56458 63.33125 90.48646Q63.034374 91.40833 62.409374 91.92396Q61.8 92.42396 60.846874 92.42396Q59.6125 92.42396 58.89375 91.53333Q58.05 90.47083 58.05 88.04896ZM59.128124 88.04896Q59.128124 90.15833 59.628124 90.86146Q60.128124 91.56458 60.846874 91.56458Q61.58125 91.56458 62.065624 90.86146Q62.565624 90.15833 62.565624 88.04896Q62.565624 85.92396 62.065624 85.23646Q61.58125 84.53333 60.83125 84.53333Q60.1125 84.53333 59.675 85.14271Q59.128124 85.92396 59.128124 88.04896ZM65.05 88.04896Q65.05 86.51771 65.3625 85.59583Q65.675 84.65833 66.28438 84.15833Q66.90938 83.65833 67.84688 83.65833Q68.53438 83.65833 69.05 83.93958Q69.58125 84.22083 69.925 84.75208Q70.26875 85.26771 70.45625 86.01771Q70.64375 86.76771 70.64375 88.04896Q70.64375 89.56458 70.33125 90.48646Q70.03438 91.40833 69.40938 91.92396Q68.8 92.42396 67.84688 92.42396Q66.6125 92.42396 65.89375 91.53333Q65.05 90.47083 65.05 88.04896ZM66.12813 88.04896Q66.12813 90.15833 66.62813 90.86146Q67.12813 91.56458 67.84688 91.56458Q68.58125 91.56458 69.06563 90.86146Q69.56563 90.15833 69.56563 88.04896Q69.56563 85.92396 69.06563 85.23646Q68.58125 84.53333 67.83125 84.53333Q67.1125 84.53333 66.675 85.14271Q66.12813 85.92396 66.12813 88.04896Z" fill-rule="nonzero"/><path fill="#000000" d="M163.35722 318.4344L163.35722 319.45L157.66972 319.45Q157.66972 319.075 157.79472 318.71564Q158.01347 318.1375 158.48222 317.575Q158.9666 317.0125 159.87285 316.27814Q161.2791 315.1219 161.76347 314.45Q162.26347 313.77814 162.26347 313.1844Q162.26347 312.5594 161.81035 312.1375Q161.35722 311.7 160.63847 311.7Q159.87285 311.7 159.41972 312.15314Q158.9666 312.60626 158.95097 313.41876L157.87285 313.3094Q157.98222 312.09064 158.70097 311.46564Q159.43535 310.825 160.66972 310.825Q161.9041 310.825 162.62285 311.5125Q163.3416 312.2 163.3416 313.21564Q163.3416 313.73126 163.12285 314.23126Q162.91972 314.71564 162.41972 315.27814Q161.93535 315.825 160.81035 316.77814Q159.85722 317.575 159.57597 317.8719Q159.31035 318.15314 159.13847 318.4344L163.35722 318.4344Z" fill-rule="nonzero"/><path fill="#000000" d="M272.2701 317.2L273.3795 317.10626Q273.5045 317.91876 273.942 318.325Q274.3951 318.73126 275.03574 318.73126Q275.78574 318.73126 276.317 318.15314Q276.84824 317.575 276.84824 316.6375Q276.84824 315.73126 276.3326 315.21564Q275.8326 314.6844 275.0045 314.6844Q274.5045 314.6844 274.0826 314.91876Q273.67636 315.15314 273.442 315.5125L272.4576 315.3875L273.28574 310.98126L277.567 310.98126L277.567 311.98126L274.1295 311.98126L273.67636 314.29376Q274.442 313.7469 275.28574 313.7469Q276.41074 313.7469 277.17636 314.52814Q277.9576 315.3094 277.9576 316.54376Q277.9576 317.7 277.28574 318.5594Q276.4576 319.59064 275.03574 319.59064Q273.86386 319.59064 273.11386 318.9344Q272.3795 318.27814 272.2701 317.2Z" fill-rule="nonzero"/><path fill="#000000" d="M387.19864 319.45L386.15176 319.45L386.15176 312.73126Q385.76114 313.09064 385.13614 313.46564Q384.52676 313.825 384.0424 313.9969L384.0424 312.98126Q384.9174 312.5594 385.57364 311.98126Q386.2455 311.3875 386.52676 310.825L387.19864 310.825L387.19864 319.45ZM390.2299 315.21564Q390.2299 313.6844 390.5424 312.7625Q390.8549 311.825 391.46426 311.325Q392.08926 310.825 393.02676 310.825Q393.71426 310.825 394.2299 311.10626Q394.76114 311.3875 395.1049 311.91876Q395.44864 312.4344 395.63614 313.1844Q395.82364 313.9344 395.82364 315.21564Q395.82364 316.73126 395.51114 317.65314Q395.21426 318.575 394.58926 319.09064Q393.9799 319.59064 393.02676 319.59064Q391.7924 319.59064 391.07364 318.7Q390.2299 317.6375 390.2299 315.21564ZM391.308 315.21564Q391.308 317.325 391.808 318.02814Q392.308 318.73126 393.02676 318.73126Q393.76114 318.73126 394.2455 318.02814Q394.7455 317.325 394.7455 315.21564Q394.7455 313.09064 394.2455 312.40314Q393.76114 311.7 393.01114 311.7Q392.2924 311.7 391.8549 312.3094Q391.308 313.09064 391.308 315.21564Z" fill-rule="nonzero"/><path fill="#000000" d="M503.23654 318.4344L503.23654 319.45L497.54904 319.45Q497.54904 319.075 497.67404 318.71564Q497.8928 318.1375 498.36154 317.575Q498.84592 317.0125 499.75217 316.27814Q501.15842 315.1219 501.6428 314.45Q502.1428 313.77814 502.1428 313.1844Q502.1428 312.5594 501.68967 312.1375Q501.23654 311.7 500.5178 311.7Q499.75217 311.7 499.29904 312.15314Q498.84592 312.60626 498.8303 313.41876L497.75217 313.3094Q497.86154 312.09064 498.5803 311.46564Q499.31467 310.825 500.54904 310.825Q501.78342 310.825 502.50217 311.5125Q503.22092 312.2 503.22092 313.21564Q503.22092 313.73126 503.00217 314.23126Q502.79904 314.71564 502.29904 315.27814Q501.81467 315.825 500.68967 316.77814Q499.73654 317.575 499.4553 317.8719Q499.18967 318.15314 499.0178 318.4344L503.23654 318.4344ZM504.68967 315.21564Q504.68967 313.6844 505.00217 312.7625Q505.31467 311.825 505.92404 311.325Q506.54904 310.825 507.48654 310.825Q508.17404 310.825 508.68967 311.10626Q509.22092 311.3875 509.56467 311.91876Q509.90842 312.4344 510.09592 313.1844Q510.28342 313.9344 510.28342 315.21564Q510.28342 316.73126 509.97092 317.65314Q509.67404 318.575 509.04904 319.09064Q508.43967 319.59064 507.48654 319.59064Q506.25217 319.59064 505.53342 318.7Q504.68967 317.6375 504.68967 315.21564ZM505.7678 315.21564Q505.7678 317.325 506.2678 318.02814Q506.7678 318.73126 507.48654 318.73126Q508.22092 318.73126 508.7053 318.02814Q509.2053 317.325 509.2053 315.21564Q509.2053 313.09064 508.7053 312.40314Q508.22092 311.7 507.47092 311.7Q506.75217 311.7 506.31467 312.3094Q505.7678 313.09064 505.7678 315.21564Z" fill-rule="nonzero"/><path fill="#4285f4" d="M85.0 56.916668C85.0 56.364384 85.447716 55.916668 86.0 55.916668L96.0 55.916668C96.552284 55.916668 97.0 56.364384 97.0 56.916668L97.0 66.916664C97.0 67.46895 96.552284 67.916664 96.0 67.916664L86.0 67.916664C85.447716 67.916664 85.0 67.46895 85.0 66.916664Z" fill-rule="nonzero"/><path fill="#1a1a1a" d="M105.578125 61.729164Q105.578125 59.58854 106.71875 58.385414Q107.875 57.166664 109.6875 57.166664Q110.890625 57.166664 111.84375 57.74479Q112.796875 58.30729 113.296875 59.322914Q113.796875 60.33854 113.796875 61.635414Q113.796875 62.93229 113.265625 63.96354Q112.734375 64.99479 111.765625 65.52604Q110.8125 66.05729 109.6875 66.05729Q108.46875 66.05729 107.515625 65.479164Q106.5625 64.885414 106.0625 63.885414Q105.578125 62.86979 105.578125 61.729164ZM106.75 61.74479Q106.75 63.30729 107.578125 64.197914Q108.421875 65.08854 109.6875 65.08854Q110.96875 65.08854 111.796875 64.197914Q112.625 63.291664 112.625 61.61979Q112.625 60.572914 112.265625 59.791664Q111.921875 59.010414 111.234375 58.58854Q110.546875 58.15104 109.703125 58.15104Q108.5 58.15104 107.625 58.979164Q106.75 59.80729 106.75 61.74479ZM114.796875 68.30729L114.796875 59.697914L115.75 59.697914L115.75 60.49479Q116.09375 60.02604 116.515625 59.791664Q116.953125 59.55729 117.5625 59.55729Q118.359375 59.55729 118.96875 59.96354Q119.578125 60.36979 119.875 61.11979Q120.1875 61.86979 120.1875 62.760414Q120.1875 63.71354 119.84375 64.479164Q119.515625 65.24479 118.859375 65.65104Q118.203125 66.05729 117.484375 66.05729Q116.953125 66.05729 116.53125 65.83854Q116.109375 65.604164 115.84375 65.27604L115.84375 68.30729L114.796875 68.30729ZM115.75 62.83854Q115.75 64.041664 116.234375 64.61979Q116.71875 65.18229 117.40625 65.18229Q118.109375 65.18229 118.609375 64.58854Q119.109375 63.99479 119.109375 62.74479Q119.109375 61.55729 118.625 60.979164Q118.140625 60.385414 117.453125 60.385414Q116.78125 60.385414 116.265625 61.010414Q115.75 61.635414 115.75 62.83854ZM126.046875 63.916664L127.140625 64.041664Q126.890625 64.99479 126.1875 65.52604Q125.484375 66.05729 124.40625 66.05729Q123.046875 66.05729 122.234375 65.21354Q121.4375 64.36979 121.4375 62.854164Q121.4375 61.291664 122.25 60.43229Q123.0625 59.55729 124.34375 59.55729Q125.59375 59.55729 126.375 60.40104Q127.171875 61.24479 127.171875 62.791664Q127.171875 62.885414 127.171875 63.072914L122.53125 63.072914Q122.59375 64.104164 123.109375 64.65104Q123.625 65.18229 124.40625 65.18229Q124.984375 65.18229 125.390625 64.885414Q125.8125 64.572914 126.046875 63.916664ZM122.59375 62.21354L126.0625 62.21354Q126.0 61.416664 125.671875 61.02604Q125.15625 60.416664 124.359375 60.416664Q123.625 60.416664 123.125 60.90104Q122.640625 61.385414 122.59375 62.21354ZM128.78125 65.916664L128.78125 59.697914L129.73438 59.697914L129.73438 60.635414Q130.09375 59.979164 130.39062 59.77604Q130.70312 59.55729 131.07812 59.55729Q131.60938 59.55729 132.15625 59.885414L131.79688 60.86979Q131.40625 60.635414 131.03125 60.635414Q130.67188 60.635414 130.39062 60.854164Q130.125 61.05729 130.01562 61.43229Q129.82812 61.99479 129.82812 62.65104L129.82812 65.916664L128.78125 65.916664ZM136.85938 65.15104Q136.26562 65.65104 135.71875 65.854164Q135.1875 66.05729 134.5625 66.05729Q133.53125 66.05729 132.98438 65.55729Q132.4375 65.05729 132.4375 64.27604Q132.4375 63.822914 132.64062 63.447914Q132.84375 63.05729 133.1875 62.83854Q133.53125 62.604164 133.95312 62.49479Q134.25 62.40104 134.89062 62.322914Q136.15625 62.18229 136.76562 61.96354Q136.76562 61.74479 136.76562 61.697914Q136.76562 61.041664 136.46875 60.77604Q136.0625 60.43229 135.26562 60.43229Q134.53125 60.43229 134.17188 60.697914Q133.8125 60.947914 133.64062 61.604164L132.60938 61.46354Q132.75 60.80729 133.07812 60.40104Q133.40625 59.99479 134.01562 59.77604Q134.625 59.55729 135.42188 59.55729Q136.21875 59.55729 136.71875 59.74479Q137.21875 59.93229 137.45312 60.21354Q137.6875 60.49479 137.78125 60.93229Q137.82812 61.197914 137.82812 61.90104L137.82812 63.30729Q137.82812 64.77604 137.89062 65.166664Q137.96875 65.55729 138.17188 65.916664L137.0625 65.916664Q136.90625 65.58854 136.85938 65.15104ZM136.76562 62.791664Q136.1875 63.02604 135.04688 63.197914Q134.39062 63.291664 134.125 63.416664Q133.85938 63.52604 133.70312 63.74479Q133.5625 63.96354 133.5625 64.24479Q133.5625 64.666664 133.875 64.947914Q134.20312 65.229164 134.8125 65.229164Q135.42188 65.229164 135.89062 64.96354Q136.375 64.697914 136.59375 64.229164Q136.76562 63.86979 136.76562 63.18229L136.76562 62.791664ZM142.09375 64.979164L142.25 65.90104Q141.79688 65.99479 141.45312 65.99479Q140.875 65.99479 140.5625 65.822914Q140.25 65.635414 140.10938 65.33854Q139.98438 65.041664 139.98438 64.08854L139.98438 60.510414L139.21875 60.510414L139.21875 59.697914L139.98438 59.697914L139.98438 58.15104L141.03125 57.52604L141.03125 59.697914L142.09375 59.697914L142.09375 60.510414L141.03125 60.510414L141.03125 64.15104Q141.03125 64.604164 141.07812 64.729164Q141.14062 64.854164 141.26562 64.93229Q141.39062 65.010414 141.625 65.010414Q141.8125 65.010414 142.09375 64.979164ZM142.79688 58.541664L142.79688 57.322914L143.85938 57.322914L143.85938 58.541664L142.79688 58.541664ZM142.79688 65.916664L142.79688 59.697914L143.85938 59.697914L143.85938 65.916664L142.79688 65.916664ZM145.40625 62.80729Q145.40625 61.072914 146.35938 60.24479Q147.15625 59.55729 148.3125 59.55729Q149.59375 59.55729 150.40625 60.40104Q151.23438 61.229164 151.23438 62.71354Q151.23438 63.916664 150.875 64.604164Q150.51562 65.291664 149.8125 65.68229Q149.125 66.05729 148.3125 66.05729Q147.01562 66.05729 146.20312 65.229164Q145.40625 64.385414 145.40625 62.80729ZM146.48438 62.80729Q146.48438 63.99479 147.0 64.58854Q147.53125 65.18229 148.3125 65.18229Q149.10938 65.18229 149.625 64.58854Q150.14062 63.99479 150.14062 62.77604Q150.14062 61.61979 149.60938 61.02604Q149.09375 60.43229 148.3125 60.43229Q147.53125 60.43229 147.0 61.02604Q146.48438 61.604164 146.48438 62.80729ZM152.79688 65.916664L152.79688 59.697914L153.73438 59.697914L153.73438 60.572914Q154.42188 59.55729 155.71875 59.55729Q156.28125 59.55729 156.75 59.760414Q157.23438 59.96354 157.46875 60.291664Q157.70312 60.61979 157.79688 61.05729Q157.84375 61.354164 157.84375 62.08854L157.84375 65.916664L156.79688 65.916664L156.79688 62.135414Q156.79688 61.479164 156.67188 61.166664Q156.54688 60.854164 156.23438 60.666664Q155.92188 60.46354 155.5 60.46354Q154.82812 60.46354 154.32812 60.90104Q153.84375 61.322914 153.84375 62.510414L153.84375 65.916664L152.79688 65.916664ZM162.79688 68.30729L162.79688 59.697914L163.75 59.697914L163.75 60.49479Q164.09375 60.02604 164.51562 59.791664Q164.95312 59.55729 165.5625 59.55729Q166.35938 59.55729 166.96875 59.96354Q167.57812 60.36979 167.875 61.11979Q168.1875 61.86979 168.1875 62.760414Q168.1875 63.71354 167.84375 64.479164Q167.51562 65.24479 166.85938 65.65104Q166.20312 66.05729 165.48438 66.05729Q164.95312 66.05729 164.53125 65.83854Q164.10938 65.604164 163.84375 65.27604L163.84375 68.30729L162.79688 68.30729ZM163.75 62.83854Q163.75 64.041664 164.23438 64.61979Q164.71875 65.18229 165.40625 65.18229Q166.10938 65.18229 166.60938 64.58854Q167.10938 63.99479 167.10938 62.74479Q167.10938 61.55729 166.625 60.979164Q166.14062 60.385414 165.45312 60.385414Q164.78125 60.385414 164.26562 61.010414Q163.75 61.635414 163.75 62.83854ZM174.04688 63.916664L175.14062 64.041664Q174.89062 64.99479 174.1875 65.52604Q173.48438 66.05729 172.40625 66.05729Q171.04688 66.05729 170.23438 65.21354Q169.4375 64.36979 169.4375 62.854164Q169.4375 61.291664 170.25 60.43229Q171.0625 59.55729 172.34375 59.55729Q173.59375 59.55729 174.375 60.40104Q175.17188 61.24479 175.17188 62.791664Q175.17188 62.885414 175.17188 63.072914L170.53125 63.072914Q170.59375 64.104164 171.10938 64.65104Q171.625 65.18229 172.40625 65.18229Q172.98438 65.18229 173.39062 64.885414Q173.8125 64.572914 174.04688 63.916664ZM170.59375 62.21354L174.0625 62.21354Q174.0 61.416664 173.67188 61.02604Q173.15625 60.416664 172.35938 60.416664Q171.625 60.416664 171.125 60.90104Q170.64062 61.385414 170.59375 62.21354ZM176.78125 65.916664L176.78125 59.697914L177.73438 59.697914L177.73438 60.635414Q178.09375 59.979164 178.39062 59.77604Q178.70312 59.55729 179.07812 59.55729Q179.60938 59.55729 180.15625 59.885414L179.79688 60.86979Q179.40625 60.635414 179.03125 60.635414Q178.67188 60.635414 178.39062 60.854164Q178.125 61.05729 178.01562 61.43229Q177.82812 61.99479 177.82812 62.65104L177.82812 65.916664L176.78125 65.916664ZM184.125 65.916664L184.125 57.322914L185.25 57.322914L185.25 65.916664L184.125 65.916664ZM186.79688 65.916664L186.79688 59.697914L187.73438 59.697914L187.73438 60.572914Q188.42188 59.55729 189.71875 59.55729Q190.28125 59.55729 190.75 59.760414Q191.23438 59.96354 191.46875 60.291664Q191.70312 60.61979 191.79688 61.05729Q191.84375 61.354164 191.84375 62.08854L191.84375 65.916664L190.79688 65.916664L190.79688 62.135414Q190.79688 61.479164 190.67188 61.166664Q190.54688 60.854164 190.23438 60.666664Q189.92188 60.46354 189.5 60.46354Q188.82812 60.46354 188.32812 60.90104Q187.84375 61.322914 187.84375 62.510414L187.84375 65.916664L186.79688 65.916664ZM193.375 64.05729L194.40625 63.90104Q194.5 64.52604 194.89062 64.854164Q195.29688 65.18229 196.03125 65.18229Q196.75 65.18229 197.09375 64.90104Q197.45312 64.604164 197.45312 64.197914Q197.45312 63.83854 197.14062 63.635414Q196.92188 63.49479 196.0625 63.27604Q194.90625 62.979164 194.45312 62.77604Q194.01562 62.55729 193.78125 62.18229Q193.54688 61.80729 193.54688 61.33854Q193.54688 60.93229 193.73438 60.572914Q193.92188 60.21354 194.25 59.979164Q194.5 59.80729 194.92188 59.68229Q195.34375 59.55729 195.84375 59.55729Q196.5625 59.55729 197.10938 59.77604Q197.67188 59.979164 197.9375 60.33854Q198.20312 60.697914 198.29688 61.291664L197.26562 61.43229Q197.20312 60.96354 196.85938 60.697914Q196.53125 60.416664 195.90625 60.416664Q195.1875 60.416664 194.875 60.666664Q194.5625 60.90104 194.5625 61.229164Q194.5625 61.43229 194.6875 61.58854Q194.82812 61.760414 195.09375 61.86979Q195.25 61.93229 196.03125 62.135414Q197.15625 62.447914 197.59375 62.635414Q198.03125 62.822914 198.28125 63.18229Q198.53125 63.541664 198.53125 64.08854Q198.53125 64.61979 198.21875 65.08854Q197.92188 65.541664 197.34375 65.80729Q196.76562 66.05729 196.03125 66.05729Q194.8125 66.05729 194.17188 65.55729Q193.54688 65.041664 193.375 64.05729ZM205.04688 63.916664L206.14062 64.041664Q205.89062 64.99479 205.1875 65.52604Q204.48438 66.05729 203.40625 66.05729Q202.04688 66.05729 201.23438 65.21354Q200.4375 64.36979 200.4375 62.854164Q200.4375 61.291664 201.25 60.43229Q202.0625 59.55729 203.34375 59.55729Q204.59375 59.55729 205.375 60.40104Q206.17188 61.24479 206.17188 62.791664Q206.17188 62.885414 206.17188 63.072914L201.53125 63.072914Q201.59375 64.104164 202.10938 64.65104Q202.625 65.18229 203.40625 65.18229Q203.98438 65.18229 204.39062 64.885414Q204.8125 64.572914 205.04688 63.916664ZM201.59375 62.21354L205.0625 62.21354Q205.0 61.416664 204.67188 61.02604Q204.15625 60.416664 203.35938 60.416664Q202.625 60.416664 202.125 60.90104Q201.64062 61.385414 201.59375 62.21354ZM207.78125 65.916664L207.78125 59.697914L208.73438 59.697914L208.73438 60.635414Q209.09375 59.979164 209.39062 59.77604Q209.70312 59.55729 210.07812 59.55729Q210.60938 59.55729 211.15625 59.885414L210.79688 60.86979Q210.40625 60.635414 210.03125 60.635414Q209.67188 60.635414 209.39062 60.854164Q209.125 61.05729 209.01562 61.43229Q208.82812 61.99479 208.82812 62.65104L208.82812 65.916664L207.78125 65.916664ZM214.09375 64.979164L214.25 65.90104Q213.79688 65.99479 213.45312 65.99479Q212.875 65.99479 212.5625 65.822914Q212.25 65.635414 212.10938 65.33854Q211.98438 65.041664 211.98438 64.08854L211.98438 60.510414L211.21875 60.510414L211.21875 59.697914L211.98438 59.697914L211.98438 58.15104L213.03125 57.52604L213.03125 59.697914L214.09375 59.697914L214.09375 60.510414L213.03125 60.510414L213.03125 64.15104Q213.03125 64.604164 213.07812 64.729164Q213.14062 64.854164 213.26562 64.93229Q213.39062 65.010414 213.625 65.010414Q213.8125 65.010414 214.09375 64.979164Z" fill-rule="nonzero"/><path fill="#ea4335" d="M230.0 56.916668C230.0 56.364384 230.44771 55.916668 231.0 55.916668L241.0 55.916668C241.55229 55.916668 242.0 56.364384 242.0 56.916668L242.0 66.916664C242.0 67.46895 241.55229 67.916664 241.0 67.916664L231.0 67.916664C230.44771 67.916664 230.0 67.46895 230.0 66.916664Z" fill-rule="nonzero"/><path fill="#1a1a1a" d="M250.57812 61.729164Q250.57812 59.58854 251.71875 58.385414Q252.875 57.166664 254.6875 57.166664Q255.89062 57.166664 256.84375 57.74479Q257.79688 58.30729 258.29688 59.322914Q258.79688 60.33854 258.79688 61.635414Q258.79688 62.93229 258.26562 63.96354Q257.73438 64.99479 256.76562 65.52604Q255.8125 66.05729 254.6875 66.05729Q253.46875 66.05729 252.51562 65.479164Q251.5625 64.885414 251.0625 63.885414Q250.57812 62.86979 250.57812 61.729164ZM251.75 61.74479Q251.75 63.30729 252.57812 64.197914Q253.42188 65.08854 254.6875 65.08854Q255.96875 65.08854 256.79688 64.197914Q257.625 63.291664 257.625 61.61979Q257.625 60.572914 257.26562 59.791664Q256.92188 59.010414 256.23438 58.58854Q255.54688 58.15104 254.70312 58.15104Q253.5 58.15104 252.625 58.979164Q251.75 59.80729 251.75 61.74479ZM259.79688 68.30729L259.79688 59.697914L260.75 59.697914L260.75 60.49479Q261.09375 60.02604 261.51562 59.791664Q261.95312 59.55729 262.5625 59.55729Q263.35938 59.55729 263.96875 59.96354Q264.57812 60.36979 264.875 61.11979Q265.1875 61.86979 265.1875 62.760414Q265.1875 63.71354 264.84375 64.479164Q264.51562 65.24479 263.85938 65.65104Q263.20312 66.05729 262.48438 66.05729Q261.95312 66.05729 261.53125 65.83854Q261.10938 65.604164 260.84375 65.27604L260.84375 68.30729L259.79688 68.30729ZM260.75 62.83854Q260.75 64.041664 261.23438 64.61979Q261.71875 65.18229 262.40625 65.18229Q263.10938 65.18229 263.60938 64.58854Q264.10938 63.99479 264.10938 62.74479Q264.10938 61.55729 263.625 60.979164Q263.14062 60.385414 262.45312 60.385414Q261.78125 60.385414 261.26562 61.010414Q260.75 61.635414 260.75 62.83854ZM271.04688 63.916664L272.14062 64.041664Q271.89062 64.99479 271.1875 65.52604Q270.48438 66.05729 269.40625 66.05729Q268.04688 66.05729 267.23438 65.21354Q266.4375 64.36979 266.4375 62.854164Q266.4375 61.291664 267.25 60.43229Q268.0625 59.55729 269.34375 59.55729Q270.59375 59.55729 271.375 60.40104Q272.17188 61.24479 272.17188 62.791664Q272.17188 62.885414 272.17188 63.072914L267.53125 63.072914Q267.59375 64.104164 268.10938 64.65104Q268.625 65.18229 269.40625 65.18229Q269.98438 65.18229 270.39062 64.885414Q270.8125 64.572914 271.04688 63.916664ZM267.59375 62.21354L271.0625 62.21354Q271.0 61.416664 270.67188 61.02604Q270.15625 60.416664 269.35938 60.416664Q268.625 60.416664 268.125 60.90104Q267.64062 61.385414 267.59375 62.21354ZM273.78125 65.916664L273.78125 59.697914L274.73438 59.697914L274.73438 60.635414Q275.09375 59.979164 275.39062 59.77604Q275.70312 59.55729 276.07812 59.55729Q276.60938 59.55729 277.15625 59.885414L276.79688 60.86979Q276.40625 60.635414 276.03125 60.635414Q275.67188 60.635414 275.39062 60.854164Q275.125 61.05729 275.01562 61.43229Q274.82812 61.99479 274.82812 62.65104L274.82812 65.916664L273.78125 65.916664ZM281.85938 65.15104Q281.26562 65.65104 280.71875 65.854164Q280.1875 66.05729 279.5625 66.05729Q278.53125 66.05729 277.98438 65.55729Q277.4375 65.05729 277.4375 64.27604Q277.4375 63.822914 277.64062 63.447914Q277.84375 63.05729 278.1875 62.83854Q278.53125 62.604164 278.95312 62.49479Q279.25 62.40104 279.89062 62.322914Q281.15625 62.18229 281.76562 61.96354Q281.76562 61.74479 281.76562 61.697914Q281.76562 61.041664 281.46875 60.77604Q281.0625 60.43229 280.26562 60.43229Q279.53125 60.43229 279.17188 60.697914Q278.8125 60.947914 278.64062 61.604164L277.60938 61.46354Q277.75 60.80729 278.07812 60.40104Q278.40625 59.99479 279.01562 59.77604Q279.625 59.55729 280.42188 59.55729Q281.21875 59.55729 281.71875 59.74479Q282.21875 59.93229 282.45312 60.21354Q282.6875 60.49479 282.78125 60.93229Q282.82812 61.197914 282.82812 61.90104L282.82812 63.30729Q282.82812 64.77604 282.89062 65.166664Q282.96875 65.55729 283.17188 65.916664L282.0625 65.916664Q281.90625 65.58854 281.85938 65.15104ZM281.76562 62.791664Q281.1875 63.02604 280.04688 63.197914Q279.39062 63.291664 279.125 63.416664Q278.85938 63.52604 278.70312 63.74479Q278.5625 63.96354 278.5625 64.24479Q278.5625 64.666664 278.875 64.947914Q279.20312 65.229164 279.8125 65.229164Q280.42188 65.229164 280.89062 64.96354Q281.375 64.697914 281.59375 64.229164Q281.76562 63.86979 281.76562 63.18229L281.76562 62.791664ZM287.09375 64.979164L287.25 65.90104Q286.79688 65.99479 286.45312 65.99479Q285.875 65.99479 285.5625 65.822914Q285.25 65.635414 285.10938 65.33854Q284.98438 65.041664 284.98438 64.08854L284.98438 60.510414L284.21875 60.510414L284.21875 59.697914L284.98438 59.697914L284.98438 58.15104L286.03125 57.52604L286.03125 59.697914L287.09375 59.697914L287.09375 60.510414L286.03125 60.510414L286.03125 64.15104Q286.03125 64.604164 286.07812 64.729164Q286.14062 64.854164 286.26562 64.93229Q286.39062 65.010414 286.625 65.010414Q286.8125 65.010414 287.09375 64.979164ZM287.79688 58.541664L287.79688 57.322914L288.85938 57.322914L288.85938 58.541664L287.79688 58.541664ZM287.79688 65.916664L287.79688 59.697914L288.85938 59.697914L288.85938 65.916664L287.79688 65.916664ZM290.40625 62.80729Q290.40625 61.072914 291.35938 60.24479Q292.15625 59.55729 293.3125 59.55729Q294.59375 59.55729 295.40625 60.40104Q296.23438 61.229164 296.23438 62.71354Q296.23438 63.916664 295.875 64.604164Q295.51562 65.291664 294.8125 65.68229Q294.125 66.05729 293.3125 66.05729Q292.01562 66.05729 291.20312 65.229164Q290.40625 64.385414 290.40625 62.80729ZM291.48438 62.80729Q291.48438 63.99479 292.0 64.58854Q292.53125 65.18229 293.3125 65.18229Q294.10938 65.18229 294.625 64.58854Q295.14062 63.99479 295.14062 62.77604Q295.14062 61.61979 294.60938 61.02604Q294.09375 60.43229 293.3125 60.43229Q292.53125 60.43229 292.0 61.02604Q291.48438 61.604164 291.48438 62.80729ZM297.79688 65.916664L297.79688 59.697914L298.73438 59.697914L298.73438 60.572914Q299.42188 59.55729 300.71875 59.55729Q301.28125 59.55729 301.75 59.760414Q302.23438 59.96354 302.46875 60.291664Q302.70312 60.61979 302.79688 61.05729Q302.84375 61.354164 302.84375 62.08854L302.84375 65.916664L301.79688 65.916664L301.79688 62.135414Q301.79688 61.479164 301.67188 61.166664Q301.54688 60.854164 301.23438 60.666664Q300.92188 60.46354 300.5 60.46354Q299.82812 60.46354 299.32812 60.90104Q298.84375 61.322914 298.84375 62.510414L298.84375 65.916664L297.79688 65.916664ZM307.79688 68.30729L307.79688 59.697914L308.75 59.697914L308.75 60.49479Q309.09375 60.02604 309.51562 59.791664Q309.95312 59.55729 310.5625 59.55729Q311.35938 59.55729 311.96875 59.96354Q312.57812 60.36979 312.875 61.11979Q313.1875 61.86979 313.1875 62.760414Q313.1875 63.71354 312.84375 64.479164Q312.51562 65.24479 311.85938 65.65104Q311.20312 66.05729 310.48438 66.05729Q309.95312 66.05729 309.53125 65.83854Q309.10938 65.604164 308.84375 65.27604L308.84375 68.30729L307.79688 68.30729ZM308.75 62.83854Q308.75 64.041664 309.23438 64.61979Q309.71875 65.18229 310.40625 65.18229Q311.10938 65.18229 311.60938 64.58854Q312.10938 63.99479 312.10938 62.74479Q312.10938 61.55729 311.625 60.979164Q311.14062 60.385414 310.45312 60.385414Q309.78125 60.385414 309.26562 61.010414Q308.75 61.635414 308.75 62.83854ZM319.04688 63.916664L320.14062 64.041664Q319.89062 64.99479 319.1875 65.52604Q318.48438 66.05729 317.40625 66.05729Q316.04688 66.05729 315.23438 65.21354Q314.4375 64.36979 314.4375 62.854164Q314.4375 61.291664 315.25 60.43229Q316.0625 59.55729 317.34375 59.55729Q318.59375 59.55729 319.375 60.40104Q320.17188 61.24479 320.17188 62.791664Q320.17188 62.885414 320.17188 63.072914L315.53125 63.072914Q315.59375 64.104164 316.10938 64.65104Q316.625 65.18229 317.40625 65.18229Q317.98438 65.18229 318.39062 64.885414Q318.8125 64.572914 319.04688 63.916664ZM315.59375 62.21354L319.0625 62.21354Q319.0 61.416664 318.67188 61.02604Q318.15625 60.416664 317.35938 60.416664Q316.625 60.416664 316.125 60.90104Q315.64062 61.385414 315.59375 62.21354ZM321.78125 65.916664L321.78125 59.697914L322.73438 59.697914L322.73438 60.635414Q323.09375 59.979164 323.39062 59.77604Q323.70312 59.55729 324.07812 59.55729Q324.60938 59.55729 325.15625 59.885414L324.79688 60.86979Q324.40625 60.635414 324.03125 60.635414Q323.67188 60.635414 323.39062 60.854164Q323.125 61.05729 323.01562 61.43229Q322.82812 61.99479 322.82812 62.65104L322.82812 65.916664L321.78125 65.916664ZM332.82812 65.916664L332.82812 65.135414Q332.23438 66.05729 331.09375 66.05729Q330.34375 66.05729 329.71875 65.65104Q329.09375 65.229164 328.75 64.49479Q328.40625 63.760414 328.40625 62.80729Q328.40625 61.885414 328.71875 61.11979Q329.03125 60.354164 329.65625 59.96354Q330.28125 59.55729 331.04688 59.55729Q331.60938 59.55729 332.04688 59.791664Q332.48438 60.02604 332.76562 60.40104L332.76562 57.322914L333.8125 57.322914L333.8125 65.916664L332.82812 65.916664ZM329.5 62.80729Q329.5 64.010414 330.0 64.604164Q330.5 65.18229 331.1875 65.18229Q331.875 65.18229 332.35938 64.61979Q332.84375 64.05729 332.84375 62.90104Q332.84375 61.61979 332.34375 61.02604Q331.85938 60.43229 331.14062 60.43229Q330.4375 60.43229 329.96875 61.010414Q329.5 61.572914 329.5 62.80729ZM340.04688 63.916664L341.14062 64.041664Q340.89062 64.99479 340.1875 65.52604Q339.48438 66.05729 338.40625 66.05729Q337.04688 66.05729 336.23438 65.21354Q335.4375 64.36979 335.4375 62.854164Q335.4375 61.291664 336.25 60.43229Q337.0625 59.55729 338.34375 59.55729Q339.59375 59.55729 340.375 60.40104Q341.17188 61.24479 341.17188 62.791664Q341.17188 62.885414 341.17188 63.072914L336.53125 63.072914Q336.59375 64.104164 337.10938 64.65104Q337.625 65.18229 338.40625 65.18229Q338.98438 65.18229 339.39062 64.885414Q339.8125 64.572914 340.04688 63.916664ZM336.59375 62.21354L340.0625 62.21354Q340.0 61.416664 339.67188 61.02604Q339.15625 60.416664 338.35938 60.416664Q337.625 60.416664 337.125 60.90104Q336.64062 61.385414 336.59375 62.21354ZM342.76562 65.916664L342.76562 57.322914L343.82812 57.322914L343.82812 65.916664L342.76562 65.916664ZM350.04688 63.916664L351.14062 64.041664Q350.89062 64.99479 350.1875 65.52604Q349.48438 66.05729 348.40625 66.05729Q347.04688 66.05729 346.23438 65.21354Q345.4375 64.36979 345.4375 62.854164Q345.4375 61.291664 346.25 60.43229Q347.0625 59.55729 348.34375 59.55729Q349.59375 59.55729 350.375 60.40104Q351.17188 61.24479 351.17188 62.791664Q351.17188 62.885414 351.17188 63.072914L346.53125 63.072914Q346.59375 64.104164 347.10938 64.65104Q347.625 65.18229 348.40625 65.18229Q348.98438 65.18229 349.39062 64.885414Q349.8125 64.572914 350.04688 63.916664ZM346.59375 62.21354L350.0625 62.21354Q350.0 61.416664 349.67188 61.02604Q349.15625 60.416664 348.35938 60.416664Q347.625 60.416664 347.125 60.90104Q346.64062 61.385414 346.59375 62.21354ZM355.09375 64.979164L355.25 65.90104Q354.79688 65.99479 354.45312 65.99479Q353.875 65.99479 353.5625 65.822914Q353.25 65.635414 353.10938 65.33854Q352.98438 65.041664 352.98438 64.08854L352.98438 60.510414L352.21875 60.510414L352.21875 59.697914L352.98438 59.697914L352.98438 58.15104L354.03125 57.52604L354.03125 59.697914L355.09375 59.697914L355.09375 60.510414L354.03125 60.510414L354.03125 64.15104Q354.03125 64.604164 354.07812 64.729164Q354.14062 64.854164 354.26562 64.93229Q354.39062 65.010414 354.625 65.010414Q354.8125 65.010414 355.09375 64.979164ZM360.04688 63.916664L361.14062 64.041664Q360.89062 64.99479 360.1875 65.52604Q359.48438 66.05729 358.40625 66.05729Q357.04688 66.05729 356.23438 65.21354Q355.4375 64.36979 355.4375 62.854164Q355.4375 61.291664 356.25 60.43229Q357.0625 59.55729 358.34375 59.55729Q359.59375 59.55729 360.375 60.40104Q361.17188 61.24479 361.17188 62.791664Q361.17188 62.885414 361.17188 63.072914L356.53125 63.072914Q356.59375 64.104164 357.10938 64.65104Q357.625 65.18229 358.40625 65.18229Q358.98438 65.18229 359.39062 64.885414Q359.8125 64.572914 360.04688 63.916664ZM356.59375 62.21354L360.0625 62.21354Q360.0 61.416664 359.67188 61.02604Q359.15625 60.416664 358.35938 60.416664Q357.625 60.416664 357.125 60.90104Q356.64062 61.385414 356.59375 62.21354Z" fill-rule="nonzero"/><path fill="#fbbc04" d="M378.0 56.916668C378.0 56.364384 378.44772 55.916668 379.0 55.916668L389.0 55.916668C389.55228 55.916668 390.0 56.364384 390.0 56.916668L390.0 66.916664C390.0 67.46895 389.55228 67.916664 389.0 67.916664L379.0 67.916664C378.44772 67.916664 378.0 67.46895 378.0 66.916664Z" fill-rule="nonzero"/><path fill="#1a1a1a" d="M398.57812 61.729164Q398.57812 59.58854 399.71875 58.385414Q400.875 57.166664 402.6875 57.166664Q403.89062 57.166664 404.84375 57.74479Q405.79688 58.30729 406.29688 59.322914Q406.79688 60.33854 406.79688 61.635414Q406.79688 62.93229 406.26562 63.96354Q405.73438 64.99479 404.76562 65.52604Q403.8125 66.05729 402.6875 66.05729Q401.46875 66.05729 400.51562 65.479164Q399.5625 64.885414 399.0625 63.885414Q398.57812 62.86979 398.57812 61.729164ZM399.75 61.74479Q399.75 63.30729 400.57812 64.197914Q401.42188 65.08854 402.6875 65.08854Q403.96875 65.08854 404.79688 64.197914Q405.625 63.291664 405.625 61.61979Q405.625 60.572914 405.26562 59.791664Q404.92188 59.010414 404.23438 58.58854Q403.54688 58.15104 402.70312 58.15104Q401.5 58.15104 400.625 58.979164Q399.75 59.80729 399.75 61.74479ZM407.79688 68.30729L407.79688 59.697914L408.75 59.697914L408.75 60.49479Q409.09375 60.02604 409.51562 59.791664Q409.95312 59.55729 410.5625 59.55729Q411.35938 59.55729 411.96875 59.96354Q412.57812 60.36979 412.875 61.11979Q413.1875 61.86979 413.1875 62.760414Q413.1875 63.71354 412.84375 64.479164Q412.51562 65.24479 411.85938 65.65104Q411.20312 66.05729 410.48438 66.05729Q409.95312 66.05729 409.53125 65.83854Q409.10938 65.604164 408.84375 65.27604L408.84375 68.30729L407.79688 68.30729ZM408.75 62.83854Q408.75 64.041664 409.23438 64.61979Q409.71875 65.18229 410.40625 65.18229Q411.10938 65.18229 411.60938 64.58854Q412.10938 63.99479 412.10938 62.74479Q412.10938 61.55729 411.625 60.979164Q411.14062 60.385414 410.45312 60.385414Q409.78125 60.385414 409.26562 61.010414Q408.75 61.635414 408.75 62.83854ZM419.04688 63.916664L420.14062 64.041664Q419.89062 64.99479 419.1875 65.52604Q418.48438 66.05729 417.40625 66.05729Q416.04688 66.05729 415.23438 65.21354Q414.4375 64.36979 414.4375 62.854164Q414.4375 61.291664 415.25 60.43229Q416.0625 59.55729 417.34375 59.55729Q418.59375 59.55729 419.375 60.40104Q420.17188 61.24479 420.17188 62.791664Q420.17188 62.885414 420.17188 63.072914L415.53125 63.072914Q415.59375 64.104164 416.10938 64.65104Q416.625 65.18229 417.40625 65.18229Q417.98438 65.18229 418.39062 64.885414Q418.8125 64.572914 419.04688 63.916664ZM415.59375 62.21354L419.0625 62.21354Q419.0 61.416664 418.67188 61.02604Q418.15625 60.416664 417.35938 60.416664Q416.625 60.416664 416.125 60.90104Q415.64062 61.385414 415.59375 62.21354ZM421.78125 65.916664L421.78125 59.697914L422.73438 59.697914L422.73438 60.635414Q423.09375 59.979164 423.39062 59.77604Q423.70312 59.55729 424.07812 59.55729Q424.60938 59.55729 425.15625 59.885414L424.79688 60.86979Q424.40625 60.635414 424.03125 60.635414Q423.67188 60.635414 423.39062 60.854164Q423.125 61.05729 423.01562 61.43229Q422.82812 61.99479 422.82812 62.65104L422.82812 65.916664L421.78125 65.916664ZM429.85938 65.15104Q429.26562 65.65104 428.71875 65.854164Q428.1875 66.05729 427.5625 66.05729Q426.53125 66.05729 425.98438 65.55729Q425.4375 65.05729 425.4375 64.27604Q425.4375 63.822914 425.64062 63.447914Q425.84375 63.05729 426.1875 62.83854Q426.53125 62.604164 426.95312 62.49479Q427.25 62.40104 427.89062 62.322914Q429.15625 62.18229 429.76562 61.96354Q429.76562 61.74479 429.76562 61.697914Q429.76562 61.041664 429.46875 60.77604Q429.0625 60.43229 428.26562 60.43229Q427.53125 60.43229 427.17188 60.697914Q426.8125 60.947914 426.64062 61.604164L425.60938 61.46354Q425.75 60.80729 426.07812 60.40104Q426.40625 59.99479 427.01562 59.77604Q427.625 59.55729 428.42188 59.55729Q429.21875 59.55729 429.71875 59.74479Q430.21875 59.93229 430.45312 60.21354Q430.6875 60.49479 430.78125 60.93229Q430.82812 61.197914 430.82812 61.90104L430.82812 63.30729Q430.82812 64.77604 430.89062 65.166664Q430.96875 65.55729 431.17188 65.916664L430.0625 65.916664Q429.90625 65.58854 429.85938 65.15104ZM429.76562 62.791664Q429.1875 63.02604 428.04688 63.197914Q427.39062 63.291664 427.125 63.416664Q426.85938 63.52604 426.70312 63.74479Q426.5625 63.96354 426.5625 64.24479Q426.5625 64.666664 426.875 64.947914Q427.20312 65.229164 427.8125 65.229164Q428.42188 65.229164 428.89062 64.96354Q429.375 64.697914 429.59375 64.229164Q429.76562 63.86979 429.76562 63.18229L429.76562 62.791664ZM435.09375 64.979164L435.25 65.90104Q434.79688 65.99479 434.45312 65.99479Q433.875 65.99479 433.5625 65.822914Q433.25 65.635414 433.10938 65.33854Q432.98438 65.041664 432.98438 64.08854L432.98438 60.510414L432.21875 60.510414L432.21875 59.697914L432.98438 59.697914L432.98438 58.15104L434.03125 57.52604L434.03125 59.697914L435.09375 59.697914L435.09375 60.510414L434.03125 60.510414L434.03125 64.15104Q434.03125 64.604164 434.07812 64.729164Q434.14062 64.854164 434.26562 64.93229Q434.39062 65.010414 434.625 65.010414Q434.8125 65.010414 435.09375 64.979164ZM435.79688 58.541664L435.79688 57.322914L436.85938 57.322914L436.85938 58.541664L435.79688 58.541664ZM435.79688 65.916664L435.79688 59.697914L436.85938 59.697914L436.85938 65.916664L435.79688 65.916664ZM438.40625 62.80729Q438.40625 61.072914 439.35938 60.24479Q440.15625 59.55729 441.3125 59.55729Q442.59375 59.55729 443.40625 60.40104Q444.23438 61.229164 444.23438 62.71354Q444.23438 63.916664 443.875 64.604164Q443.51562 65.291664 442.8125 65.68229Q442.125 66.05729 441.3125 66.05729Q440.01562 66.05729 439.20312 65.229164Q438.40625 64.385414 438.40625 62.80729ZM439.48438 62.80729Q439.48438 63.99479 440.0 64.58854Q440.53125 65.18229 441.3125 65.18229Q442.10938 65.18229 442.625 64.58854Q443.14062 63.99479 443.14062 62.77604Q443.14062 61.61979 442.60938 61.02604Q442.09375 60.43229 441.3125 60.43229Q440.53125 60.43229 440.0 61.02604Q439.48438 61.604164 439.48438 62.80729ZM445.79688 65.916664L445.79688 59.697914L446.73438 59.697914L446.73438 60.572914Q447.42188 59.55729 448.71875 59.55729Q449.28125 59.55729 449.75 59.760414Q450.23438 59.96354 450.46875 60.291664Q450.70312 60.61979 450.79688 61.05729Q450.84375 61.354164 450.84375 62.08854L450.84375 65.916664L449.79688 65.916664L449.79688 62.135414Q449.79688 61.479164 449.67188 61.166664Q449.54688 60.854164 449.23438 60.666664Q448.92188 60.46354 448.5 60.46354Q447.82812 60.46354 447.32812 60.90104Q446.84375 61.322914 446.84375 62.510414L446.84375 65.916664L445.79688 65.916664ZM455.79688 68.30729L455.79688 59.697914L456.75 59.697914L456.75 60.49479Q457.09375 60.02604 457.51562 59.791664Q457.95312 59.55729 458.5625 59.55729Q459.35938 59.55729 459.96875 59.96354Q460.57812 60.36979 460.875 61.11979Q461.1875 61.86979 461.1875 62.760414Q461.1875 63.71354 460.84375 64.479164Q460.51562 65.24479 459.85938 65.65104Q459.20312 66.05729 458.48438 66.05729Q457.95312 66.05729 457.53125 65.83854Q457.10938 65.604164 456.84375 65.27604L456.84375 68.30729L455.79688 68.30729ZM456.75 62.83854Q456.75 64.041664 457.23438 64.61979Q457.71875 65.18229 458.40625 65.18229Q459.10938 65.18229 459.60938 64.58854Q460.10938 63.99479 460.10938 62.74479Q460.10938 61.55729 459.625 60.979164Q459.14062 60.385414 458.45312 60.385414Q457.78125 60.385414 457.26562 61.010414Q456.75 61.635414 456.75 62.83854ZM467.04688 63.916664L468.14062 64.041664Q467.89062 64.99479 467.1875 65.52604Q466.48438 66.05729 465.40625 66.05729Q464.04688 66.05729 463.23438 65.21354Q462.4375 64.36979 462.4375 62.854164Q462.4375 61.291664 463.25 60.43229Q464.0625 59.55729 465.34375 59.55729Q466.59375 59.55729 467.375 60.40104Q468.17188 61.24479 468.17188 62.791664Q468.17188 62.885414 468.17188 63.072914L463.53125 63.072914Q463.59375 64.104164 464.10938 64.65104Q464.625 65.18229 465.40625 65.18229Q465.98438 65.18229 466.39062 64.885414Q466.8125 64.572914 467.04688 63.916664ZM463.59375 62.21354L467.0625 62.21354Q467.0 61.416664 466.67188 61.02604Q466.15625 60.416664 465.35938 60.416664Q464.625 60.416664 464.125 60.90104Q463.64062 61.385414 463.59375 62.21354ZM469.78125 65.916664L469.78125 59.697914L470.73438 59.697914L470.73438 60.635414Q471.09375 59.979164 471.39062 59.77604Q471.70312 59.55729 472.07812 59.55729Q472.60938 59.55729 473.15625 59.885414L472.79688 60.86979Q472.40625 60.635414 472.03125 60.635414Q471.67188 60.635414 471.39062 60.854164Q471.125 61.05729 471.01562 61.43229Q470.82812 61.99479 470.82812 62.65104L470.82812 65.916664L469.78125 65.916664ZM476.54688 63.15104L477.60938 63.05729Q477.6875 63.71354 477.96875 64.11979Q478.25 64.52604 478.82812 64.791664Q479.42188 65.041664 480.15625 65.041664Q480.79688 65.041664 481.29688 64.854164Q481.79688 64.65104 482.03125 64.322914Q482.28125 63.979164 482.28125 63.58854Q482.28125 63.18229 482.04688 62.885414Q481.8125 62.572914 481.28125 62.36979Q480.92188 62.229164 479.73438 61.947914Q478.5625 61.666664 478.09375 61.416664Q477.46875 61.08854 477.17188 60.61979Q476.875 60.135414 476.875 59.541664Q476.875 58.90104 477.23438 58.33854Q477.60938 57.760414 478.3125 57.479164Q479.03125 57.18229 479.89062 57.18229Q480.84375 57.18229 481.57812 57.49479Q482.3125 57.791664 482.70312 58.40104Q483.09375 58.99479 483.125 59.74479L482.03125 59.822914Q481.9375 59.010414 481.42188 58.604164Q480.92188 58.18229 479.9375 58.18229Q478.90625 58.18229 478.4375 58.55729Q477.96875 58.93229 477.96875 59.46354Q477.96875 59.93229 478.29688 60.229164Q478.625 60.52604 480.0 60.83854Q481.39062 61.15104 481.90625 61.385414Q482.65625 61.74479 483.01562 62.27604Q483.375 62.791664 483.375 63.49479Q483.375 64.18229 482.98438 64.791664Q482.59375 65.385414 481.85938 65.729164Q481.125 66.05729 480.20312 66.05729Q479.03125 66.05729 478.23438 65.729164Q477.45312 65.385414 477.0 64.697914Q476.5625 64.010414 476.54688 63.15104ZM489.04688 63.916664L490.14062 64.041664Q489.89062 64.99479 489.1875 65.52604Q488.48438 66.05729 487.40625 66.05729Q486.04688 66.05729 485.23438 65.21354Q484.4375 64.36979 484.4375 62.854164Q484.4375 61.291664 485.25 60.43229Q486.0625 59.55729 487.34375 59.55729Q488.59375 59.55729 489.375 60.40104Q490.17188 61.24479 490.17188 62.791664Q490.17188 62.885414 490.17188 63.072914L485.53125 63.072914Q485.59375 64.104164 486.10938 64.65104Q486.625 65.18229 487.40625 65.18229Q487.98438 65.18229 488.39062 64.885414Q488.8125 64.572914 489.04688 63.916664ZM485.59375 62.21354L489.0625 62.21354Q489.0 61.416664 488.67188 61.02604Q488.15625 60.416664 487.35938 60.416664Q486.625 60.416664 486.125 60.90104Q485.64062 61.385414 485.59375 62.21354ZM495.85938 65.15104Q495.26562 65.65104 494.71875 65.854164Q494.1875 66.05729 493.5625 66.05729Q492.53125 66.05729 491.98438 65.55729Q491.4375 65.05729 491.4375 64.27604Q491.4375 63.822914 491.64062 63.447914Q491.84375 63.05729 492.1875 62.83854Q492.53125 62.604164 492.95312 62.49479Q493.25 62.40104 493.89062 62.322914Q495.15625 62.18229 495.76562 61.96354Q495.76562 61.74479 495.76562 61.697914Q495.76562 61.041664 495.46875 60.77604Q495.0625 60.43229 494.26562 60.43229Q493.53125 60.43229 493.17188 60.697914Q492.8125 60.947914 492.64062 61.604164L491.60938 61.46354Q491.75 60.80729 492.07812 60.40104Q492.40625 59.99479 493.01562 59.77604Q493.625 59.55729 494.42188 59.55729Q495.21875 59.55729 495.71875 59.74479Q496.21875 59.93229 496.45312 60.21354Q496.6875 60.49479 496.78125 60.93229Q496.82812 61.197914 496.82812 61.90104L496.82812 63.30729Q496.82812 64.77604 496.89062 65.166664Q496.96875 65.55729 497.17188 65.916664L496.0625 65.916664Q495.90625 65.58854 495.85938 65.15104ZM495.76562 62.791664Q495.1875 63.02604 494.04688 63.197914Q493.39062 63.291664 493.125 63.416664Q492.85938 63.52604 492.70312 63.74479Q492.5625 63.96354 492.5625 64.24479Q492.5625 64.666664 492.875 64.947914Q493.20312 65.229164 493.8125 65.229164Q494.42188 65.229164 494.89062 64.96354Q495.375 64.697914 495.59375 64.229164Q495.76562 63.86979 495.76562 63.18229L495.76562 62.791664ZM498.78125 65.916664L498.78125 59.697914L499.73438 59.697914L499.73438 60.635414Q500.09375 59.979164 500.39062 59.77604Q500.70312 59.55729 501.07812 59.55729Q501.60938 59.55729 502.15625 59.885414L501.79688 60.86979Q501.40625 60.635414 501.03125 60.635414Q500.67188 60.635414 500.39062 60.854164Q500.125 61.05729 500.01562 61.43229Q499.82812 61.99479 499.82812 62.65104L499.82812 65.916664L498.78125 65.916664ZM506.85938 63.635414L507.89062 63.77604Q507.71875 64.83854 507.01562 65.447914Q506.3125 66.05729 505.29688 66.05729Q504.01562 66.05729 503.23438 65.229164Q502.46875 64.385414 502.46875 62.822914Q502.46875 61.822914 502.79688 61.072914Q503.14062 60.30729 503.8125 59.93229Q504.5 59.55729 505.3125 59.55729Q506.3125 59.55729 506.95312 60.072914Q507.60938 60.572914 507.79688 61.52604L506.76562 61.68229Q506.625 61.05729 506.25 60.74479Q505.875 60.416664 505.34375 60.416664Q504.54688 60.416664 504.04688 60.99479Q503.54688 61.55729 503.54688 62.791664Q503.54688 64.05729 504.03125 64.61979Q504.51562 65.18229 505.28125 65.18229Q505.90625 65.18229 506.3125 64.80729Q506.73438 64.43229 506.85938 63.635414ZM508.79688 65.916664L508.79688 57.322914L509.84375 57.322914L509.84375 60.40104Q510.57812 59.55729 511.70312 59.55729Q512.40625 59.55729 512.90625 59.83854Q513.4219 60.104164 513.6406 60.58854Q513.8594 61.05729 513.8594 61.979164L513.8594 65.916664L512.8125 65.916664L512.8125 61.979164Q512.8125 61.18229 512.46875 60.822914Q512.125 60.46354 511.5 60.46354Q511.03125 60.46354 510.60938 60.71354Q510.20312 60.947914 510.01562 61.36979Q509.84375 61.77604 509.84375 62.510414L509.84375 65.916664L508.79688 65.916664Z" fill-rule="nonzero"/><path fill="#000000" d="M14.01875 29.55L14.01875 15.237499L23.846874 15.237499L23.846874 17.659374L16.909374 17.659374L16.909374 21.05L22.89375 21.05L22.89375 23.471874L16.909374 23.471874L16.909374 29.55L14.01875 29.55ZM25.925 29.55L25.925 15.237499L28.815624 15.237499L28.815624 29.55L25.925 29.55ZM31.08125 29.55L31.08125 15.346874L33.971874 15.346874L33.971874 27.14375L41.159374 27.14375L41.159374 29.55L31.08125 29.55ZM43.003124 29.55L43.003124 15.237499L53.628124 15.237499L53.628124 17.659374L45.89375 17.659374L45.89375 20.83125L53.08125 20.83125L53.08125 23.2375L45.89375 23.2375L45.89375 27.14375L53.89375 27.14375L53.89375 29.55L43.003124 29.55ZM70.675 27.003124L70.675 29.55L61.05 29.55Q61.20625 28.096874 61.9875 26.815624Q62.76875 25.51875 65.06563 23.378124Q66.925 21.64375 67.34688 21.034374Q67.90938 20.190624 67.90938 19.346874Q67.90938 18.440624 67.40938 17.95625Q66.925 17.45625 66.06563 17.45625Q65.20625 17.45625 64.69063 17.971874Q64.19063 18.4875 64.1125 19.690624L61.378124 19.409374Q61.6125 17.14375 62.89375 16.159374Q64.19063 15.174999 66.12813 15.174999Q68.25313 15.174999 69.45625 16.315624Q70.675 17.45625 70.675 19.159374Q70.675 20.128124 70.31563 21.003124Q69.97188 21.878124 69.22188 22.83125Q68.72188 23.471874 67.425 24.659374Q66.12813 25.846874 65.78438 26.2375Q65.44063 26.628124 65.22188 27.003124L70.675 27.003124Z" fill-rule="nonzero"/></svg>